<?xml version="1.0" encoding="UTF-8" standalone="no"?>
<!-- Created with Inkscape (http://www.inkscape.org/) -->

<svg
   xmlns:dc="http://purl.org/dc/elements/1.1/"
   xmlns:cc="http://creativecommons.org/ns#"
   xmlns:rdf="http://www.w3.org/1999/02/22-rdf-syntax-ns#"
   xmlns:svg="http://www.w3.org/2000/svg"
   xmlns="http://www.w3.org/2000/svg"
   xmlns:sodipodi="http://sodipodi.sourceforge.net/DTD/sodipodi-0.dtd"
   xmlns:inkscape="http://www.inkscape.org/namespaces/inkscape"
   width="210mm"
   height="297mm"
   viewBox="0 0 744.09448819 1052.3622047"
   id="svg5868"
   version="1.1"
   inkscape:version="0.91 r13725"
   sodipodi:docname="ship.svg"
   inkscape:export-filename="/Users/kyle/Desktop/ship"
   inkscape:export-xdpi="217.59569"
   inkscape:export-ydpi="217.59569">
  <defs
     id="defs5870" />
  <sodipodi:namedview
     id="base"
     pagecolor="#ffffff"
     bordercolor="#666666"
     borderopacity="1.0"
     inkscape:pageopacity="0.0"
     inkscape:pageshadow="2"
     inkscape:zoom="1.979899"
     inkscape:cx="389.60114"
     inkscape:cy="706.76896"
     inkscape:document-units="px"
     inkscape:current-layer="layer1"
     showgrid="false"
     inkscape:window-width="3004"
     inkscape:window-height="1647"
     inkscape:window-x="0"
     inkscape:window-y="0"
     inkscape:window-maximized="0" />
  <metadata
     id="metadata5873">
    <rdf:RDF>
      <cc:Work
         rdf:about="">
        <dc:format>image/svg+xml</dc:format>
        <dc:type
           rdf:resource="http://purl.org/dc/dcmitype/StillImage" />
        <dc:title />
      </cc:Work>
    </rdf:RDF>
  </metadata>
  <g
     inkscape:label="Layer 1"
     inkscape:groupmode="layer"
     id="layer1">
    <g
       id="g3407"
       transform="translate(-1.5152289,-7.5761486)"
       style="fill:#b3b3b3">
      <path
         style="fill-opacity:1;fill:#b3b3b3"
         d="m 55.773444,472.40934 c -1.641962,-4.13367 -2.999949,-8.80175 -4.101646,-14.09941 -3.397683,-16.33821 -5.438809,-21.51393 -10.97746,-27.83577 -3.623382,-4.13574 -4.906614,-6.56767 -3.185178,-6.03641 1.021953,0.31539 30.611366,2.09121 90.26885,5.41753 24.58,1.37051 61.07981,1.66624 60.6883,0.49171 -0.0769,-0.2308 -10.55268,-3.38997 -23.27944,-7.02036 -12.72676,-3.63039 -23.21607,-6.67038 -23.30958,-6.75552 -0.21973,-0.20008 0.80297,-4.47377 1.23969,-5.18038 0.25978,-0.42034 5.71256,0.99292 24.65492,6.39012 l 24.32137,6.92983 13.76684,-0.0135 c 15.17069,-0.0149 13.8358,-0.22179 17.82986,2.76401 1.06262,0.79438 2.30786,1.35854 2.99862,1.35854 l 1.18133,0 0,-4.05241 0,-4.05241 -22.33456,-6.37128 c -15.77459,-4.49995 -22.33456,-6.54062 -22.33456,-6.94781 0,-1.27303 1.33031,-5.04668 1.77908,-5.04668 0.26377,0 11.04675,3.01656 23.96219,6.70346 l 23.48261,6.70346 2.65034,-0.70622 c 2.23375,-0.5952 4.7087,-0.70621 15.74533,-0.70621 l 13.09498,0 2.81498,1.821 c 1.54825,1.00155 2.9412,2.02522 3.09546,2.27482 0.19377,0.31352 4.23645,0.45381 13.07775,0.45381 l 12.79729,0 0,-5.37684 0,-5.37684 3.10202,0 3.10202,0 0,-3.30882 0,-3.30882 15.09651,0 15.09651,0 0,-5.37684 0,-5.37684 9.92647,0 9.92647,0 0,5.37684 0,5.37684 4.54963,0 4.54963,0 0,8.06525 0,8.06526 4.34283,0 4.34283,0 0,-13.44209 0,-13.4421 16.54412,0 16.54412,0 0,17.57813 0,17.57812 14.25763,0 14.25763,0 0.11507,-5.68704 0.11508,-5.68704 34.63924,-0.10576 34.63925,-0.10577 0,1.67326 0,1.67325 13.1319,-0.11988 13.13189,-0.11988 3.083,-1.96461 3.08299,-1.96462 13.13057,0 c 7.81726,0 13.97097,0.18023 15.2074,0.44541 2.02595,0.43448 2.71878,0.26205 28.25235,-7.03125 14.39652,-4.11216 26.39333,-7.47666 26.65956,-7.47666 0.45178,0 1.78358,3.76685 1.78358,5.04473 0,0.40516 -7.19561,2.62913 -24.40257,7.54218 l -24.40258,6.96759 0,2.57914 c 0,3.24557 0.37464,5.16416 1.00841,5.16416 0.27029,0 1.77427,-0.77373 3.34224,-1.7194 l 2.8508,-1.7194 13.14492,0.26167 c 10.44224,0.20786 13.56486,0.399 15.18709,0.9296 l 2.04208,0.66794 26.19513,-7.48226 c 14.40732,-4.11525 26.41298,-7.48227 26.67921,-7.48227 0.4519,0 1.78358,3.76695 1.78358,5.04521 0,0.4758 -23.84959,7.56327 -48.70175,14.47288 -1.19949,0.33349 -1.34421,0.53459 -1.34421,1.86776 l 0,1.49402 16.23392,-0.27348 c 8.92865,-0.15042 30.98403,-0.39617 49.01195,-0.54611 l 32.77803,-0.27261 0,1.41085 c 0,2.57015 -2.06371,9.16296 -4.04441,12.93241 -3.24699,6.17932 -9.32013,11.95955 -14.72224,14.01218 -1.15466,0.43874 -5.82626,1.34301 -10.38135,2.0095 -4.55514,0.66649 -8.74733,1.38695 -9.31604,1.60102 -0.99062,0.37288 -10.11776,1.72261 -21.09375,3.11937 -2.84352,0.36185 -6.37982,0.94259 -7.85845,1.29053 -8.0057,1.88383 -14.40137,2.28203 -52.52758,3.27044 -49.96576,1.29535 -79.80676,1.46309 -304.2966,1.71046 l -229.227673,0.25258 -0.474789,-1.19529 z"
         id="path3423"
         inkscape:connector-curvature="0" />
      <path
         style="fill-opacity:1;fill:#b3b3b3"
         d="m 55.773444,472.40934 c -1.641962,-4.13367 -2.999949,-8.80175 -4.101646,-14.09941 -3.397683,-16.33821 -5.438809,-21.51393 -10.97746,-27.83577 -3.623382,-4.13574 -4.906614,-6.56767 -3.185178,-6.03641 1.021953,0.31539 30.611366,2.09121 90.26885,5.41753 24.64695,1.37424 61.07983,1.6663 60.68656,0.48648 -0.0779,-0.23369 -10.55364,-3.40447 -23.27944,-7.04618 -12.7258,-3.64172 -23.2127,-6.67772 -23.30422,-6.74667 -0.36174,-0.27255 1.32288,-5.51409 1.77222,-5.51409 0.26397,0 11.16267,3.07101 24.21933,6.82445 l 23.73938,6.82445 14.00756,0 c 15.43499,0 14.07568,-0.20893 18.07057,2.77749 1.06262,0.79438 2.30786,1.35854 2.99862,1.35854 l 1.18133,0 0,-4.05825 0,-4.05825 -22.23116,-6.35613 c -12.22714,-3.49588 -22.30604,-6.41309 -22.39755,-6.48269 -0.0915,-0.0696 0.16671,-1.35716 0.57385,-2.86124 0.71028,-2.624 0.7855,-2.72564 1.85827,-2.51108 0.61492,0.12298 11.17924,3.11907 23.47627,6.65797 12.29703,3.53891 22.79602,6.43236 23.3311,6.4299 0.53507,-0.002 1.88652,-0.28164 3.00321,-0.6204 1.61598,-0.49023 4.72439,-0.61593 15.23089,-0.61593 l 13.20053,0 2.81498,1.821 c 1.54825,1.00155 2.9412,2.02522 3.09546,2.27482 0.19377,0.31352 4.23645,0.45381 13.07775,0.45381 l 12.79729,0 0,-5.37684 0,-5.37684 3.10202,0 3.10202,0 0,-3.30882 0,-3.30882 15.09651,0 15.09651,0 0,-5.37684 0,-5.37684 9.92647,0 9.92647,0 0,5.37684 0,5.37684 4.54963,0 4.54963,0 0,8.06525 0,8.06526 4.34283,0 4.34283,0 0,-13.44209 0,-13.4421 16.54412,0 16.54412,0 0,17.57813 0,17.57812 14.25763,0 14.25763,0 0.11507,-5.68704 0.11508,-5.68704 34.63924,-0.10576 34.63925,-0.10577 0,1.67326 0,1.67325 13.1319,-0.11988 13.13189,-0.11988 3.083,-1.96461 3.08299,-1.96462 13.08193,0 c 7.81623,0 13.98822,0.182 15.33342,0.45216 2.23491,0.44884 2.43811,0.3985 27.67004,-6.85408 13.98024,-4.01844 25.90797,-7.40412 26.50608,-7.52374 1.03438,-0.20688 1.12363,-0.084 1.82775,2.51719 0.40711,1.50408 0.66536,2.79303 0.57383,2.86434 -0.0915,0.0713 -3.60963,1.10423 -7.81804,2.29538 -4.20841,1.19115 -15.14304,4.32326 -24.29918,6.96026 l -16.64752,4.79453 0,2.57212 c 0,3.23899 0.37506,5.15714 1.00841,5.15714 0.27029,0 1.77427,-0.77373 3.34224,-1.7194 l 2.8508,-1.7194 13.14492,0.26167 c 10.62476,0.2115 13.54902,0.39382 15.25236,0.95095 l 2.10734,0.68929 26.1266,-7.50362 c 14.36964,-4.12698 26.33844,-7.50361 26.59736,-7.50361 0.44313,0 2.12017,5.2451 1.76302,5.51399 -0.12763,0.0961 -41.87775,12.11011 -48.66134,14.00279 -1.19924,0.33459 -1.34421,0.53617 -1.34421,1.86907 l 0,1.49402 16.23392,-0.27348 c 8.92865,-0.15042 30.98403,-0.39617 49.01195,-0.54611 l 32.77803,-0.27261 0,1.41085 c 0,2.57015 -2.06371,9.16296 -4.04441,12.93241 -3.24699,6.17932 -9.32013,11.95955 -14.72224,14.01218 -1.15466,0.43874 -5.82626,1.34676 -10.38135,2.01783 -4.55514,0.67107 -8.84039,1.40088 -9.52284,1.62179 -1.25793,0.4072 -8.03419,1.40939 -19.6104,2.90032 -3.50628,0.45159 -7.60095,1.11177 -9.09927,1.46708 -7.99263,1.89539 -14.36683,2.29361 -52.56331,3.28384 -49.96576,1.29535 -79.80676,1.46309 -304.2966,1.71046 l -229.227673,0.25258 -0.474789,-1.19529 z"
         id="path3421"
         inkscape:connector-curvature="0" />
      <path
         style="fill-opacity:1;fill:#b3b3b3"
         d="m 55.773444,472.40934 c -1.641962,-4.13367 -2.999949,-8.80175 -4.101646,-14.09941 -3.397683,-16.33821 -5.438809,-21.51393 -10.97746,-27.83577 -3.623382,-4.13574 -4.906614,-6.56767 -3.185178,-6.03641 1.021953,0.31539 30.611366,2.09121 90.26885,5.41753 24.85643,1.38592 61.0799,1.66648 60.68106,0.46999 -0.0809,-0.24276 -10.50137,-3.4261 -23.15656,-7.07409 -12.6552,-3.64799 -23.12559,-6.7556 -23.26754,-6.9058 -0.36109,-0.38206 1.06928,-5.31056 1.54125,-5.31056 0.21225,0 11.10021,3.07101 24.19546,6.82445 l 23.80957,6.82445 14.02286,0 c 15.45205,0 14.09082,-0.20905 18.08586,2.77749 1.06262,0.79438 2.30786,1.35854 2.99862,1.35854 l 1.18133,0 0,-4.06867 0,-4.06867 -22.02436,-6.31137 c -12.11339,-3.47126 -22.17962,-6.45797 -22.36939,-6.63713 -0.42194,-0.39834 0.92342,-5.38475 1.45283,-5.38475 0.2081,0 10.77805,2.97794 23.48877,6.61765 12.71071,3.63971 23.5436,6.61563 24.07309,6.61317 0.52948,-0.002 1.87636,-0.28164 2.99305,-0.6204 1.61598,-0.49023 4.72439,-0.61593 15.23089,-0.61593 l 13.20053,0 2.81498,1.821 c 1.54825,1.00155 2.9412,2.02522 3.09546,2.27482 0.19377,0.31352 4.23645,0.45381 13.07775,0.45381 l 12.79729,0 0,-5.37684 0,-5.37684 3.10202,0 3.10202,0 0,-3.30882 0,-3.30882 15.09651,0 15.09651,0 0,-5.37684 0,-5.37684 9.92647,0 9.92647,0 0,5.37684 0,5.37684 4.54963,0 4.54963,0 0,8.06525 0,8.06526 4.34283,0 4.34283,0 0,-13.44209 0,-13.4421 16.54412,0 16.54412,0 0,17.57813 0,17.57812 14.25763,0 14.25763,0 0.11507,-5.68704 0.11508,-5.68704 34.63924,-0.10576 34.63925,-0.10577 0,1.67326 0,1.67325 13.1319,-0.11988 13.13189,-0.11988 3.083,-1.96461 3.08299,-1.96462 13.08193,0 c 7.86429,0 13.98537,0.18144 15.34707,0.4549 2.25327,0.45252 2.4015,0.41578 28.36961,-7.03125 14.35748,-4.11738 26.28012,-7.48615 26.49478,-7.48615 0.5376,0 1.89244,4.98092 1.46469,5.38482 -0.18976,0.17919 -10.86088,3.33173 -23.71359,7.00563 -12.85271,3.6739 -23.69428,6.7754 -24.09237,6.89223 -0.59038,0.17325 -0.72381,0.69329 -0.72381,2.82125 0,3.27342 0.37287,5.19387 1.00841,5.19387 0.27029,0 1.77427,-0.77373 3.34224,-1.7194 l 2.8508,-1.7194 13.14492,0.26167 c 10.65487,0.2121 13.54629,0.39293 15.26352,0.9546 l 2.11852,0.69294 25.70154,-7.37171 c 14.13583,-4.05444 26.09119,-7.44885 26.56753,-7.54314 0.74945,-0.14835 0.96291,0.17389 1.58584,2.39395 0.3959,1.41095 0.56453,2.71166 0.37477,2.89046 -0.18977,0.1788 -10.20946,3.14713 -22.26599,6.59628 -12.05653,3.44916 -23.17727,6.63939 -24.71278,7.0894 -2.78127,0.81511 -2.79182,0.82384 -2.79182,2.31415 l 0,1.49595 16.23392,-0.27348 c 8.92865,-0.15042 30.98403,-0.39617 49.01195,-0.54611 l 32.77803,-0.27261 0,1.41085 c 0,2.57015 -2.06371,9.16296 -4.04441,12.93241 -3.24699,6.17932 -9.32013,11.95955 -14.72224,14.01218 -1.15466,0.43874 -5.82626,1.34756 -10.38135,2.0196 -4.55514,0.67205 -8.93345,1.39841 -9.72964,1.61412 -1.70743,0.46261 -6.72146,1.21917 -17.78493,2.68356 -4.43589,0.58714 -9.27504,1.35288 -10.75367,1.70164 -7.98941,1.88445 -14.39264,2.2833 -52.52758,3.27194 -49.96576,1.29535 -79.80676,1.46309 -304.2966,1.71046 l -229.227673,0.25258 -0.474789,-1.19529 z"
         id="path3419"
         inkscape:connector-curvature="0" />
      <path
         style="fill-opacity:1;fill:#b3b3b3"
         d="m 55.773444,472.40934 c -1.641962,-4.13367 -2.999949,-8.80175 -4.101646,-14.09941 -3.397683,-16.33821 -5.438809,-21.51393 -10.97746,-27.83577 -3.623382,-4.13574 -4.906614,-6.56767 -3.185178,-6.03641 1.021953,0.31539 30.611366,2.09121 90.26885,5.41753 6.25574,0.3488 19.8426,0.8205 30.19301,1.04821 19.67451,0.43284 30.75151,0.21727 30.48523,-0.59329 -0.0825,-0.25104 -10.49981,-3.43438 -23.14966,-7.07409 -12.64985,-3.6397 -23.11201,-6.73358 -23.24926,-6.87527 -0.33668,-0.34759 1.06874,-5.32602 1.50355,-5.32602 0.18917,0 11.028,3.07101 24.0863,6.82445 l 23.74234,6.82445 14.11873,0 c 15.55901,0 14.18568,-0.20979 18.18172,2.77749 1.06262,0.79438 2.30786,1.35854 2.99862,1.35854 l 1.18133,0 0,-4.08779 c 0,-3.5401 -0.097,-4.11498 -0.7238,-4.29071 -14.28602,-4.00504 -43.41361,-12.47867 -43.65447,-12.6997 -0.39556,-0.36298 0.93753,-5.39239 1.4293,-5.39239 0.18905,0 10.70427,2.97794 23.36715,6.61765 12.6629,3.63971 23.50539,6.61563 24.09445,6.61317 0.58906,-0.002 1.98467,-0.28164 3.10136,-0.6204 1.61598,-0.49023 4.72439,-0.61593 15.23089,-0.61593 l 13.20053,0 2.81498,1.821 c 1.54825,1.00155 2.9412,2.02522 3.09546,2.27482 0.19377,0.31352 4.23645,0.45381 13.07775,0.45381 l 12.79729,0 0,-5.37684 0,-5.37684 3.10202,0 3.10202,0 0,-3.30882 0,-3.30882 15.09651,0 15.09651,0 0,-5.37684 0,-5.37684 9.92647,0 9.92647,0 0,5.37684 0,5.37684 4.54963,0 4.54963,0 0,8.06525 0,8.06526 4.34283,0 4.34283,0 0,-13.44209 0,-13.4421 16.54412,0 16.54412,0 0,17.57813 0,17.57812 14.25763,0 14.25763,0 0.11507,-5.68704 0.11508,-5.68704 34.63924,-0.10576 34.63925,-0.10577 0,1.67326 0,1.67325 13.1319,-0.11988 13.13189,-0.11988 3.10202,-1.98339 3.10202,-1.98338 14.26931,0.12217 c 9.44317,0.0808 14.52979,0.2764 15.03947,0.57816 0.61949,0.36678 5.94174,-1.02905 27.20415,-7.13465 14.53873,-4.17485 26.5852,-7.59064 26.77004,-7.59064 0.48623,0 1.81348,5.03306 1.4216,5.39091 -0.24829,0.22672 -27.48475,8.14141 -47.1701,13.70725 -1.3349,0.37743 -1.34421,0.39821 -1.34421,2.99734 0,3.28132 0.37237,5.2023 1.00841,5.2023 0.27029,0 1.77427,-0.77373 3.34224,-1.7194 l 2.8508,-1.7194 13.14492,0.26167 c 10.74032,0.2138 13.53843,0.39036 15.29587,0.96519 l 2.15086,0.70352 26.40511,-7.57466 c 14.5228,-4.16606 26.46993,-7.50256 26.54914,-7.41445 0.45442,0.50544 1.48566,5.07782 1.2035,5.33609 -0.18579,0.17004 -10.4814,3.2109 -22.87915,6.75747 -12.39775,3.54657 -23.5185,6.74002 -24.71278,7.09657 -2.10028,0.62703 -2.17142,0.69732 -2.17142,2.14571 l 0,1.49744 16.23392,-0.27348 c 8.92865,-0.15042 30.98403,-0.39617 49.01195,-0.54611 l 32.77803,-0.27261 0,1.41085 c 0,2.57015 -2.06371,9.16296 -4.04441,12.93241 -3.24699,6.17932 -9.32013,11.95955 -14.72224,14.01218 -1.15466,0.43874 -5.82626,1.34756 -10.38135,2.0196 -4.55514,0.67205 -8.93345,1.39836 -9.72964,1.61402 -1.35955,0.36826 -9.54951,1.58197 -20.88695,3.09536 -2.72978,0.36438 -6.17302,0.94636 -7.65165,1.29328 -8.02589,1.88308 -14.41212,2.28047 -52.52758,3.2686 -49.96576,1.29535 -79.80676,1.46309 -304.2966,1.71046 l -229.227673,0.25258 -0.474789,-1.19529 z"
         id="path3417"
         inkscape:connector-curvature="0" />
      <path
         style="fill-opacity:1;fill:#b3b3b3"
         d="m 55.773444,472.40934 c -1.641962,-4.13367 -2.999949,-8.80175 -4.101646,-14.09941 -3.397683,-16.33821 -5.438809,-21.51393 -10.97746,-27.83577 -3.623382,-4.13574 -4.906614,-6.56767 -3.185178,-6.03641 1.021953,0.31539 30.611366,2.09121 90.26885,5.41753 6.25574,0.3488 19.8426,0.8205 30.19301,1.04821 19.60579,0.43133 30.61056,0.21822 30.60153,-0.5926 -0.003,-0.25142 -10.37907,-3.41551 -23.05837,-7.0313 -12.6793,-3.61579 -23.20157,-6.7048 -23.38282,-6.86448 -0.18126,-0.15967 -0.008,-1.44726 0.38524,-2.86131 0.67694,-2.43482 0.77106,-2.55718 1.77716,-2.31034 0.5843,0.14335 11.4147,3.22606 24.06755,6.85045 l 23.00518,6.58981 14.13024,0 c 15.57187,0 14.19708,-0.20988 18.19324,2.77749 1.06262,0.79438 2.30786,1.35854 2.99862,1.35854 l 1.18133,0 0,-4.11659 0,-4.11659 -1.55101,-0.42645 c -9.5362,-2.62197 -42.57662,-12.21366 -42.82726,-12.43282 -0.357,-0.31216 0.91478,-5.37814 1.35014,-5.37814 0.14551,0 10.6558,2.97794 23.3562,6.61765 12.7004,3.63971 23.57852,6.61563 24.17361,6.61317 0.59508,-0.002 1.99562,-0.28164 3.11231,-0.6204 1.61598,-0.49023 4.72439,-0.61593 15.23089,-0.61593 l 13.20053,0 2.81498,1.821 c 1.54825,1.00155 2.9412,2.02522 3.09546,2.27482 0.19377,0.31352 4.23645,0.45381 13.07775,0.45381 l 12.79729,0 0,-5.37684 0,-5.37684 3.10202,0 3.10202,0 0,-3.30882 0,-3.30882 15.09651,0 15.09651,0 0,-5.37684 0,-5.37684 9.92647,0 9.92647,0 0,5.37684 0,5.37684 4.54963,0 4.54963,0 0,8.06525 0,8.06526 4.34283,0 4.34283,0 0,-13.44209 0,-13.4421 16.54412,0 16.54412,0 0,17.57813 0,17.57812 14.25763,0 14.25763,0 0.11507,-5.68704 0.11508,-5.68704 34.63924,-0.10576 34.63925,-0.10577 0,1.67326 0,1.67325 13.1319,-0.11988 13.13189,-0.11988 3.10202,-1.98339 3.10202,-1.98338 14.26931,0.12217 c 9.53148,0.0816 14.54397,0.27574 15.0965,0.58467 0.67902,0.37964 5.42155,-0.85893 26.47059,-6.91311 14.10386,-4.05659 26.12259,-7.48293 26.70829,-7.61409 1.00435,-0.22492 1.10535,-0.0929 1.77717,2.32345 0.39172,1.40906 0.56395,2.69196 0.38271,2.85091 -0.18124,0.15894 -10.28705,3.13552 -22.45732,6.61463 -12.17027,3.4791 -23.01184,6.58488 -24.09237,6.90172 l -1.96462,0.57608 0,2.62069 c 0,3.28453 0.37216,5.20572 1.00841,5.20572 0.27029,0 1.7258,-0.74449 3.2345,-1.65442 l 2.74305,-1.65441 8.39809,0.0431 c 10.21508,0.0524 18.51361,0.52048 21.01301,1.18514 1.8139,0.48236 2.52265,0.30485 27.88586,-6.9843 14.31351,-4.11358 26.14827,-7.47924 26.29936,-7.47924 0.3918,0 1.73622,5.01581 1.42755,5.32602 -0.141,0.14169 -11.36217,3.44406 -24.93592,7.3386 l -24.6796,7.08098 -0.13232,1.56758 -0.13231,1.56759 16.26283,-0.27394 c 8.94454,-0.15066 31.01294,-0.39661 49.04086,-0.54655 l 32.77803,-0.27261 0,1.41085 c 0,2.57015 -2.06371,9.16296 -4.04441,12.93241 -3.24699,6.17932 -9.32013,11.95955 -14.72224,14.01218 -1.15466,0.43874 -5.80616,1.34482 -10.33672,2.01352 -4.53057,0.66871 -9.00195,1.39631 -9.93644,1.6169 -0.93446,0.22058 -7.56186,1.23922 -14.72754,2.26363 -7.16567,1.02442 -13.67991,2.05341 -14.4761,2.28666 -5.44835,1.59609 -14.6499,2.14963 -51.70037,3.11015 -49.96576,1.29535 -79.80676,1.46309 -304.2966,1.71046 l -229.227673,0.25258 -0.474789,-1.19529 z"
         id="path3415"
         inkscape:connector-curvature="0" />
      <path
         style="fill-opacity:1;fill:#b3b3b3"
         d="m 55.773444,472.40934 c -1.641962,-4.13367 -2.999949,-8.80175 -4.101646,-14.09941 -3.397683,-16.33821 -5.438809,-21.51393 -10.97746,-27.83577 -3.623382,-4.13574 -4.906614,-6.56767 -3.185178,-6.03641 1.021953,0.31539 30.611366,2.09121 90.26885,5.41753 6.25574,0.3488 19.8426,0.8205 30.19301,1.04821 19.65521,0.43242 30.60662,0.21874 30.60662,-0.59717 0,-0.25571 -10.28823,-3.3964 -23.05836,-7.03905 -12.68211,-3.61754 -23.19046,-6.68829 -23.3519,-6.82389 -0.16145,-0.1356 0.0202,-1.41761 0.40373,-2.84891 0.65385,-2.44032 0.76077,-2.58643 1.71702,-2.34643 0.56086,0.14077 11.34483,3.22138 23.96437,6.84581 l 22.94462,6.58987 14.21492,0 c 15.66636,0 14.2809,-0.21053 18.27793,2.77749 1.06262,0.79438 2.30786,1.35854 2.99862,1.35854 l 1.18133,0 0,-4.10492 0,-4.10492 -2.17141,-0.64449 c -1.19428,-0.35447 -11.10524,-3.18931 -22.02436,-6.29964 -10.91912,-3.11033 -19.98995,-5.77244 -20.1574,-5.9158 -0.24319,-0.2082 0.75958,-4.79257 1.1664,-5.33249 0.0574,-0.0762 10.52568,2.85526 23.26288,6.51425 12.7372,3.65899 23.68706,6.6507 24.33303,6.64824 0.64598,-0.002 2.08816,-0.28164 3.20485,-0.6204 1.61598,-0.49023 4.72439,-0.61593 15.23089,-0.61593 l 13.20053,0 2.81498,1.821 c 1.54825,1.00155 2.9412,2.02522 3.09546,2.27482 0.19377,0.31352 4.23645,0.45381 13.07775,0.45381 l 12.79729,0 0,-5.37684 0,-5.37684 3.10202,0 3.10202,0 0,-3.30882 0,-3.30882 15.09651,0 15.09651,0 0,-5.37684 0,-5.37684 9.92647,0 9.92647,0 0,5.37684 0,5.37684 4.54963,0 4.54963,0 0,8.06525 0,8.06526 4.34283,0 4.34283,0 0,-13.44209 0,-13.4421 16.54412,0 16.54412,0 0,17.57813 0,17.57812 14.25763,0 14.25763,0 0.11507,-5.68704 0.11508,-5.68704 34.63924,-0.10576 34.63925,-0.10577 0,1.67326 0,1.67325 13.1319,-0.11988 13.13189,-0.11988 3.10202,-1.98339 3.10202,-1.98338 14.26931,0.12217 c 9.69514,0.083 14.53446,0.27307 15.0965,0.5929 0.6841,0.3893 5.40679,-0.84443 27.2978,-7.13112 14.55882,-4.18102 26.57068,-7.60344 26.69298,-7.60538 0.37547,-0.006 1.62488,5.14215 1.31195,5.40578 -0.16143,0.13602 -9.87878,2.97976 -21.59409,6.31942 -11.7153,3.33966 -22.55687,6.44957 -24.09237,6.9109 l -2.79182,0.83879 0,2.61718 c 0,3.28123 0.37237,5.2022 1.00841,5.2022 0.27029,0 1.7258,-0.74449 3.2345,-1.65442 l 2.74305,-1.65441 8.39809,0.0431 c 10.2705,0.0527 18.52974,0.52191 21.01301,1.1937 1.81957,0.49223 2.44762,0.33514 28.05717,-7.01768 14.40774,-4.13665 26.24212,-7.45963 26.29857,-7.3844 0.32547,0.43371 1.42677,5.08497 1.24665,5.2651 -0.11904,0.11904 -11.32888,3.40106 -24.91077,7.29339 l -24.69437,7.07695 -0.13232,1.58765 -0.13231,1.58766 16.26283,-0.27394 c 8.94454,-0.15066 31.01294,-0.39661 49.04086,-0.54655 l 32.77803,-0.27261 0,1.41085 c 0,2.57015 -2.06371,9.16296 -4.04441,12.93241 -3.24699,6.17932 -9.32013,11.95955 -14.72224,14.01218 -1.15466,0.43874 -5.79102,1.34258 -10.30306,2.00856 -4.51203,0.66597 -8.98345,1.38334 -9.93644,1.59415 -0.95298,0.21082 -7.13022,1.15179 -13.72719,2.09104 -6.59697,0.93925 -13.20427,1.98933 -14.6829,2.33351 -8.08139,1.88108 -14.44112,2.27622 -52.52758,3.2636 -49.96576,1.29535 -79.80676,1.46309 -304.2966,1.71046 l -229.227673,0.25258 -0.474789,-1.19529 z"
         id="path3413"
         inkscape:connector-curvature="0" />
      <path
         style="fill-opacity:1;fill:#b3b3b3"
         d="m 55.773444,472.40934 c -1.641962,-4.13367 -2.999949,-8.80175 -4.101646,-14.09941 -3.397683,-16.33821 -5.438809,-21.51393 -10.97746,-27.83577 -3.623382,-4.13574 -4.906614,-6.56767 -3.185178,-6.03641 1.021953,0.31539 30.611366,2.09121 90.26885,5.41753 6.25574,0.3488 19.8426,0.8205 30.19301,1.04821 19.71438,0.43372 30.60662,0.21934 30.60662,-0.6024 0,-0.26209 -10.07728,-3.3594 -22.971,-7.06027 -12.63404,-3.62634 -23.14666,-6.70193 -23.36138,-6.83463 -0.30779,-0.19022 0.58901,-4.6398 1.0666,-5.29204 0.0513,-0.0701 10.82316,2.95436 23.9374,6.72105 l 23.84406,6.84852 14.26682,0 c 15.72427,0 14.33227,-0.21093 18.32983,2.77749 1.06262,0.79438 2.30786,1.35854 2.99862,1.35854 l 1.18133,0 0,-4.12447 0,-4.12448 -2.17141,-0.62639 c -1.19428,-0.34452 -11.16156,-3.21336 -22.1495,-6.3752 -10.98794,-3.16185 -20.0574,-5.82814 -20.15435,-5.92508 -0.14836,-0.14836 0.99838,-4.83355 1.27627,-5.21442 0.0507,-0.0694 10.50329,2.86198 23.22807,6.51425 12.72478,3.65227 23.68015,6.63848 24.34526,6.63602 0.66512,-0.002 2.12296,-0.28164 3.23965,-0.6204 1.61598,-0.49023 4.72439,-0.61593 15.23089,-0.61593 l 13.20053,0 2.81498,1.821 c 1.54825,1.00155 2.9412,2.02522 3.09546,2.27482 0.19377,0.31352 4.23645,0.45381 13.07775,0.45381 l 12.79729,0 0,-5.37684 0,-5.37684 3.10202,0 3.10202,0 0,-3.30882 0,-3.30882 15.09651,0 15.09651,0 0,-5.37684 0,-5.37684 9.92647,0 9.92647,0 0,5.37684 0,5.37684 4.54963,0 4.54963,0 0,8.06525 0,8.06526 4.34283,0 4.34283,0 0,-13.44209 0,-13.4421 16.54412,0 16.54412,0 0,17.57813 0,17.57812 14.25763,0 14.25763,0 0.11507,-5.68704 0.11508,-5.68704 34.63924,-0.10576 34.63925,-0.10577 0,1.67326 0,1.67325 13.1319,-0.11988 13.13189,-0.11988 3.10202,-1.98339 3.10202,-1.98338 14.26931,0.12217 c 9.93606,0.0851 14.5249,0.26915 15.11102,0.60616 0.70639,0.40618 5.09526,-0.73955 27.2978,-7.12622 14.55084,-4.18562 26.55616,-7.61401 26.67846,-7.61864 0.28605,-0.0108 1.65574,5.07576 1.42809,5.30343 -0.0944,0.0944 -11.0202,3.28864 -24.27961,7.09837 l -24.10801,6.92678 -0.13169,2.22258 c -0.17561,2.96404 0.26285,5.73821 0.90695,5.73821 0.28477,0 1.75215,-0.74449 3.26085,-1.65442 l 2.74305,-1.65441 8.39809,0.0431 c 10.31265,0.0529 18.53512,0.52264 21.03386,1.20154 1.84851,0.50223 2.34881,0.37731 28.06681,-7.00803 14.40161,-4.13566 26.2266,-7.46217 26.27772,-7.39224 0.28518,0.38986 1.42391,5.06855 1.27084,5.2216 -0.10038,0.10042 -11.31026,3.37943 -24.91077,7.28669 l -24.7282,7.10412 -0.13232,1.59434 -0.13231,1.59435 16.26283,-0.27394 c 8.94454,-0.15066 31.01294,-0.39661 49.04086,-0.54655 l 32.77803,-0.27261 0,1.41085 c 0,2.57015 -2.06371,9.16296 -4.04441,12.93241 -3.24699,6.17932 -9.32013,11.95955 -14.72224,14.01218 -1.15466,0.43874 -5.82626,1.34551 -10.38135,2.01507 -4.55514,0.66955 -8.56121,1.30157 -8.90243,1.40448 -0.34123,0.10292 -6.94853,1.12054 -14.68291,2.26139 -7.73437,1.14085 -14.71392,2.26543 -15.51011,2.49906 -5.44016,1.59634 -14.64514,2.15022 -51.70037,3.11086 -49.96576,1.29535 -79.80676,1.46309 -304.2966,1.71046 l -229.227673,0.25258 -0.474789,-1.19529 z"
         id="path3411"
         inkscape:connector-curvature="0" />
      <path
         style="fill-opacity:1;fill:#b3b3b3"
         d="m 55.773444,472.40934 c -1.641962,-4.13367 -2.999949,-8.80175 -4.101646,-14.09941 -3.397683,-16.33821 -5.438809,-21.51393 -10.97746,-27.83577 -3.623382,-4.13574 -4.906614,-6.56767 -3.185178,-6.03641 1.021953,0.31539 30.611366,2.09121 90.26885,5.41753 6.25574,0.3488 19.8426,0.8205 30.19301,1.04821 20.11105,0.44245 30.60662,0.22349 30.60662,-0.63852 0,-0.31023 -8.80569,-3.01709 -22.97415,-7.06222 -12.63577,-3.60755 -23.14441,-6.66441 -23.35252,-6.79303 -0.5919,-0.36581 0.99978,-5.1776 1.6923,-5.116 0.32211,0.0286 11.0463,3.05312 23.83154,6.72105 l 23.24589,6.66895 14.30313,0 c 15.76478,0 14.36821,-0.2112 18.36614,2.77749 1.07462,0.80335 2.30597,1.35854 3.01309,1.35854 l 1.1958,0 -0.11787,-4.19592 -0.11787,-4.19591 -22.04001,-6.29768 c -12.12201,-3.46372 -22.11841,-6.37607 -22.21422,-6.47189 -0.0958,-0.0958 0.15951,-1.28305 0.5674,-2.6383 0.47288,-1.57119 0.95384,-2.44512 1.32727,-2.41173 0.32212,0.0288 10.72288,2.9602 23.11281,6.51424 12.38993,3.55404 23.09191,6.45988 23.78217,6.45742 0.69026,-0.002 2.16868,-0.28164 3.28537,-0.6204 1.61598,-0.49023 4.72439,-0.61593 15.23089,-0.61593 l 13.20053,0 2.81498,1.821 c 1.54825,1.00155 2.9412,2.02522 3.09546,2.27482 0.19377,0.31352 4.23645,0.45381 13.07775,0.45381 l 12.79729,0 0,-5.37684 0,-5.37684 3.10202,0 3.10202,0 0,-3.30882 0,-3.30882 15.09651,0 15.09651,0 0,-5.37684 0,-5.37684 9.92647,0 9.92647,0 0,5.37684 0,5.37684 4.54963,0 4.54963,0 0,8.06525 0,8.06526 4.34283,0 4.34283,0 0,-13.44209 0,-13.4421 16.54412,0 16.54412,0 0,17.57813 0,17.57812 14.25763,0 14.25763,0 0.11507,-5.68704 0.11508,-5.68704 34.63924,-0.10576 34.63925,-0.10577 0,1.67326 0,1.67325 13.1319,-0.11988 13.13189,-0.11988 3.10202,-1.98339 3.10202,-1.98338 14.26931,0.12217 c 9.98549,0.0855 14.52362,0.26834 15.11644,0.60907 0.7133,0.40996 4.92878,-0.685 26.67739,-6.92943 14.20664,-4.07898 26.18636,-7.46215 26.6216,-7.51815 0.63546,-0.0817 0.93772,0.38374 1.53409,2.36227 0.40848,1.35525 0.6645,2.5423 0.56891,2.63789 -0.0956,0.0956 -11.0226,3.27373 -24.28226,7.06252 l -24.10842,6.88872 -0.13169,2.26107 c -0.17491,3.00276 0.26061,5.77671 0.90695,5.77671 0.28477,0 1.75215,-0.74449 3.26085,-1.65442 l 2.74305,-1.65441 8.39809,0.0431 c 10.32357,0.053 18.53499,0.52275 21.04407,1.20387 1.86076,0.50513 2.31875,0.39144 27.5046,-6.82788 14.08678,-4.03786 25.87587,-7.36542 26.19798,-7.39458 0.37365,-0.0338 0.85414,0.83902 1.32726,2.41108 0.40789,1.35524 0.66453,2.54118 0.57031,2.63541 -0.0942,0.0942 -11.30041,3.35924 -24.90266,7.25558 l -24.7313,7.08426 -0.13232,1.61731 -0.13231,1.61732 16.26283,-0.27394 c 8.94454,-0.15066 31.01294,-0.39661 49.04086,-0.54655 l 32.77803,-0.27261 0,1.41085 c 0,2.57015 -2.06371,9.16296 -4.04441,12.93241 -3.24224,6.17027 -9.32046,11.95967 -14.70392,14.00522 -1.14452,0.43489 -5.16474,1.24268 -8.93374,1.79507 -3.769,0.5524 -8.43477,1.28173 -10.36836,1.62073 -1.9336,0.339 -9.19233,1.451 -16.13052,2.47113 -6.93819,1.02011 -13.26631,2.05052 -14.0625,2.28978 -5.32485,1.6002 -14.57566,2.15866 -51.70037,3.12111 -49.96576,1.29535 -79.80676,1.46309 -304.2966,1.71046 l -229.227673,0.25258 -0.474789,-1.19529 z"
         id="path3409"
         inkscape:connector-curvature="0" />
    </g>
  </g>
</svg>
