<?xml version="1.0" encoding="UTF-8" standalone="no"?>
<!-- Created with Inkscape (http://www.inkscape.org/) -->

<svg
   xmlns:dc="http://purl.org/dc/elements/1.1/"
   xmlns:cc="http://creativecommons.org/ns#"
   xmlns:rdf="http://www.w3.org/1999/02/22-rdf-syntax-ns#"
   xmlns:svg="http://www.w3.org/2000/svg"
   xmlns="http://www.w3.org/2000/svg"
   xmlns:sodipodi="http://sodipodi.sourceforge.net/DTD/sodipodi-0.dtd"
   xmlns:inkscape="http://www.inkscape.org/namespaces/inkscape"
   width="210mm"
   height="297mm"
   viewBox="0 0 744.09448819 1052.3622047"
   id="svg5868"
   version="1.1"
   inkscape:version="0.91 r13725"
   sodipodi:docname="ship.svg">
  <defs
     id="defs5870" />
  <sodipodi:namedview
     id="base"
     pagecolor="#ffffff"
     bordercolor="#666666"
     borderopacity="1.0"
     inkscape:pageopacity="0.0"
     inkscape:pageshadow="2"
     inkscape:zoom="1.979899"
     inkscape:cx="386.38171"
     inkscape:cy="583.95581"
     inkscape:document-units="px"
     inkscape:current-layer="layer1"
     showgrid="false"
     inkscape:window-width="3004"
     inkscape:window-height="1647"
     inkscape:window-x="4"
     inkscape:window-y="0"
     inkscape:window-maximized="1" />
  <metadata
     id="metadata5873">
    <rdf:RDF>
      <cc:Work
         rdf:about="">
        <dc:format>image/svg+xml</dc:format>
        <dc:type
           rdf:resource="http://purl.org/dc/dcmitype/StillImage" />
        <dc:title></dc:title>
      </cc:Work>
    </rdf:RDF>
  </metadata>
  <g
     inkscape:label="Layer 1"
     inkscape:groupmode="layer"
     id="layer1">
    <g
       id="g5941"
       transform="translate(5.555839,-15.152291)"
       style="fill:#b3b3b3">
      <path
         style="fill-opacity:1;fill:#b3b3b3"
         d="m 47.732296,527.87629 c -1.705482,-4.46785 -2.379002,-6.97192 -3.64904,-13.56671 -2.813296,-14.60829 -5.35351,-20.68604 -11.306743,-27.05267 -1.089917,-1.16561 -2.305288,-2.75449 -2.700826,-3.53087 l -0.719159,-1.41159 2.253737,0.2557 c 2.196551,0.24921 7.163259,0.55944 24.082278,1.50425 4.545847,0.25385 19.804633,1.12911 33.908414,1.94501 44.017303,2.54639 46.346423,2.64842 66.651223,2.91951 17.08279,0.22807 19.81523,0.18042 19.81523,-0.34555 0,-0.41531 -0.83629,-0.75741 -2.61928,-1.07148 -1.4406,-0.25376 -2.72861,-0.63828 -2.86224,-0.85449 -0.13362,-0.21622 -1.86366,-0.60632 -3.84451,-0.86689 -10.77219,-1.41707 -20.84607,-2.93118 -21.08381,-3.16892 -0.11685,-0.11686 -0.0902,-0.53112 0.0593,-0.9206 0.23588,-0.6147 0.73219,-0.67164 3.7611,-0.43149 3.64264,0.28881 9.16745,0.86083 14.93344,1.54616 1.86497,0.22166 5.5843,0.50302 8.26518,0.62524 2.68088,0.12222 5.38944,0.3264 6.01902,0.45374 0.69203,0.13997 1.92851,-0.1152 3.12683,-0.64527 1.8727,-0.82839 2.74978,-0.8768 15.88511,-0.8768 l 13.90296,0 2.61539,1.55799 c 1.43847,0.85688 2.71232,1.81056 2.83079,2.11927 0.12771,0.33282 0.88706,0.56129 1.86546,0.56129 l 1.65007,0 0,-4.0067 0,-4.0067 -1.58945,-0.48427 c -1.37772,-0.41976 -16.17664,-1.13022 -25.43131,-1.22089 -2.96151,-0.029 -3.07295,-0.0674 -3.07295,-1.05781 l 0,-1.02771 13.24547,-0.23593 c 16.12177,-0.28717 22.04196,-0.69225 24.14613,-1.65217 1.37586,-0.62766 3.27976,-0.71889 15.00233,-0.71889 l 13.42649,0 2.90555,1.79293 c 1.59805,0.98611 2.90555,2.03515 2.90555,2.3312 0,0.42355 2.80044,0.53827 13.13951,0.53827 l 13.13951,0 0,-5.51011 0,-5.51012 3.17891,0 3.17892,0 0,-2.75506 0,-2.75506 11.44409,0 11.44409,0 0,2.3312 c 0,2.30766 0.0128,2.33121 1.27156,2.33121 l 1.27157,0 0,-2.75506 0,-2.75506 2.3312,0 2.3312,0 0,-5.51012 0,-5.51011 9.74867,0 9.74867,0 0,5.48896 0,5.48897 2.43717,0.12711 2.43717,0.12712 0.12533,2.86102 0.12533,2.86102 2.0999,0 2.09991,0 0,5.08627 0,5.08626 4.45048,0 4.45048,0 0,-13.56337 0,-13.56336 16.31843,0 16.31842,0 0,17.58999 0,17.58999 14.623,0 14.62301,0 0,-5.72205 0,-5.72204 34.54419,0 34.5442,0 0,1.69542 0,1.69542 13.29956,0 c 10.94123,0 13.38767,-0.10621 13.79661,-0.59895 0.27339,-0.32943 1.64558,-1.2831 3.04926,-2.11928 l 2.55216,-1.52032 13.56039,0 c 12.41574,0 13.72799,0.0689 15.54629,0.81619 1.70097,0.69908 3.81059,0.88202 14.70159,1.27485 6.99361,0.25226 14.77203,0.45718 17.2854,0.45537 3.76015,-0.003 4.6149,0.1144 4.82466,0.66099 0.14017,0.36535 0.0865,0.82807 -0.11927,1.02827 -0.20578,0.2002 -5.52402,0.48072 -11.81827,0.62338 -6.29425,0.14265 -12.92228,0.47724 -14.72897,0.74352 l -3.28487,0.48414 0,3.73833 c 0,4.47311 0.12736,4.53694 4.07638,2.0429 l 2.68453,-1.69542 13.37869,0 c 12.30778,0 13.50509,0.0645 14.95738,0.80536 2.02154,1.03132 11.61987,1.73777 23.61056,1.73777 10.99578,0 13.77169,0.26848 13.77169,1.33195 0,0.43303 -0.14305,0.81058 -0.31789,0.839 -0.17484,0.0284 -5.94457,0.21051 -12.82162,0.40465 -6.87705,0.19413 -13.60045,0.47464 -14.9409,0.62333 l -2.43716,0.27037 0,1.7251 0,1.72511 32.95474,-0.31153 c 18.1251,-0.17134 40.20266,-0.45589 49.06123,-0.63233 8.85858,-0.17644 16.17559,-0.2684 16.25998,-0.20435 0.27169,0.20612 -0.77668,5.523 -1.59264,8.0772 -2.54368,7.96237 -7.63117,14.62907 -14.00027,18.34605 -3.56912,2.08292 -4.45235,2.33225 -12.11116,3.41868 -3.4968,0.49603 -7.35901,1.04637 -8.58273,1.22296 -1.22367,0.1766 -2.34523,0.44142 -2.49231,0.5885 -0.14707,0.14707 -0.71538,2.12047 -1.26291,4.38533 -0.54754,2.26486 -1.1581,4.28049 -1.35677,4.47919 -0.1987,0.19869 -2.81863,0.30764 -5.82203,0.2421 l -5.46078,-0.11916 -0.70021,-3.08711 c -0.38515,-1.69791 -0.8227,-3.20957 -0.97236,-3.35925 -0.31785,-0.31782 -12.7886,1.45472 -14.03999,1.99558 -0.46624,0.20151 -1.41992,0.45625 -2.11928,0.56608 -8.6967,1.36576 -11.12781,1.53326 -28.39829,1.95655 -10.2573,0.2514 -25.42072,0.65456 -33.69649,0.89591 -37.89507,1.10512 -83.51714,1.34154 -296.12439,1.53454 l -224.704807,0.20397 -1.267367,-3.32012 z"
         id="path5957"
         inkscape:connector-curvature="0" />
      <path
         style="fill-opacity:1;fill:#b3b3b3"
         d="m 47.732296,527.87629 c -1.705482,-4.46785 -2.379002,-6.97192 -3.64904,-13.56671 -2.813296,-14.60829 -5.35351,-20.68604 -11.306743,-27.05267 -1.089917,-1.16561 -2.305288,-2.75449 -2.700826,-3.53087 l -0.719159,-1.41159 2.253737,0.2557 c 2.196551,0.24921 7.163259,0.55944 24.082278,1.50425 4.545847,0.25385 19.804633,1.12911 33.908414,1.94501 44.017303,2.54639 46.346423,2.64842 66.651223,2.91951 17.08279,0.22807 19.81523,0.18042 19.81523,-0.34555 0,-0.41531 -0.83629,-0.75741 -2.61928,-1.07148 -1.4406,-0.25376 -2.72861,-0.63828 -2.86224,-0.85449 -0.13362,-0.21622 -1.86366,-0.60632 -3.84451,-0.86689 -10.77219,-1.41707 -20.84607,-2.93118 -21.08381,-3.16892 -0.11685,-0.11686 -0.0902,-0.53112 0.0593,-0.9206 0.23588,-0.6147 0.73219,-0.67164 3.7611,-0.43149 3.64264,0.28881 9.16745,0.86083 14.93344,1.54616 1.86497,0.22166 5.5843,0.50302 8.26518,0.62524 2.68088,0.12222 5.38944,0.3264 6.01902,0.45374 0.69203,0.13997 1.92851,-0.1152 3.12683,-0.64527 1.8727,-0.82839 2.74978,-0.8768 15.88511,-0.8768 l 13.90296,0 2.61539,1.55799 c 1.43847,0.85688 2.71232,1.81056 2.83079,2.11927 0.12771,0.33282 0.88706,0.56129 1.86546,0.56129 l 1.65007,0 0,-4.0067 0,-4.0067 -1.58945,-0.48427 c -1.37772,-0.41976 -16.17664,-1.13022 -25.43131,-1.22089 -2.96151,-0.029 -3.07295,-0.0674 -3.07295,-1.05781 l 0,-1.02771 13.24547,-0.23593 c 16.12177,-0.28717 22.04196,-0.69225 24.14613,-1.65217 1.37586,-0.62766 3.27976,-0.71889 15.00233,-0.71889 l 13.42649,0 2.90555,1.79293 c 1.59805,0.98611 2.90555,2.03515 2.90555,2.3312 0,0.42355 2.80044,0.53827 13.13951,0.53827 l 13.13951,0 0,-5.51011 0,-5.51012 3.17891,0 3.17892,0 0,-2.75506 0,-2.75506 11.44409,0 11.44409,0 0,2.3312 c 0,2.30766 0.0128,2.33121 1.27156,2.33121 l 1.27157,0 0,-2.75506 0,-2.75506 2.3312,0 2.3312,0 0,-5.51012 0,-5.51011 9.74867,0 9.74867,0 0,5.48896 0,5.48897 2.43717,0.12711 2.43717,0.12712 0.12533,2.86102 0.12533,2.86102 2.0999,0 2.09991,0 0,5.08627 0,5.08626 4.45048,0 4.45048,0 0,-13.56337 0,-13.56336 16.31843,0 16.31842,0 0,17.58999 0,17.58999 14.623,0 14.62301,0 0,-5.72205 0,-5.72204 34.54419,0 34.5442,0 0,1.69542 0,1.69542 13.29956,0 c 10.94123,0 13.38767,-0.10621 13.79661,-0.59895 0.27339,-0.32943 1.64558,-1.2831 3.04926,-2.11928 l 2.55216,-1.52032 13.56039,0 c 12.41574,0 13.72799,0.0689 15.54629,0.81619 1.70097,0.69908 3.81059,0.88202 14.70159,1.27485 6.99361,0.25226 14.77203,0.45718 17.2854,0.45537 3.76015,-0.003 4.6149,0.1144 4.82466,0.66099 0.14017,0.36535 0.0865,0.82807 -0.11927,1.02827 -0.20578,0.2002 -5.52402,0.48072 -11.81827,0.62338 -6.29425,0.14265 -12.92228,0.47724 -14.72897,0.74352 l -3.28487,0.48414 0,3.73833 c 0,4.47311 0.12736,4.53694 4.07638,2.0429 l 2.68453,-1.69542 13.37869,0 c 12.30778,0 13.50509,0.0645 14.95738,0.80536 2.02154,1.03132 11.61987,1.73777 23.61056,1.73777 10.99578,0 13.77169,0.26848 13.77169,1.33195 0,0.43303 -0.14305,0.81058 -0.31789,0.839 -0.17484,0.0284 -5.94457,0.21051 -12.82162,0.40465 -6.87705,0.19413 -13.60045,0.47464 -14.9409,0.62333 l -2.43716,0.27037 0,1.7251 0,1.72511 32.95474,-0.31153 c 18.1251,-0.17134 40.20266,-0.45589 49.06123,-0.63233 8.85858,-0.17644 16.17559,-0.2684 16.25998,-0.20435 0.27169,0.20612 -0.77668,5.523 -1.59264,8.0772 -2.54368,7.96237 -7.63117,14.62907 -14.00027,18.34605 -3.56912,2.08292 -4.45235,2.33225 -12.11116,3.41868 -3.4968,0.49603 -7.35901,1.04637 -8.58273,1.22296 -1.22367,0.1766 -2.34523,0.44142 -2.49231,0.5885 -0.14707,0.14707 -0.71538,2.12047 -1.26291,4.38533 -0.54754,2.26486 -1.1581,4.28049 -1.35677,4.47919 -0.1987,0.19869 -2.81863,0.30764 -5.82203,0.2421 l -5.46078,-0.11916 -0.70021,-3.08711 c -0.38515,-1.69791 -0.8227,-3.20957 -0.97236,-3.35925 -0.31785,-0.31782 -12.7886,1.45472 -14.03999,1.99558 -0.46624,0.20151 -1.41992,0.45625 -2.11928,0.56608 -8.6967,1.36576 -11.12781,1.53326 -28.39829,1.95655 -10.2573,0.2514 -25.42072,0.65456 -33.69649,0.89591 -37.89507,1.10512 -83.51714,1.34154 -296.12439,1.53454 l -224.704807,0.20397 -1.267367,-3.32012 z"
         id="path5955"
         inkscape:connector-curvature="0" />
      <path
         style="fill-opacity:1;fill:#b3b3b3"
         d="m 47.732296,527.87629 c -1.705482,-4.46785 -2.379002,-6.97192 -3.64904,-13.56671 -2.813296,-14.60829 -5.35351,-20.68604 -11.306743,-27.05267 -1.089917,-1.16561 -2.305288,-2.75449 -2.700826,-3.53087 l -0.719159,-1.41159 2.253737,0.2557 c 2.196551,0.24921 7.163259,0.55944 24.082278,1.50425 4.545847,0.25385 19.804633,1.12911 33.908414,1.94501 44.017303,2.54639 46.346423,2.64842 66.651223,2.91951 17.08279,0.22807 19.81523,0.18042 19.81523,-0.34555 0,-0.41531 -0.83629,-0.75741 -2.61928,-1.07148 -1.4406,-0.25376 -2.72861,-0.63828 -2.86224,-0.85449 -0.13362,-0.21622 -1.86366,-0.60632 -3.84451,-0.86689 -10.77219,-1.41707 -20.84607,-2.93118 -21.08381,-3.16892 -0.11685,-0.11686 -0.0902,-0.53112 0.0593,-0.9206 0.23588,-0.6147 0.73219,-0.67164 3.7611,-0.43149 3.64264,0.28881 9.16745,0.86083 14.93344,1.54616 1.86497,0.22166 5.5843,0.50302 8.26518,0.62524 2.68088,0.12222 5.38944,0.3264 6.01902,0.45374 0.69203,0.13997 1.92851,-0.1152 3.12683,-0.64527 1.8727,-0.82839 2.74978,-0.8768 15.88511,-0.8768 l 13.90296,0 2.61539,1.55799 c 1.43847,0.85688 2.71232,1.81056 2.83079,2.11927 0.12771,0.33282 0.88706,0.56129 1.86546,0.56129 l 1.65007,0 0,-4.0067 0,-4.0067 -1.58945,-0.48427 c -1.37772,-0.41976 -16.17664,-1.13022 -25.43131,-1.22089 -2.96151,-0.029 -3.07295,-0.0674 -3.07295,-1.05781 l 0,-1.02771 13.24547,-0.23593 c 16.12177,-0.28717 22.04196,-0.69225 24.14613,-1.65217 1.37586,-0.62766 3.27976,-0.71889 15.00233,-0.71889 l 13.42649,0 2.90555,1.79293 c 1.59805,0.98611 2.90555,2.03515 2.90555,2.3312 0,0.42355 2.80044,0.53827 13.13951,0.53827 l 13.13951,0 0,-5.51011 0,-5.51012 3.17891,0 3.17892,0 0,-2.75506 0,-2.75506 11.44409,0 11.44409,0 0,2.3312 c 0,2.30766 0.0128,2.33121 1.27156,2.33121 l 1.27157,0 0,-2.75506 0,-2.75506 2.3312,0 2.3312,0 0,-5.51012 0,-5.51011 9.74867,0 9.74867,0 0,5.48896 0,5.48897 2.43717,0.12711 2.43717,0.12712 0.12533,2.86102 0.12533,2.86102 2.0999,0 2.09991,0 0,5.08627 0,5.08626 4.45048,0 4.45048,0 0,-13.56337 0,-13.56336 16.31843,0 16.31842,0 0,17.58999 0,17.58999 14.623,0 14.62301,0 0,-5.72205 0,-5.72204 34.54419,0 34.5442,0 0,1.69542 0,1.69542 13.29956,0 c 10.94123,0 13.38767,-0.10621 13.79661,-0.59895 0.27339,-0.32943 1.64558,-1.2831 3.04926,-2.11928 l 2.55216,-1.52032 13.56039,0 c 12.41574,0 13.72799,0.0689 15.54629,0.81619 1.70097,0.69908 3.81059,0.88202 14.70159,1.27485 6.99361,0.25226 14.77203,0.45718 17.2854,0.45537 3.76015,-0.003 4.6149,0.1144 4.82466,0.66099 0.14017,0.36535 0.0865,0.82807 -0.11927,1.02827 -0.20578,0.2002 -5.52402,0.48072 -11.81827,0.62338 -6.29425,0.14265 -12.92228,0.47724 -14.72897,0.74352 l -3.28487,0.48414 0,3.73833 c 0,4.47311 0.12736,4.53694 4.07638,2.0429 l 2.68453,-1.69542 13.37869,0 c 12.30778,0 13.50509,0.0645 14.95738,0.80536 2.02154,1.03132 11.61987,1.73777 23.61056,1.73777 10.99578,0 13.77169,0.26848 13.77169,1.33195 0,0.43303 -0.14305,0.81058 -0.31789,0.839 -0.17484,0.0284 -5.94457,0.21051 -12.82162,0.40465 -6.87705,0.19413 -13.60045,0.47464 -14.9409,0.62333 l -2.43716,0.27037 0,1.7251 0,1.72511 32.95474,-0.31153 c 18.1251,-0.17134 40.20266,-0.45589 49.06123,-0.63233 8.85858,-0.17644 16.17559,-0.2684 16.25998,-0.20435 0.27169,0.20612 -0.77668,5.523 -1.59264,8.0772 -2.54368,7.96237 -7.63117,14.62907 -14.00027,18.34605 -3.56912,2.08292 -4.45235,2.33225 -12.11116,3.41868 -3.4968,0.49603 -7.35901,1.04637 -8.58273,1.22296 -1.22367,0.1766 -2.34523,0.44142 -2.49231,0.5885 -0.14707,0.14707 -0.71538,2.12047 -1.26291,4.38533 -0.54754,2.26486 -1.1581,4.28049 -1.35677,4.47919 -0.1987,0.19869 -2.81863,0.30764 -5.82203,0.2421 l -5.46078,-0.11916 -0.70021,-3.08711 c -0.38515,-1.69791 -0.8227,-3.20957 -0.97236,-3.35925 -0.31785,-0.31782 -12.7886,1.45472 -14.03999,1.99558 -0.46624,0.20151 -1.41992,0.45625 -2.11928,0.56608 -8.6967,1.36576 -11.12781,1.53326 -28.39829,1.95655 -10.2573,0.2514 -25.42072,0.65456 -33.69649,0.89591 -37.89507,1.10512 -83.51714,1.34154 -296.12439,1.53454 l -224.704807,0.20397 -1.267367,-3.32012 z"
         id="path5953"
         inkscape:connector-curvature="0" />
      <path
         style="fill-opacity:1;fill:#b3b3b3"
         d="m 47.732296,527.87629 c -1.705482,-4.46785 -2.379002,-6.97192 -3.64904,-13.56671 -2.813296,-14.60829 -5.35351,-20.68604 -11.306743,-27.05267 -1.089917,-1.16561 -2.305288,-2.75449 -2.700826,-3.53087 l -0.719159,-1.41159 2.253737,0.2557 c 2.196551,0.24921 7.163259,0.55944 24.082278,1.50425 4.545847,0.25385 19.804633,1.12911 33.908414,1.94501 44.017303,2.54639 46.346423,2.64842 66.651223,2.91951 17.08279,0.22807 19.81523,0.18042 19.81523,-0.34555 0,-0.41531 -0.83629,-0.75741 -2.61928,-1.07148 -1.4406,-0.25376 -2.72861,-0.63828 -2.86224,-0.85449 -0.13362,-0.21622 -1.86366,-0.60632 -3.84451,-0.86689 -10.77219,-1.41707 -20.84607,-2.93118 -21.08381,-3.16892 -0.11685,-0.11686 -0.0902,-0.53112 0.0593,-0.9206 0.23588,-0.6147 0.73219,-0.67164 3.7611,-0.43149 3.64264,0.28881 9.16745,0.86083 14.93344,1.54616 1.86497,0.22166 5.5843,0.50302 8.26518,0.62524 2.68088,0.12222 5.38944,0.3264 6.01902,0.45374 0.69203,0.13997 1.92851,-0.1152 3.12683,-0.64527 1.8727,-0.82839 2.74978,-0.8768 15.88511,-0.8768 l 13.90296,0 2.61539,1.55799 c 1.43847,0.85688 2.71232,1.81056 2.83079,2.11927 0.12771,0.33282 0.88706,0.56129 1.86546,0.56129 l 1.65007,0 0,-4.0067 0,-4.0067 -1.58945,-0.48427 c -1.37772,-0.41976 -16.17664,-1.13022 -25.43131,-1.22089 -2.96151,-0.029 -3.07295,-0.0674 -3.07295,-1.05781 l 0,-1.02771 13.24547,-0.23593 c 16.12177,-0.28717 22.04196,-0.69225 24.14613,-1.65217 1.37586,-0.62766 3.27976,-0.71889 15.00233,-0.71889 l 13.42649,0 2.90555,1.79293 c 1.59805,0.98611 2.90555,2.03515 2.90555,2.3312 0,0.42355 2.80044,0.53827 13.13951,0.53827 l 13.13951,0 0,-5.51011 0,-5.51012 3.17891,0 3.17892,0 0,-2.75506 0,-2.75506 11.44409,0 11.44409,0 0,2.3312 c 0,2.30766 0.0128,2.33121 1.27156,2.33121 l 1.27157,0 0,-2.75506 0,-2.75506 2.3312,0 2.3312,0 0,-5.51012 0,-5.51011 9.74867,0 9.74867,0 0,5.48896 0,5.48897 2.43717,0.12711 2.43717,0.12712 0.12533,2.86102 0.12533,2.86102 2.0999,0 2.09991,0 0,5.08627 0,5.08626 4.45048,0 4.45048,0 0,-13.56337 0,-13.56336 16.31843,0 16.31842,0 0,17.58999 0,17.58999 14.623,0 14.62301,0 0,-5.72205 0,-5.72204 34.54419,0 34.5442,0 0,1.69542 0,1.69542 13.29956,0 c 10.94123,0 13.38767,-0.10621 13.79661,-0.59895 0.27339,-0.32943 1.64558,-1.2831 3.04926,-2.11928 l 2.55216,-1.52032 13.56039,0 c 12.41574,0 13.72799,0.0689 15.54629,0.81619 1.70097,0.69908 3.81059,0.88202 14.70159,1.27485 6.99361,0.25226 14.77203,0.45718 17.2854,0.45537 3.76015,-0.003 4.6149,0.1144 4.82466,0.66099 0.14017,0.36535 0.0865,0.82807 -0.11927,1.02827 -0.20578,0.2002 -5.52402,0.48072 -11.81827,0.62338 -6.29425,0.14265 -12.92228,0.47724 -14.72897,0.74352 l -3.28487,0.48414 0,3.73833 c 0,4.47311 0.12736,4.53694 4.07638,2.0429 l 2.68453,-1.69542 13.37869,0 c 12.30778,0 13.50509,0.0645 14.95738,0.80536 2.02154,1.03132 11.61987,1.73777 23.61056,1.73777 10.99578,0 13.77169,0.26848 13.77169,1.33195 0,0.43303 -0.14305,0.81058 -0.31789,0.839 -0.17484,0.0284 -5.94457,0.21051 -12.82162,0.40465 -6.87705,0.19413 -13.60045,0.47464 -14.9409,0.62333 l -2.43716,0.27037 0,1.7251 0,1.72511 32.95474,-0.31153 c 18.1251,-0.17134 40.20266,-0.45589 49.06123,-0.63233 8.85858,-0.17644 16.17559,-0.2684 16.25998,-0.20435 0.27169,0.20612 -0.77668,5.523 -1.59264,8.0772 -2.54368,7.96237 -7.63117,14.62907 -14.00027,18.34605 -3.56912,2.08292 -4.45235,2.33225 -12.11116,3.41868 -3.4968,0.49603 -7.35901,1.04637 -8.58273,1.22296 -1.22367,0.1766 -2.34523,0.44142 -2.49231,0.5885 -0.14707,0.14707 -0.71538,2.12047 -1.26291,4.38533 -0.54754,2.26486 -1.1581,4.28049 -1.35677,4.47919 -0.1987,0.19869 -2.81863,0.30764 -5.82203,0.2421 l -5.46078,-0.11916 -0.70021,-3.08711 c -0.38515,-1.69791 -0.8227,-3.20957 -0.97236,-3.35925 -0.31785,-0.31782 -12.7886,1.45472 -14.03999,1.99558 -0.46624,0.20151 -1.41992,0.45625 -2.11928,0.56608 -8.6967,1.36576 -11.12781,1.53326 -28.39829,1.95655 -10.2573,0.2514 -25.42072,0.65456 -33.69649,0.89591 -37.89507,1.10512 -83.51714,1.34154 -296.12439,1.53454 l -224.704807,0.20397 -1.267367,-3.32012 z"
         id="path5951"
         inkscape:connector-curvature="0" />
      <path
         style="fill-opacity:1;fill:#b3b3b3"
         d="m 47.732296,527.87629 c -1.705482,-4.46785 -2.379002,-6.97192 -3.64904,-13.56671 -2.813296,-14.60829 -5.35351,-20.68604 -11.306743,-27.05267 -1.089917,-1.16561 -2.305288,-2.75449 -2.700826,-3.53087 l -0.719159,-1.41159 2.253737,0.2557 c 2.196551,0.24921 7.163259,0.55944 24.082278,1.50425 4.545847,0.25385 19.804633,1.12911 33.908414,1.94501 44.017303,2.54639 46.346423,2.64842 66.651223,2.91951 17.08279,0.22807 19.81523,0.18042 19.81523,-0.34555 0,-0.41531 -0.83629,-0.75741 -2.61928,-1.07148 -1.4406,-0.25376 -2.72861,-0.63828 -2.86224,-0.85449 -0.13362,-0.21622 -1.86366,-0.60632 -3.84451,-0.86689 -10.77219,-1.41707 -20.84607,-2.93118 -21.08381,-3.16892 -0.11685,-0.11686 -0.0902,-0.53112 0.0593,-0.9206 0.23588,-0.6147 0.73219,-0.67164 3.7611,-0.43149 3.64264,0.28881 9.16745,0.86083 14.93344,1.54616 1.86497,0.22166 5.5843,0.50302 8.26518,0.62524 2.68088,0.12222 5.38944,0.3264 6.01902,0.45374 0.69203,0.13997 1.92851,-0.1152 3.12683,-0.64527 1.8727,-0.82839 2.74978,-0.8768 15.88511,-0.8768 l 13.90296,0 2.61539,1.55799 c 1.43847,0.85688 2.71232,1.81056 2.83079,2.11927 0.12771,0.33282 0.88706,0.56129 1.86546,0.56129 l 1.65007,0 0,-4.0067 0,-4.0067 -1.58945,-0.48427 c -1.37772,-0.41976 -16.17664,-1.13022 -25.43131,-1.22089 -2.96151,-0.029 -3.07295,-0.0674 -3.07295,-1.05781 l 0,-1.02771 13.24547,-0.23593 c 16.12177,-0.28717 22.04196,-0.69225 24.14613,-1.65217 1.37586,-0.62766 3.27976,-0.71889 15.00233,-0.71889 l 13.42649,0 2.90555,1.79293 c 1.59805,0.98611 2.90555,2.03515 2.90555,2.3312 0,0.42355 2.80044,0.53827 13.13951,0.53827 l 13.13951,0 0,-5.51011 0,-5.51012 3.17891,0 3.17892,0 0,-2.75506 0,-2.75506 11.44409,0 11.44409,0 0,2.3312 c 0,2.30766 0.0128,2.33121 1.27156,2.33121 l 1.27157,0 0,-2.75506 0,-2.75506 2.3312,0 2.3312,0 0,-5.51012 0,-5.51011 9.74867,0 9.74867,0 0,5.48896 0,5.48897 2.43717,0.12711 2.43717,0.12712 0.12533,2.86102 0.12533,2.86102 2.0999,0 2.09991,0 0,5.08627 0,5.08626 4.45048,0 4.45048,0 0,-13.56337 0,-13.56336 16.31843,0 16.31842,0 0,17.58999 0,17.58999 14.623,0 14.62301,0 0,-5.72205 0,-5.72204 34.54419,0 34.5442,0 0,1.69542 0,1.69542 13.29956,0 c 10.94123,0 13.38767,-0.10621 13.79661,-0.59895 0.27339,-0.32943 1.64558,-1.2831 3.04926,-2.11928 l 2.55216,-1.52032 13.56039,0 c 12.41574,0 13.72799,0.0689 15.54629,0.81619 1.70097,0.69908 3.81059,0.88202 14.70159,1.27485 6.99361,0.25226 14.77203,0.45718 17.2854,0.45537 3.76015,-0.003 4.6149,0.1144 4.82466,0.66099 0.14017,0.36535 0.0865,0.82807 -0.11927,1.02827 -0.20578,0.2002 -5.52402,0.48072 -11.81827,0.62338 -6.29425,0.14265 -12.92228,0.47724 -14.72897,0.74352 l -3.28487,0.48414 0,3.73833 c 0,4.47311 0.12736,4.53694 4.07638,2.0429 l 2.68453,-1.69542 13.37869,0 c 12.30778,0 13.50509,0.0645 14.95738,0.80536 2.02154,1.03132 11.61987,1.73777 23.61056,1.73777 10.99578,0 13.77169,0.26848 13.77169,1.33195 0,0.43303 -0.14305,0.81058 -0.31789,0.839 -0.17484,0.0284 -5.94457,0.21051 -12.82162,0.40465 -6.87705,0.19413 -13.60045,0.47464 -14.9409,0.62333 l -2.43716,0.27037 0,1.7251 0,1.72511 32.95474,-0.31153 c 18.1251,-0.17134 40.20266,-0.45589 49.06123,-0.63233 8.85858,-0.17644 16.17559,-0.2684 16.25998,-0.20435 0.27169,0.20612 -0.77668,5.523 -1.59264,8.0772 -2.54368,7.96237 -7.63117,14.62907 -14.00027,18.34605 -3.56912,2.08292 -4.45235,2.33225 -12.11116,3.41868 -3.4968,0.49603 -7.35901,1.04637 -8.58273,1.22296 -1.22367,0.1766 -2.34523,0.44142 -2.49231,0.5885 -0.14707,0.14707 -0.71538,2.12047 -1.26291,4.38533 -0.54754,2.26486 -1.1581,4.28049 -1.35677,4.47919 -0.1987,0.19869 -2.81863,0.30764 -5.82203,0.2421 l -5.46078,-0.11916 -0.70021,-3.08711 c -0.38515,-1.69791 -0.8227,-3.20957 -0.97236,-3.35925 -0.31785,-0.31782 -12.7886,1.45472 -14.03999,1.99558 -0.46624,0.20151 -1.41992,0.45625 -2.11928,0.56608 -8.6967,1.36576 -11.12781,1.53326 -28.39829,1.95655 -10.2573,0.2514 -25.42072,0.65456 -33.69649,0.89591 -37.89507,1.10512 -83.51714,1.34154 -296.12439,1.53454 l -224.704807,0.20397 -1.267367,-3.32012 z"
         id="path5949"
         inkscape:connector-curvature="0" />
      <path
         style="fill-opacity:1;fill:#b3b3b3"
         d="m 47.732296,527.87629 c -1.705482,-4.46785 -2.379002,-6.97192 -3.64904,-13.56671 -2.813296,-14.60829 -5.35351,-20.68604 -11.306743,-27.05267 -1.089917,-1.16561 -2.305288,-2.75449 -2.700826,-3.53087 l -0.719159,-1.41159 2.253737,0.2557 c 2.196551,0.24921 7.163259,0.55944 24.082278,1.50425 4.545847,0.25385 19.804633,1.12911 33.908414,1.94501 44.017303,2.54639 46.346423,2.64842 66.651223,2.91951 17.08279,0.22807 19.81523,0.18042 19.81523,-0.34555 0,-0.41531 -0.83629,-0.75741 -2.61928,-1.07148 -1.4406,-0.25376 -2.72861,-0.63828 -2.86224,-0.85449 -0.13362,-0.21622 -1.86366,-0.60632 -3.84451,-0.86689 -10.77219,-1.41707 -20.84607,-2.93118 -21.08381,-3.16892 -0.11685,-0.11686 -0.0902,-0.53112 0.0593,-0.9206 0.23588,-0.6147 0.73219,-0.67164 3.7611,-0.43149 3.64264,0.28881 9.16745,0.86083 14.93344,1.54616 1.86497,0.22166 5.5843,0.50302 8.26518,0.62524 2.68088,0.12222 5.38944,0.3264 6.01902,0.45374 0.69203,0.13997 1.92851,-0.1152 3.12683,-0.64527 1.8727,-0.82839 2.74978,-0.8768 15.88511,-0.8768 l 13.90296,0 2.61539,1.55799 c 1.43847,0.85688 2.71232,1.81056 2.83079,2.11927 0.12771,0.33282 0.88706,0.56129 1.86546,0.56129 l 1.65007,0 0,-4.0067 0,-4.0067 -1.58945,-0.48427 c -1.37772,-0.41976 -16.17664,-1.13022 -25.43131,-1.22089 -2.96151,-0.029 -3.07295,-0.0674 -3.07295,-1.05781 l 0,-1.02771 13.24547,-0.23593 c 16.12177,-0.28717 22.04196,-0.69225 24.14613,-1.65217 1.37586,-0.62766 3.27976,-0.71889 15.00233,-0.71889 l 13.42649,0 2.90555,1.79293 c 1.59805,0.98611 2.90555,2.03515 2.90555,2.3312 0,0.42355 2.80044,0.53827 13.13951,0.53827 l 13.13951,0 0,-5.51011 0,-5.51012 3.17891,0 3.17892,0 0,-2.75506 0,-2.75506 11.44409,0 11.44409,0 0,2.3312 c 0,2.30766 0.0128,2.33121 1.27156,2.33121 l 1.27157,0 0,-2.75506 0,-2.75506 2.3312,0 2.3312,0 0,-5.51012 0,-5.51011 9.74867,0 9.74867,0 0,5.48896 0,5.48897 2.43717,0.12711 2.43717,0.12712 0.12533,2.86102 0.12533,2.86102 2.0999,0 2.09991,0 0,5.08627 0,5.08626 4.45048,0 4.45048,0 0,-13.56337 0,-13.56336 16.31843,0 16.31842,0 0,17.58999 0,17.58999 14.623,0 14.62301,0 0,-5.72205 0,-5.72204 34.54419,0 34.5442,0 0,1.69542 0,1.69542 13.29956,0 c 10.94123,0 13.38767,-0.10621 13.79661,-0.59895 0.27339,-0.32943 1.64558,-1.2831 3.04926,-2.11928 l 2.55216,-1.52032 13.56039,0 c 12.41574,0 13.72799,0.0689 15.54629,0.81619 1.70097,0.69908 3.81059,0.88202 14.70159,1.27485 6.99361,0.25226 14.77203,0.45718 17.2854,0.45537 3.76015,-0.003 4.6149,0.1144 4.82466,0.66099 0.14017,0.36535 0.0865,0.82807 -0.11927,1.02827 -0.20578,0.2002 -5.52402,0.48072 -11.81827,0.62338 -6.29425,0.14265 -12.92228,0.47724 -14.72897,0.74352 l -3.28487,0.48414 0,3.73833 c 0,4.47311 0.12736,4.53694 4.07638,2.0429 l 2.68453,-1.69542 13.37869,0 c 12.30778,0 13.50509,0.0645 14.95738,0.80536 2.02154,1.03132 11.61987,1.73777 23.61056,1.73777 10.99578,0 13.77169,0.26848 13.77169,1.33195 0,0.43303 -0.14305,0.81058 -0.31789,0.839 -0.17484,0.0284 -5.94457,0.21051 -12.82162,0.40465 -6.87705,0.19413 -13.60045,0.47464 -14.9409,0.62333 l -2.43716,0.27037 0,1.7251 0,1.72511 32.95474,-0.31153 c 18.1251,-0.17134 40.20266,-0.45589 49.06123,-0.63233 8.85858,-0.17644 16.17559,-0.2684 16.25998,-0.20435 0.27169,0.20612 -0.77668,5.523 -1.59264,8.0772 -2.54368,7.96237 -7.63117,14.62907 -14.00027,18.34605 -3.56912,2.08292 -4.45235,2.33225 -12.11116,3.41868 -3.4968,0.49603 -7.35901,1.04637 -8.58273,1.22296 -1.22367,0.1766 -2.34523,0.44142 -2.49231,0.5885 -0.14707,0.14707 -0.71538,2.12047 -1.26291,4.38533 -0.54754,2.26486 -1.1581,4.28049 -1.35677,4.47919 -0.1987,0.19869 -2.81863,0.30764 -5.82203,0.2421 l -5.46078,-0.11916 -0.70021,-3.08711 c -0.38515,-1.69791 -0.8227,-3.20957 -0.97236,-3.35925 -0.31785,-0.31782 -12.7886,1.45472 -14.03999,1.99558 -0.46624,0.20151 -1.41992,0.45625 -2.11928,0.56608 -8.6967,1.36576 -11.12781,1.53326 -28.39829,1.95655 -10.2573,0.2514 -25.42072,0.65456 -33.69649,0.89591 -37.89507,1.10512 -83.51714,1.34154 -296.12439,1.53454 l -224.704807,0.20397 -1.267367,-3.32012 z"
         id="path5947"
         inkscape:connector-curvature="0" />
      <path
         style="fill-opacity:1;fill:#b3b3b3"
         d="m 47.732296,527.87629 c -1.705482,-4.46785 -2.379002,-6.97192 -3.64904,-13.56671 -2.813296,-14.60829 -5.35351,-20.68604 -11.306743,-27.05267 -1.089917,-1.16561 -2.305288,-2.75449 -2.700826,-3.53087 l -0.719159,-1.41159 2.253737,0.2557 c 2.196551,0.24921 7.163259,0.55944 24.082278,1.50425 4.545847,0.25385 19.804633,1.12911 33.908414,1.94501 44.017303,2.54639 46.346423,2.64842 66.651223,2.91951 17.08279,0.22807 19.81523,0.18042 19.81523,-0.34555 0,-0.41531 -0.83629,-0.75741 -2.61928,-1.07148 -1.4406,-0.25376 -2.72861,-0.63828 -2.86224,-0.85449 -0.13362,-0.21622 -1.86366,-0.60632 -3.84451,-0.86689 -10.77219,-1.41707 -20.84607,-2.93118 -21.08381,-3.16892 -0.11685,-0.11686 -0.0902,-0.53112 0.0593,-0.9206 0.23588,-0.6147 0.73219,-0.67164 3.7611,-0.43149 3.64264,0.28881 9.16745,0.86083 14.93344,1.54616 1.86497,0.22166 5.5843,0.50302 8.26518,0.62524 2.68088,0.12222 5.38944,0.3264 6.01902,0.45374 0.69203,0.13997 1.92851,-0.1152 3.12683,-0.64527 1.8727,-0.82839 2.74978,-0.8768 15.88511,-0.8768 l 13.90296,0 2.61539,1.55799 c 1.43847,0.85688 2.71232,1.81056 2.83079,2.11927 0.12771,0.33282 0.88706,0.56129 1.86546,0.56129 l 1.65007,0 0,-4.0067 0,-4.0067 -1.58945,-0.48427 c -1.37772,-0.41976 -16.17664,-1.13022 -25.43131,-1.22089 -2.96151,-0.029 -3.07295,-0.0674 -3.07295,-1.05781 l 0,-1.02771 13.24547,-0.23593 c 16.12177,-0.28717 22.04196,-0.69225 24.14613,-1.65217 1.37586,-0.62766 3.27976,-0.71889 15.00233,-0.71889 l 13.42649,0 2.90555,1.79293 c 1.59805,0.98611 2.90555,2.03515 2.90555,2.3312 0,0.42355 2.80044,0.53827 13.13951,0.53827 l 13.13951,0 0,-5.51011 0,-5.51012 3.17891,0 3.17892,0 0,-2.75506 0,-2.75506 11.44409,0 11.44409,0 0,2.3312 c 0,2.30766 0.0128,2.33121 1.27156,2.33121 l 1.27157,0 0,-2.75506 0,-2.75506 2.3312,0 2.3312,0 0,-5.51012 0,-5.51011 9.74867,0 9.74867,0 0,5.48896 0,5.48897 2.43717,0.12711 2.43717,0.12712 0.12533,2.86102 0.12533,2.86102 2.0999,0 2.09991,0 0,5.08627 0,5.08626 4.45048,0 4.45048,0 0,-13.56337 0,-13.56336 16.31843,0 16.31842,0 0,17.58999 0,17.58999 14.623,0 14.62301,0 0,-5.72205 0,-5.72204 34.54419,0 34.5442,0 0,1.69542 0,1.69542 13.29956,0 c 10.94123,0 13.38767,-0.10621 13.79661,-0.59895 0.27339,-0.32943 1.64558,-1.2831 3.04926,-2.11928 l 2.55216,-1.52032 13.56039,0 c 12.41574,0 13.72799,0.0689 15.54629,0.81619 1.70097,0.69908 3.81059,0.88202 14.70159,1.27485 6.99361,0.25226 14.77203,0.45718 17.2854,0.45537 3.76015,-0.003 4.6149,0.1144 4.82466,0.66099 0.14017,0.36535 0.0865,0.82807 -0.11927,1.02827 -0.20578,0.2002 -5.52402,0.48072 -11.81827,0.62338 -6.29425,0.14265 -12.92228,0.47724 -14.72897,0.74352 l -3.28487,0.48414 0,3.73833 c 0,4.47311 0.12736,4.53694 4.07638,2.0429 l 2.68453,-1.69542 13.37869,0 c 12.30778,0 13.50509,0.0645 14.95738,0.80536 2.02154,1.03132 11.61987,1.73777 23.61056,1.73777 10.99578,0 13.77169,0.26848 13.77169,1.33195 0,0.43303 -0.14305,0.81058 -0.31789,0.839 -0.17484,0.0284 -5.94457,0.21051 -12.82162,0.40465 -6.87705,0.19413 -13.60045,0.47464 -14.9409,0.62333 l -2.43716,0.27037 0,1.7251 0,1.72511 32.95474,-0.31153 c 18.1251,-0.17134 40.20266,-0.45589 49.06123,-0.63233 8.85858,-0.17644 16.17559,-0.2684 16.25998,-0.20435 0.27169,0.20612 -0.77668,5.523 -1.59264,8.0772 -2.54368,7.96237 -7.63117,14.62907 -14.00027,18.34605 -3.56912,2.08292 -4.45235,2.33225 -12.11116,3.41868 -3.4968,0.49603 -7.35901,1.04637 -8.58273,1.22296 -1.22367,0.1766 -2.34523,0.44142 -2.49231,0.5885 -0.14707,0.14707 -0.71538,2.12047 -1.26291,4.38533 -0.54754,2.26486 -1.1581,4.28049 -1.35677,4.47919 -0.1987,0.19869 -2.81863,0.30764 -5.82203,0.2421 l -5.46078,-0.11916 -0.70021,-3.08711 c -0.38515,-1.69791 -0.8227,-3.20957 -0.97236,-3.35925 -0.31785,-0.31782 -12.7886,1.45472 -14.03999,1.99558 -0.46624,0.20151 -1.41992,0.45625 -2.11928,0.56608 -8.6967,1.36576 -11.12781,1.53326 -28.39829,1.95655 -10.2573,0.2514 -25.42072,0.65456 -33.69649,0.89591 -37.89507,1.10512 -83.51714,1.34154 -296.12439,1.53454 l -224.704807,0.20397 -1.267367,-3.32012 z"
         id="path5945"
         inkscape:connector-curvature="0" />
      <path
         style="fill-opacity:1;fill:#b3b3b3"
         d="m 47.732296,527.87629 c -1.705482,-4.46785 -2.379002,-6.97192 -3.64904,-13.56671 -2.813296,-14.60829 -5.35351,-20.68604 -11.306743,-27.05267 -1.089917,-1.16561 -2.305288,-2.75449 -2.700826,-3.53087 l -0.719159,-1.41159 2.253737,0.2557 c 2.196551,0.24921 7.163259,0.55944 24.082278,1.50425 4.545847,0.25385 19.804633,1.12911 33.908414,1.94501 44.017303,2.54639 46.346423,2.64842 66.651223,2.91951 17.08279,0.22807 19.81523,0.18042 19.81523,-0.34555 0,-0.41531 -0.83629,-0.75741 -2.61928,-1.07148 -1.4406,-0.25376 -2.72861,-0.63828 -2.86224,-0.85449 -0.13362,-0.21622 -1.86366,-0.60632 -3.84451,-0.86689 -10.77219,-1.41707 -20.84607,-2.93118 -21.08381,-3.16892 -0.11685,-0.11686 -0.0902,-0.53112 0.0593,-0.9206 0.23588,-0.6147 0.73219,-0.67164 3.7611,-0.43149 3.64264,0.28881 9.16745,0.86083 14.93344,1.54616 1.86497,0.22166 5.5843,0.50302 8.26518,0.62524 2.68088,0.12222 5.38944,0.3264 6.01902,0.45374 0.69203,0.13997 1.92851,-0.1152 3.12683,-0.64527 1.8727,-0.82839 2.74978,-0.8768 15.88511,-0.8768 l 13.90296,0 2.61539,1.55799 c 1.43847,0.85688 2.71232,1.81056 2.83079,2.11927 0.12771,0.33282 0.88706,0.56129 1.86546,0.56129 l 1.65007,0 0,-4.0067 0,-4.0067 -1.58945,-0.48427 c -1.37772,-0.41976 -16.17664,-1.13022 -25.43131,-1.22089 -2.96151,-0.029 -3.07295,-0.0674 -3.07295,-1.05781 l 0,-1.02771 13.24547,-0.23593 c 16.12177,-0.28717 22.04196,-0.69225 24.14613,-1.65217 1.37586,-0.62766 3.27976,-0.71889 15.00233,-0.71889 l 13.42649,0 2.90555,1.79293 c 1.59805,0.98611 2.90555,2.03515 2.90555,2.3312 0,0.42355 2.80044,0.53827 13.13951,0.53827 l 13.13951,0 0,-5.51011 0,-5.51012 3.17891,0 3.17892,0 0,-2.75506 0,-2.75506 11.44409,0 11.44409,0 0,2.3312 c 0,2.30766 0.0128,2.33121 1.27156,2.33121 l 1.27157,0 0,-2.75506 0,-2.75506 2.3312,0 2.3312,0 0,-5.51012 0,-5.51011 9.74867,0 9.74867,0 0,5.48896 0,5.48897 2.43717,0.12711 2.43717,0.12712 0.12533,2.86102 0.12533,2.86102 2.0999,0 2.09991,0 0,5.08627 0,5.08626 4.45048,0 4.45048,0 0,-13.56337 0,-13.56336 16.31843,0 16.31842,0 0,17.58999 0,17.58999 14.623,0 14.62301,0 0,-5.72205 0,-5.72204 34.54419,0 34.5442,0 0,1.69542 0,1.69542 13.29956,0 c 10.94123,0 13.38767,-0.10621 13.79661,-0.59895 0.27339,-0.32943 1.64558,-1.2831 3.04926,-2.11928 l 2.55216,-1.52032 13.56039,0 c 12.41574,0 13.72799,0.0689 15.54629,0.81619 1.70097,0.69908 3.81059,0.88202 14.70159,1.27485 6.99361,0.25226 14.77203,0.45718 17.2854,0.45537 3.76015,-0.003 4.6149,0.1144 4.82466,0.66099 0.14017,0.36535 0.0865,0.82807 -0.11927,1.02827 -0.20578,0.2002 -5.52402,0.48072 -11.81827,0.62338 -6.29425,0.14265 -12.92228,0.47724 -14.72897,0.74352 l -3.28487,0.48414 0,3.73833 c 0,4.47311 0.12736,4.53694 4.07638,2.0429 l 2.68453,-1.69542 13.37869,0 c 12.30778,0 13.50509,0.0645 14.95738,0.80536 2.02154,1.03132 11.61987,1.73777 23.61056,1.73777 10.99578,0 13.77169,0.26848 13.77169,1.33195 0,0.43303 -0.14305,0.81058 -0.31789,0.839 -0.17484,0.0284 -5.94457,0.21051 -12.82162,0.40465 -6.87705,0.19413 -13.60045,0.47464 -14.9409,0.62333 l -2.43716,0.27037 0,1.7251 0,1.72511 32.95474,-0.31153 c 18.1251,-0.17134 40.20266,-0.45589 49.06123,-0.63233 8.85858,-0.17644 16.17559,-0.2684 16.25998,-0.20435 0.27169,0.20612 -0.77668,5.523 -1.59264,8.0772 -2.54368,7.96237 -7.63117,14.62907 -14.00027,18.34605 -3.56912,2.08292 -4.45235,2.33225 -12.11116,3.41868 -3.4968,0.49603 -7.35901,1.04637 -8.58273,1.22296 -1.22367,0.1766 -2.34523,0.44142 -2.49231,0.5885 -0.14707,0.14707 -0.71538,2.12047 -1.26291,4.38533 -0.54754,2.26486 -1.1581,4.28049 -1.35677,4.47919 -0.1987,0.19869 -2.81863,0.30764 -5.82203,0.2421 l -5.46078,-0.11916 -0.70021,-3.08711 c -0.38515,-1.69791 -0.8227,-3.20957 -0.97236,-3.35925 -0.31785,-0.31782 -12.7886,1.45472 -14.03999,1.99558 -0.46624,0.20151 -1.41992,0.45625 -2.11928,0.56608 -8.6967,1.36576 -11.12781,1.53326 -28.39829,1.95655 -10.2573,0.2514 -25.42072,0.65456 -33.69649,0.89591 -37.89507,1.10512 -83.51714,1.34154 -296.12439,1.53454 l -224.704807,0.20397 -1.267367,-3.32012 z"
         id="path5943"
         inkscape:connector-curvature="0" />
    </g>
  </g>
</svg>
