<?xml version="1.0" encoding="UTF-8" standalone="no"?>
<!-- Created with Inkscape (http://www.inkscape.org/) -->

<svg
   xmlns:dc="http://purl.org/dc/elements/1.1/"
   xmlns:cc="http://creativecommons.org/ns#"
   xmlns:rdf="http://www.w3.org/1999/02/22-rdf-syntax-ns#"
   xmlns:svg="http://www.w3.org/2000/svg"
   xmlns="http://www.w3.org/2000/svg"
   xmlns:sodipodi="http://sodipodi.sourceforge.net/DTD/sodipodi-0.dtd"
   xmlns:inkscape="http://www.inkscape.org/namespaces/inkscape"
   width="260"
   height="80"
   viewBox="0 0 260 80.000001"
   id="svg5868"
   version="1.1"
   inkscape:version="0.91 r13725"
   sodipodi:docname="ship.svg"
   inkscape:export-filename="/Users/kyle/Desktop/ship/ship destroyed 08.png"
   inkscape:export-xdpi="90"
   inkscape:export-ydpi="90">
  <defs
     id="defs5870" />
  <sodipodi:namedview
     id="base"
     pagecolor="#ffffff"
     bordercolor="#666666"
     borderopacity="1.0"
     inkscape:pageopacity="0.0"
     inkscape:pageshadow="2"
     inkscape:zoom="5.8397776"
     inkscape:cx="63.38879"
     inkscape:cy="30.977675"
     inkscape:document-units="px"
     inkscape:current-layer="g3346"
     showgrid="false"
     inkscape:window-width="3004"
     inkscape:window-height="1647"
     inkscape:window-x="0"
     inkscape:window-y="0"
     inkscape:window-maximized="0"
     units="px"
     showguides="false"
     inkscape:guide-bbox="true"
     inkscape:snap-object-midpoints="true" />
  <metadata
     id="metadata5873">
    <rdf:RDF>
      <cc:Work
         rdf:about="">
        <dc:format>image/svg+xml</dc:format>
        <dc:type
           rdf:resource="http://purl.org/dc/dcmitype/StillImage" />
        <dc:title />
      </cc:Work>
    </rdf:RDF>
  </metadata>
  <g
     inkscape:label="Ship"
     inkscape:groupmode="layer"
     id="layer1"
     transform="translate(0,-972.36216)"
     sodipodi:insensitive="true"
     style="display:none">
    <g
       id="g3670"
       transform="matrix(0.38010369,0,0,0.38010369,-13.842903,838.6884)"
       style="fill:#999999">
      <path
         style="fill:#999999;fill-opacity:1"
         d="m 106.53915,475.0549 c -1.0389,-2.82883 -2.56697,-8.70273 -5.07222,-19.49763 -2.135009,-9.19955 -4.366873,-14.45015 -8.086315,-19.02357 -3.792575,-4.66335 -5.034057,-6.46435 -5.034057,-7.30285 0,-0.7284 0.114773,-0.80804 0.925926,-0.64248 2.281306,0.46564 78.407056,4.95404 100.589226,5.93078 10.7896,0.4751 45.26763,0.78951 47.81145,0.43601 l 2.0202,-0.28074 -6.39731,-1.95614 c -3.51852,-1.07588 -13.8973,-4.11799 -23.06397,-6.76025 l -16.66667,-4.80412 0.0353,-1.31684 c 0.0508,-1.89575 0.75637,-4.1807 1.36287,-4.41343 0.58745,-0.22543 0.84269,-0.15654 28.42717,7.67234 l 20.06101,5.69361 12.09387,0.011 c 15.0823,0.0137 16.00302,0.11747 18.95151,2.13511 2.07589,1.42052 3.69018,2.23098 4.44375,2.23098 0.17702,0 0.31478,-1.69764 0.31478,-3.87927 0,-3.6997 -0.0351,-3.89471 -0.75758,-4.21269 -0.41666,-0.18337 -9.69697,-2.89926 -20.62289,-6.03529 -10.92593,-3.13603 -20.54714,-5.90544 -21.38047,-6.15425 -1.18458,-0.35367 -1.5406,-0.62977 -1.63178,-1.26545 -0.1517,-1.05763 0.96492,-4.73932 1.49962,-4.9445 0.47686,-0.18299 -0.0758,-0.33262 24.03788,6.50751 25.01103,7.09466 23.31647,6.70393 26.2149,6.04469 1.95949,-0.44567 4.70431,-0.53886 15.872,-0.53886 l 13.50278,0 3.22765,2.18855 3.22766,2.18856 6.51959,0 6.51959,0 0,-5.38721 0,-5.3872 8.92256,0 8.92256,0 0,-28.11448 0,-28.11448 29.79798,0 29.79798,0 0,19.52862 0,19.52862 20.87542,0 20.87542,0 0,13.29966 0,13.29966 21.70603,0 21.70603,0 2.65168,-1.6835 2.65165,-1.6835 16.21926,0 c 9.04034,0 16.47805,-0.13506 16.80394,-0.30515 0.32155,-0.16783 2.40283,-0.78022 4.62505,-1.36085 3.01377,-0.78745 28.84862,-8.04386 46.38727,-13.02909 0.43953,-0.12494 0.72886,0.14849 1.10195,1.04142 0.59846,1.43232 1.33984,4.49914 1.1367,4.70225 -0.0782,0.0782 -10.74804,3.18359 -23.71067,6.90075 -12.96266,3.71716 -23.9297,6.91735 -24.37121,7.11154 -0.7833,0.34452 -0.79869,0.43073 -0.63502,3.55991 0.0923,1.76376 0.32185,3.36092 0.51017,3.54926 0.23212,0.23211 0.81636,0.0896 1.81347,-0.44242 l 1.47104,-0.78486 17.67677,-0.16857 17.67677,-0.16858 18.85522,-5.43879 c 22.96585,-6.62451 32.51522,-9.30229 32.63862,-9.15235 0.27811,0.33798 1.53646,4.55784 1.53646,5.15262 0,0.62888 -1.09798,1.01769 -10.85859,3.84515 -9.00417,2.60835 -30.44962,8.75736 -37.16074,10.65502 -1.60747,0.45454 -1.73663,0.57097 -1.92565,1.73573 -0.11145,0.68669 -0.14549,1.30563 -0.0757,1.37545 0.0698,0.0698 12.07272,-0.0309 26.67313,-0.22383 14.6004,-0.19291 36.58407,-0.44939 48.85259,-0.56996 l 22.3064,-0.21922 0,1.85403 c 0,3.26768 -2.47014,10.51621 -5.10758,14.98793 -1.47717,2.50451 -7.66993,8.68887 -10.16969,10.15587 -2.9432,1.72725 -4.91532,2.27716 -12.76994,3.56081 -3.92589,0.64159 -8.72889,1.46655 -10.67333,1.83325 -5.3003,0.99956 -6.79158,1.22918 -16.49832,2.54035 -4.9074,0.66288 -11.11953,1.64067 -13.80471,2.17285 -4.49303,0.89048 -8.83589,1.34779 -17.67677,1.86136 -6.04751,0.3513 -35.26017,1.14499 -55.55555,1.50941 -10.92593,0.19619 -26.98654,0.51278 -35.69024,0.70356 -9.39734,0.20597 -92.90069,0.43025 -205.58864,0.55217 l -189.76372,0.20532 -1.10151,-2.99932 z"
         id="path3686"
         inkscape:connector-curvature="0" />
    </g>
  </g>
  <g
     style="display:none"
     transform="translate(0,-972.36216)"
     id="g3335"
     inkscape:groupmode="layer"
     inkscape:label="Ship Destroyed 01"
     sodipodi:insensitive="true">
    <g
       style="fill:#999999"
       transform="matrix(0.38010369,0,0,0.38010369,-13.842903,838.6884)"
       id="g3337">
      <path
         style="fill:#999999;fill-opacity:1"
         d="m 143.1875,16.511719 -0.0762,0 0,-7.4218752 0,-7.4238282 -11.32617,0 -11.32618,0 0,10.6875004 0,10.685546 -3.39062,0 -3.39258,0 0,2.048829 0,2.046875 -2.47851,0 -2.47657,0 -1.22851,-0.832032 -1.22657,-0.832031 -5.13281,0 c -4.244878,0 -5.286438,0.03568 -6.031248,0.205078 -1.101703,0.25058 -0.458058,0.399832 -9.964843,-2.296875 C 75.97102,20.778948 76.181256,20.834742 76,20.904297 c -0.203241,0.07799 -0.627974,1.47885 -0.570312,1.880859 0.03466,0.241625 0.168877,0.346038 0.61914,0.480469 0.316752,0.09457 3.973967,1.147827 8.126953,2.339844 4.152983,1.192016 7.68147,2.223269 7.839844,2.292969 0.274617,0.120865 0.287109,0.195292 0.287109,1.601562 0,0.829246 -0.05185,1.474609 -0.11914,1.474609 -0.286435,0 -0.9004,-0.307711 -1.689453,-0.847656 -1.120732,-0.766912 -1.470287,-0.807292 -7.203125,-0.8125 l -4.597657,-0.0039 -7.625,-2.164063 C 60.583397,24.170698 60.486964,24.144782 60.263672,24.230469 c -0.230533,0.08846 -0.498269,0.957153 -0.517578,1.677734 l -0.01367,0.5 6.333984,1.826172 c 3.484285,1.004333 7.430176,2.161367 8.767578,2.570313 l 2.431641,0.742187 -0.767578,0.107422 c -0.966915,0.134367 -14.072661,0.01457 -18.173828,-0.166016 -8.431525,-0.371262 -37.367242,-2.076915 -38.234375,-2.253906 -0.308322,-0.06293 -0.351563,-0.03273 -0.351563,0.244141 0,0.318717 0.472491,1.002834 1.914063,2.77539 1.413773,1.738374 2.260741,3.733686 3.072265,7.230469 0.952255,4.103181 1.532845,6.336861 1.927735,7.412109 l 0.419922,1.140625 72.128906,-0.07813 c 23.826386,-0.02578 29.446346,-0.07523 43.468746,-0.117187 l -6.70508,-8.083985 9.2461,-7.019531 -8.73242,-7.535156 6.70898,-8.691406 z"
         id="path3344"
         transform="matrix(2.6308611,0,0,2.6308611,36.418755,351.67709)"
         inkscape:connector-curvature="0" />
      <path
         style="fill:#999999;fill-opacity:1"
         d="m 143.1875,16.511719 -6.70898,8.691406 8.73242,7.535156 -9.2461,7.019531 6.70508,8.083985 c 11.18592,-0.03347 33.09076,-0.05901 34.67578,-0.09375 3.30831,-0.07252 9.41342,-0.193006 13.56641,-0.267578 7.71435,-0.138518 18.81851,-0.438735 21.11719,-0.572266 3.36045,-0.19521 5.01093,-0.37051 6.71875,-0.708984 1.02064,-0.202284 3.38272,-0.574209 5.24804,-0.826172 3.68957,-0.498381 4.25682,-0.584907 6.27149,-0.964844 0.73909,-0.139384 2.56439,-0.453395 4.05664,-0.697265 2.98557,-0.487921 3.73479,-0.696982 4.85351,-1.353516 0.95017,-0.557612 3.30376,-2.907402 3.86524,-3.859375 1.0025,-1.699717 1.94141,-4.455209 1.94141,-5.697266 l 0,-0.705078 -8.47852,0.08398 c -4.66331,0.04583 -13.01869,0.143471 -18.56836,0.216796 -5.54967,0.07333 -10.11214,0.110516 -10.13867,0.08398 -0.0265,-0.02654 -0.015,-0.260471 0.0273,-0.521485 0.0719,-0.442729 0.12142,-0.487384 0.73242,-0.660156 2.55093,-0.721307 10.70249,-3.059338 14.125,-4.050781 3.71005,-1.074728 4.12696,-1.221898 4.12696,-1.460938 0,-0.226078 -0.47828,-1.830517 -0.58399,-1.958984 -0.0469,-0.05699 -3.67684,0.960515 -12.40625,3.478516 l -7.16601,2.068359 -6.71875,0.06445 -6.71875,0.0625 -0.56055,0.298828 c -0.37901,0.202223 -0.59927,0.256195 -0.6875,0.167969 -0.0716,-0.07159 -0.16023,-0.677245 -0.19531,-1.347656 -0.0622,-1.189413 -0.0555,-1.222563 0.24218,-1.353516 0.16782,-0.07381 4.33652,-1.290219 9.26368,-2.703125 4.92714,-1.412906 8.98199,-2.593323 9.01172,-2.623047 0.0772,-0.0772 -0.20417,-1.242679 -0.43164,-1.787109 -0.14182,-0.339406 -0.25091,-0.443975 -0.41797,-0.396485 -6.66651,1.894905 -16.48727,4.653813 -17.63282,4.953126 -0.84467,0.220699 -1.63559,0.451832 -1.75781,0.515624 -0.12387,0.06465 -2.95045,0.117188 -6.38672,0.117188 l -6.16601,0 -1.00782,0.638672 -1.00781,0.640625 -8.25,0 -8.25195,0 0,-5.054688 0,-5.05664 -7.93359,0 -7.85938,0 z"
         id="path3339"
         transform="matrix(2.6308611,0,0,2.6308611,36.418755,351.67709)"
         inkscape:connector-curvature="0" />
    </g>
  </g>
  <g
     inkscape:label="Ship Destroyed 02"
     inkscape:groupmode="layer"
     id="g3346"
     transform="translate(0,-972.36216)"
     style="display:none"
     sodipodi:insensitive="true">
    <path
       inkscape:connector-curvature="0"
       style="fill:#999999;fill-opacity:1"
       d="m 140.85946,988.76011 -0.0762,0.003 -0.25902,-7.41735 -0.25909,-7.41931 -11.31927,0.39528 -11.31928,0.39528 0.37299,10.68099 0.37292,10.67904 -3.38856,0.11833 -3.39051,0.1184 0.0715,2.04758 0.0714,2.04565 -2.477,0.087 -2.47506,0.086 -1.2568,-0.78867 -1.25486,-0.78871 -5.12969,0.17913 c -4.242291,0.14814 -5.28197,0.22015 -6.020412,0.41544 -1.092289,0.28888 -0.443828,0.41561 -10.038934,-1.94771 -9.250823,-2.2785 -9.038767,-2.23007 -9.217488,-2.15423 -0.200394,0.085 -0.575979,1.49986 -0.504321,1.89961 0.04307,0.24027 0.180849,0.33993 0.635529,0.45857 0.319861,0.0835 4.011607,1.00844 8.203664,2.05479 4.192053,1.04638 7.754381,1.95388 7.915089,2.01798 0.278669,0.1112 0.293752,0.1851 0.342831,1.5905 0.02893,0.8288 -3.57e-4,1.4756 -0.06761,1.4779 -0.28626,0.01 -0.910592,-0.2761 -1.718008,-0.7882 -1.146815,-0.7273 -1.497563,-0.7555 -7.227094,-0.5606 l -4.59499,0.1566 -7.69588,-1.8967 c -10.582428,-2.60801 -10.679708,-2.63055 -10.899872,-2.53712 -0.227306,0.0965 -0.464563,0.97392 -0.458713,1.69482 l 0.0038,0.5001 6.393857,1.604 c 3.517214,0.8821 7.501081,1.9008 8.851939,2.2628 l 2.456062,0.6569 -0.763362,0.1341 c -0.961635,0.168 -14.063578,0.5057 -18.168549,0.4683 -8.439348,-0.077 -37.416963,-0.7715 -38.289745,-0.9181 -0.310331,-0.052 -0.352491,-0.021 -0.342829,0.2562 0.01112,0.3186 0.507202,0.9858 2.009757,2.7069 1.47358,1.688 2.389667,3.6525 3.322734,7.1189 1.094874,4.0674 1.753065,6.2795 2.185239,7.3403 l 0.459473,1.1253 72.082241,-2.5954 c 23.810972,-0.8573 29.425782,-1.1028 43.438172,-1.6341 l -6.98312,-7.8451 8.99549,-7.3379 -8.99008,-7.22582 6.40157,-8.92025 z"
       id="path3350" />
    <path
       inkscape:connector-curvature="0"
       style="fill:#999999;fill-opacity:1"
       d="m 145.76299,989.23313 -7.00822,8.45197 8.46413,7.8353 -9.48545,6.6926 6.41887,8.3131 c 11.18029,0.3564 33.07266,1.0959 34.65794,1.1162 3.30881,0.043 9.41442,0.1357 13.56748,0.206 7.71449,0.1309 18.82236,0.2184 21.1243,0.1652 3.36521,-0.078 5.02081,-0.1954 6.7394,-0.4741 1.02708,-0.1666 3.4007,-0.4558 5.27368,-0.6426 3.70471,-0.3693 4.27464,-0.4359 6.30134,-0.7453 0.7435,-0.1135 2.57865,-0.3636 4.0785,-0.5553 3.00078,-0.3834 3.75684,-0.5662 4.89779,-1.1833 0.96905,-0.5241 3.40322,-2.7903 3.99758,-3.7221 1.06121,-1.6637 2.09571,-4.3848 2.13906,-5.6261 l 0.0246,-0.7046 -8.47628,-0.2119 c -4.66208,-0.1168 -13.01577,-0.311 -18.56462,-0.4314 -5.54884,-0.1207 -10.10984,-0.2424 -10.13543,-0.2699 -0.0256,-0.027 -0.006,-0.2608 0.0455,-0.5202 0.0873,-0.4399 0.13835,-0.4829 0.75501,-0.6341 2.57455,-0.6319 10.80274,-2.6841 14.25777,-3.5554 3.74529,-0.9446 4.16709,-1.0772 4.17543,-1.316 0.008,-0.226 -0.41411,-1.84614 -0.51527,-1.97821 -0.0449,-0.0586 -3.70812,0.83161 -12.52009,3.04341 l -7.23383,1.8171 -6.71689,-0.1706 -6.71682,-0.1725 -0.57064,0.2791 c -0.38584,0.1889 -0.60785,0.2351 -0.69294,0.1439 -0.0691,-0.075 -0.1365,-0.6824 -0.14816,-1.3537 -0.0206,-1.1908 -0.0128,-1.2237 0.28927,-1.3442 0.17029,-0.068 4.3789,-1.1381 9.35237,-2.37819 4.97345,-1.24009 9.06703,-2.27827 9.09778,-2.30694 0.0798,-0.0745 -0.16068,-1.24905 -0.36901,-1.80109 -0.12989,-0.34414 -0.23527,-0.45245 -0.40388,-0.41082 -6.72858,1.66108 -16.63964,4.07557 -17.79494,4.33472 -0.85186,0.19109 -1.65036,0.39449 -1.77473,0.45397 -0.12606,0.0603 -2.95275,0.0142 -6.38692,-0.10577 l -6.16226,-0.21519 -1.02949,0.6031 -1.02956,0.60501 -8.24497,-0.2879 -8.24692,-0.28796 0.1764,-5.0516 0.17648,-5.05356 -7.92876,-0.27688 -7.85459,-0.27428 z"
       id="path3352" />
  </g>
  <g
     style="display:none"
     transform="translate(0,-972.36216)"
     id="g3354"
     inkscape:groupmode="layer"
     inkscape:label="Ship Destroyed 03"
     sodipodi:insensitive="true">
    <path
       inkscape:connector-curvature="0"
       id="path3358"
       d="m 138.45771,988.65908 -0.076,0.005 -0.51773,-7.4038 -0.51786,-7.40574 -11.29858,0.79008 -11.29859,0.79007 0.74553,10.66147 0.74538,10.65951 -3.38236,0.23651 -3.38432,0.23666 0.14292,2.04384 0.14279,2.04192 -2.47248,0.1729 -2.47053,0.1727 -1.28356,-0.7443 -1.28162,-0.7444 -5.12031,0.358 c -4.234536,0.2961 -5.271069,0.4044 -6.002249,0.6253 -1.08154,0.3268 -0.429052,0.4308 -10.100791,-1.59616 -9.324706,-1.95426 -9.11109,-1.91327 -9.287053,-1.83123 -0.197304,0.092 -0.523284,1.51905 -0.43772,1.91606 0.05143,0.23861 0.192603,0.3334 0.651148,0.43613 0.322579,0.072 4.044354,0.8678 8.270375,1.7672 4.226017,0.8994 7.817846,1.682 7.980696,1.7405 0.282381,0.1015 0.300033,0.1748 0.398131,1.5777 0.05784,0.8272 0.05114,1.4746 -0.01599,1.4793 -0.285737,0.02 -0.91967,-0.2441 -1.74447,-0.7278 -1.171498,-0.6868 -1.52302,-0.7027 -7.242255,-0.308 l -4.586458,0.3207 -7.757382,-1.6269 c -10.667002,-2.2372 -10.765008,-2.2563 -10.981779,-2.1552 -0.223798,0.1043 -0.430288,0.9895 -0.399284,1.7097 l 0.02124,0.4998 6.44594,1.3798 c 3.545861,0.7589 7.562848,1.6379 8.925516,1.9525 l 2.477491,0.5707 -0.75821,0.1608 c -0.955191,0.2014 -14.037404,0.9957 -18.141144,1.1021 -8.43688,0.2178 -37.421094,0.5347 -38.298462,0.4187 -0.311966,-0.041 -0.353009,-0.01 -0.333672,0.2681 0.02223,0.3179 0.541292,0.9674 2.103003,2.6351 1.531586,1.6355 2.515683,3.5669 3.569148,6.9985 1.23616,4.0268 1.971151,6.2145 2.440081,7.2596 l 0.49847,1.1086 71.947766,-5.1093 c 23.766534,-1.688 29.369384,-2.1289 43.354694,-3.149 l -7.25266,-7.5966 8.73391,-7.6475 -9.23677,-6.90762 6.08636,-9.13824 z"
       style="fill:#999999;fill-opacity:1" />
    <path
       inkscape:connector-curvature="0"
       id="path3360"
       d="m 148.39539,989.61346 -7.29892,8.20224 8.18553,8.1259 -9.71324,6.3575 6.12484,8.5321 c 11.16104,0.7463 33.01426,2.2494 34.59786,2.325 3.30528,0.159 9.40396,0.4642 13.55203,0.6794 7.70522,0.4 18.80327,0.8751 21.10567,0.9023 3.36588,0.04 5.02457,-0.02 6.75184,-0.2386 1.03226,-0.1306 3.41453,-0.3368 5.29289,-0.4581 3.71535,-0.2398 4.28725,-0.2865 6.32351,-0.525 0.74702,-0.087 2.58977,-0.2734 4.0954,-0.4126 3.01233,-0.2785 3.77431,-0.4348 4.9361,-1.0116 0.98676,-0.49 3.49853,-2.6699 4.12505,-3.5804 1.11862,-1.6256 2.24746,-4.3089 2.3341,-5.548 l 0.0492,-0.7033 -8.46373,-0.5076 c -4.65516,-0.2794 -12.99698,-0.765 -18.53825,-1.079 -5.54124,-0.3143 -10.09522,-0.5951 -10.11983,-0.6235 -0.0246,-0.028 0.003,-0.2609 0.0636,-0.5183 0.10261,-0.4366 0.15512,-0.4777 0.77668,-0.6074 2.59503,-0.5416 10.88983,-2.3054 14.37316,-3.0556 3.77599,-0.8133 4.20215,-0.9311 4.21882,-1.1695 0.0158,-0.2255 -0.34942,-1.8594 -0.44592,-1.995 -0.0428,-0.06 -3.73488,0.7017 -12.61867,2.6047 l -7.29284,1.5635 -6.70685,-0.4049 -6.70671,-0.4068 -0.58003,0.259 c -0.39219,0.1753 -0.61568,0.2137 -0.69754,0.1196 -0.0664,-0.077 -0.1126,-0.6867 -0.10082,-1.358 0.0209,-1.1908 0.0299,-1.2234 0.336,-1.3333 0.17256,-0.062 4.41596,-0.9846 9.42967,-2.0504 5.0137,-1.0657 9.14102,-1.96041 9.17275,-1.988 0.0824,-0.0716 -0.11699,-1.25389 -0.30593,-1.81286 -0.1178,-0.34847 -0.21933,-0.46039 -0.38929,-0.42467 -6.78246,1.42525 -16.77174,3.49243 -17.93538,3.71103 -0.85801,0.1613 -1.66313,0.3367 -1.7895,0.3918 -0.12808,0.056 -2.95144,-0.089 -6.37934,-0.3286 l -6.15099,-0.4302 -1.04991,0.5669 -1.05005,0.5687 -8.2299,-0.5755 -8.23185,-0.5756 0.3526,-5.04237 0.35273,-5.04432 -7.91426,-0.55342 -7.84024,-0.54824 z"
       style="fill:#999999;fill-opacity:1" />
  </g>
  <g
     inkscape:label="Ship Destroyed 04"
     inkscape:groupmode="layer"
     id="g3362"
     transform="translate(0,-972.36216)"
     style="display:none"
     sodipodi:insensitive="true">
    <path
       inkscape:connector-curvature="0"
       style="fill:#999999;fill-opacity:1"
       d="m 135.98295,988.57335 -0.0758,0.008 -0.7758,-7.38122 -0.776,-7.38316 -11.26412,1.18391 -11.26414,1.18391 1.11715,10.62895 1.11694,10.62701 -3.37204,0.35441 -3.374,0.35462 0.21416,2.03762 0.21396,2.0357 -2.46493,0.259 -2.463,0.2589 -1.30876,-0.6991 -1.30682,-0.6992 -5.10469,0.5365 c -4.221624,0.4437 -5.253746,0.5881 -5.976771,0.8344 -1.069475,0.3644 -0.413755,0.4455 -10.150343,-1.2427 -9.387228,-1.62763 -9.172312,-1.59412 -9.345304,-1.50599 -0.193975,0.0988 -0.469952,1.53639 -0.370585,1.93019 0.05973,0.2366 0.204122,0.3265 0.665971,0.4131 0.324906,0.061 4.072177,0.7261 8.327013,1.4775 4.254832,0.7514 7.871785,1.4082 8.036577,1.4609 0.28575,0.092 0.305951,0.1643 0.452949,1.5628 0.08667,0.8247 0.102572,1.472 0.03565,1.479 -0.284865,0.03 -0.927631,-0.2119 -1.768806,-0.6665 -1.194756,-0.6455 -1.546619,-0.6491 -7.248595,-0.055 l -4.572471,0.4806 -7.809434,-1.3552 c -10.738579,-1.8634 -10.837193,-1.8791 -11.050305,-1.7706 -0.220019,0.1121 -0.39549,1.004 -0.339372,1.7226 l 0.03867,0.4987 6.490169,1.1541 c 3.570187,0.6347 7.615401,1.3729 8.988218,1.6397 l 2.495901,0.484 -0.752136,0.1871 c -0.94758,0.2347 -13.994106,1.485 -18.091632,1.7345 -8.424137,0.5122 -37.379635,1.8405 -38.26052,1.7551 -0.313218,-0.03 -0.353086,0 -0.324111,0.2796 0.03331,0.3169 0.574724,0.9479 2.193686,2.5601 1.58773,1.581 2.638634,3.4769 3.811217,6.8696 1.37594,3.9812 2.186835,6.142 2.69195,7.17 l 0.536858,1.0906 71.725627,-7.6171 c 23.693139,-2.5164 29.277189,-3.1526 43.218379,-4.6602 l -7.51336,-7.3388 8.4617,-7.9476 -9.47222,-6.58107 5.76373,-9.34508 z"
       id="path3366" />
    <path
       inkscape:connector-curvature="0"
       style="fill:#999999;fill-opacity:1"
       d="m 151.08394,990.01684 -7.58073,7.94252 7.89695,8.40664 -9.9292,6.0146 5.82334,8.7406 c 11.1282,1.1355 32.91565,3.4003 34.49565,3.5312 3.29771,0.2742 9.38203,0.792 13.52006,1.1519 7.68657,0.6686 18.76128,1.5308 21.06132,1.6383 3.36245,0.1571 5.02221,0.1553 6.75606,0 1.03619,-0.095 3.42421,-0.2175 5.30565,-0.2731 3.72145,-0.11 4.29464,-0.1368 6.33798,-0.304 0.74961,-0.061 2.59774,-0.1829 4.10731,-0.2695 3.02021,-0.1731 3.78718,-0.3027 4.9684,-0.8387 1.00325,-0.4552 3.58957,-2.5461 4.24748,-3.4342 1.17468,-1.5856 2.39647,-4.2279 2.52631,-5.4632 l 0.0737,-0.7011 -8.44086,-0.8027 c -4.64257,-0.4417 -12.96237,-1.2182 -18.4893,-1.7254 -5.5269,-0.5075 -10.0683,-0.947 -10.09191,-0.9762 -0.0236,-0.029 0.0123,-0.2606 0.0817,-0.5158 0.11779,-0.4327 0.17171,-0.472 0.79741,-0.5799 2.61235,-0.4507 10.96366,-1.9239 14.47105,-2.5522 3.80206,-0.681 4.23207,-0.7838 4.25706,-1.0215 0.0236,-0.2248 -0.28432,-1.8705 -0.37602,-2.0093 -0.0407,-0.062 -3.7571,0.5709 -12.70189,2.1627 l -7.34296,1.308 -6.68864,-0.6387 -6.68842,-0.6406 -0.58872,0.2386 c -0.39808,0.1615 -0.62276,0.1921 -0.70129,0.095 -0.0637,-0.079 -0.0886,-0.6903 -0.0534,-1.3608 0.0625,-1.1893 0.0726,-1.2216 0.38233,-1.3207 0.17462,-0.056 4.44763,-0.8299 9.49549,-1.72 5.04784,-0.8901 9.20386,-1.6402 9.23654,-1.6667 0.0848,-0.069 -0.0732,-1.2572 -0.24248,-1.8224 -0.10556,-0.3524 -0.20312,-0.4678 -0.37423,-0.438 -6.82806,1.1876 -16.88341,2.9049 -18.05397,3.0828 -0.86311,0.1312 -1.67386,0.2784 -1.80208,0.3291 -0.12995,0.051 -2.94654,-0.1919 -6.36398,-0.5511 l -6.13223,-0.6445 -1.06906,0.5298 -1.06925,0.5318 -8.20481,-0.8624 -8.20674,-0.8625 0.52835,-5.02701 0.52857,-5.02894 -7.89013,-0.82929 -7.81633,-0.82153 z"
       id="path3368" />
  </g>
  <g
     style="display:none"
     transform="translate(0,-972.36216)"
     id="g3370"
     inkscape:groupmode="layer"
     inkscape:label="Ship Destroyed 05"
     sodipodi:insensitive="true">
    <path
       id="path3374"
       d="m 133.43569,988.50546 -0.0755,0.0106 -1.03292,-7.34965 -1.0332,-7.35158 -11.21594,1.5763 -11.21596,1.5763 1.48741,10.58349 1.48714,10.58155 -3.35762,0.47188 -3.35956,0.47216 0.28514,2.02889 0.28487,2.027 -2.45439,0.3449 -2.45247,0.3447 -1.33235,-0.653 -1.33043,-0.6532 -5.08286,0.7143 c -4.203564,0.5908 -5.230019,0.7711 -5.944007,1.0425 -1.056108,0.4015 -0.397955,0.4597 -10.187529,-0.8877 -9.438313,-1.299 -9.222359,-1.273 -9.39217,-1.1789 -0.190408,0.1055 -0.416047,1.5518 -0.302997,1.9419 0.06795,0.2344 0.215392,0.3192 0.679983,0.3896 0.326835,0.05 4.095039,0.5836 8.373505,1.186 4.278464,0.6025 7.916134,1.1326 8.082667,1.1796 0.288771,0.082 0.311495,0.1534 0.507215,1.5461 0.115402,0.8211 0.153879,1.4674 0.08724,1.4768 -0.283648,0.04 -0.934461,-0.1794 -1.790989,-0.6043 -1.216557,-0.6035 -1.568332,-0.5948 -7.246103,0.1979 l -4.552912,0.6398 -7.851972,-1.0818 c -10.797073,-1.4876 -10.896175,-1.4998 -11.105368,-1.3839 -0.215973,0.1197 -0.36021,1.0172 -0.279046,1.7335 l 0.05605,0.497 6.526492,0.9268 c 3.590162,0.5097 7.658675,1.1063 9.039969,1.3251 l 2.511271,0.3966 -0.745147,0.2133 c -0.938814,0.2675 -13.933758,1.9724 -18.020078,2.3648 -8.401131,0.8058 -37.292635,3.1438 -38.175963,3.0892 -0.314089,-0.019 -0.352734,0.016 -0.314156,0.2908 0.04435,0.3156 0.607456,0.9272 2.281697,2.482 1.641939,1.5246 2.75837,3.3827 4.048643,6.7324 1.514043,3.9308 2.399853,6.0619 2.940539,7.0717 l 0.57459,1.0712 71.416096,-10.1157 c 23.5909,-3.3417 29.14934,-4.1724 43.02942,-6.1656 l -7.7649,-7.0722 8.17917,-8.2381 -9.69612,-6.24646 5.43408,-9.54054 z"
       style="fill:#999999;fill-opacity:1"
       inkscape:connector-curvature="0" />
    <path
       id="path3376"
       d="m 153.82778,990.44523 -7.8533,7.67312 7.59875,8.67715 -10.13305,5.6644 5.51475,8.9385 c 11.08179,1.5231 32.77693,4.5469 34.3514,4.7329 3.28613,0.3891 9.34867,1.1189 13.47162,1.6231 7.65855,0.9364 18.69643,2.1846 20.99132,2.3723 3.35491,0.2743 5.01372,0.3305 6.75203,0.2329 1.03887,-0.058 3.42972,-0.098 5.31195,-0.088 3.72303,0.02 4.2968,0.013 6.34473,-0.083 0.7513,-0.035 2.60254,-0.092 4.11421,-0.126 3.02442,-0.068 3.79545,-0.1704 4.99465,-0.6648 1.01852,-0.42 3.67624,-2.4193 4.36475,-3.2839 1.22929,-1.5437 2.54256,-4.1417 2.71542,-5.3717 l 0.0981,-0.6981 -8.4077,-1.0968 c -4.62433,-0.6035 -12.91196,-1.6698 -18.41782,-2.3695 -5.50582,-0.7001 -10.02913,-1.2979 -10.0517,-1.3279 -0.0226,-0.029 0.0214,-0.26 0.0996,-0.5126 0.13281,-0.4284 0.18807,-0.4658 0.81716,-0.5518 2.62649,-0.3592 11.02412,-1.5401 14.5513,-2.0455 3.82351,-0.548 4.25685,-0.6357 4.29012,-0.8724 0.0315,-0.2239 -0.21887,-1.8792 -0.30567,-2.0212 -0.0385,-0.063 -3.77474,0.4395 -12.76963,1.7181 l -7.38414,1.0509 -6.66227,-0.8717 -6.66199,-0.8736 -0.59668,0.2178 c -0.40348,0.1476 -0.6291,0.1704 -0.70419,0.071 -0.0609,-0.081 -0.0644,-0.6929 -0.006,-1.3617 0.10394,-1.1865 0.11518,-1.2184 0.42819,-1.3066 0.17646,-0.05 4.47388,-0.6742 9.54973,-1.3876 5.07583,-0.7134 9.2555,-1.318 9.28908,-1.3433 0.0872,-0.066 -0.0292,-1.259 -0.17872,-1.8298 -0.0932,-0.3559 -0.18668,-0.4746 -0.35873,-0.4508 -6.86535,0.9486 -16.9745,2.3139 -18.15056,2.4509 -0.86716,0.101 -1.68255,0.2198 -1.81246,0.266 -0.13167,0.047 -2.93805,-0.2946 -6.34088,-0.7729 l -6.106,-0.8581 -1.0869,0.4922 -1.08716,0.4941 -8.16971,-1.1482 -8.17164,-1.1484 0.70348,-5.00549 0.70374,-5.00743 -7.85638,-1.10414 -7.78289,-1.09381 z"
       style="fill:#999999;fill-opacity:1"
       inkscape:connector-curvature="0" />
  </g>
  <g
     inkscape:label="Ship Destroyed 06"
     inkscape:groupmode="layer"
     id="g3378"
     transform="translate(0,-972.36216)"
     style="display:none"
     sodipodi:insensitive="true">
    <path
       inkscape:connector-curvature="0"
       style="fill:#999999;fill-opacity:1"
       d="m 130.81659,988.45793 -0.075,0.0132 -1.28879,-7.30912 -1.28914,-7.31104 -11.1541,1.96677 -11.15411,1.96677 1.85587,10.52513 1.85552,10.5232 -3.33911,0.58878 -3.34103,0.58908 0.35577,2.0177 0.35544,2.0158 -2.44086,0.4304 -2.43894,0.4301 -1.35433,-0.6061 -1.35242,-0.6064 -5.05483,0.8913 c -4.180388,0.7371 -5.199925,0.9531 -5.904007,1.2493 -1.041453,0.4381 -0.381669,0.4733 -10.212302,-0.5316 -9.4779,-0.9689 -9.26117,-0.9505 -9.427594,-0.8505 -0.186608,0.1121 -0.361634,1.5655 -0.235039,1.9513 0.07609,0.232 0.226398,0.3115 0.693166,0.3657 0.328367,0.038 4.112911,0.4403 8.409795,0.8931 4.296882,0.4527 7.950838,0.8556 8.11891,0.8967 0.291439,0.071 0.31666,0.1425 0.560862,1.5275 0.143989,0.8166 0.204999,1.4612 0.138731,1.4729 -0.282083,0.05 -0.940152,-0.1467 -1.810988,-0.5415 -1.236876,-0.5606 -1.588136,-0.5397 -7.234782,0.4507 l -4.527808,0.7983 -7.884943,-0.8071 c -10.842412,-1.1099 -10.941881,-1.1186 -11.146901,-0.9955 -0.211663,0.1272 -0.324492,1.0292 -0.21838,1.7421 l 0.07336,0.4948 6.554862,0.6985 c 3.605763,0.3841 7.692618,0.8384 9.080707,1.0088 l 2.52358,0.3087 -0.737249,0.2391 c -0.928905,0.3002 -13.856435,2.4575 -17.92657,2.9923 -8.367889,1.0986 -37.160199,4.4434 -38.044894,4.4197 -0.314578,-0.01 -0.351953,0.029 -0.303817,0.3015 0.05534,0.3139 0.639447,0.9055 2.366927,2.4009 1.694147,1.4664 2.874745,3.2844 4.281136,6.587 1.650301,3.8756 2.609949,5.9745 3.185546,6.9648 l 0.611623,1.0504 71.019559,-12.6018 c 23.4599,-4.163 28.98597,-5.1872 42.78803,-7.6636 l -8.00699,-6.7969 7.88669,-8.5185 -9.90821,-5.9043 5.0978,-9.72437 z"
       id="path3382" />
    <path
       inkscape:connector-curvature="0"
       style="fill:#999999;fill-opacity:1"
       d="m 156.62602,990.90054 -8.1163,7.39437 7.29129,8.93699 -10.32457,5.3074 5.19944,9.1255 c 11.02189,1.9089 32.59829,5.6881 34.1653,5.9288 3.27056,0.5036 9.30393,1.4446 13.40678,2.0923 7.6212,1.2032 18.60879,2.8357 20.89573,3.1034 3.3433,0.3913 4.99914,0.5053 6.7398,0.4685 1.04026,-0.022 3.43103,0.022 5.31177,0.098 3.72007,0.1498 4.29372,0.1631 6.34375,0.1388 0.75207,-0.01 2.60416,0 4.1161,0.018 3.02493,0.038 3.79908,-0.038 5.0148,-0.4902 1.03257,-0.3841 3.75844,-2.2895 4.4767,-3.1295 1.28242,-1.4998 2.68555,-4.0504 2.90124,-5.2737 l 0.12242,-0.6943 -8.3643,-1.3895 c -4.60045,-0.7645 -12.84582,-2.1194 -18.32391,-3.0109 -5.47803,-0.8918 -9.97772,-1.647 -9.99922,-1.6778 -0.0216,-0.03 0.0305,-0.2591 0.11744,-0.5088 0.14768,-0.4235 0.20421,-0.4589 0.83592,-0.5229 2.63742,-0.2674 11.07115,-1.1545 14.61382,-1.5365 3.84031,-0.4142 4.27644,-0.4867 4.31795,-0.7221 0.0393,-0.2227 -0.15315,-1.8858 -0.23494,-2.0306 -0.0363,-0.064 -3.78777,0.3074 -12.82181,1.2713 l -7.41632,0.7926 -6.62779,-1.1036 -6.62744,-1.1057 -0.60392,0.1969 c -0.40838,0.1334 -0.63466,0.1483 -0.70623,0.046 -0.058,-0.083 -0.0402,-0.6947 0.0417,-1.3611 0.14528,-1.1821 0.15763,-1.2136 0.47353,-1.2909 0.17809,-0.043 4.49468,-0.5176 9.59234,-1.0534 5.09763,-0.5359 9.29586,-0.9942 9.3303,-1.0184 0.0894,-0.063 0.0147,-1.2592 -0.11476,-1.8349 -0.0807,-0.3588 -0.17,-0.4808 -0.34277,-0.463 -6.89428,0.7085 -17.04492,1.7201 -18.22504,1.816 -0.87016,0.071 -1.6892,0.1609 -1.82064,0.2025 -0.13322,0.042 -2.92598,-0.3969 -6.31004,-0.9936 l -6.07234,-1.0707 -1.10341,0.4539 -1.10374,0.4559 -8.12466,-1.4326 -8.12659,-1.4329 0.87774,-4.97792 0.87807,-4.97982 -7.81306,-1.37766 -7.73998,-1.36476 z"
       id="path3384" />
  </g>
  <g
     style="display:none"
     transform="translate(0,-972.36216)"
     id="g3386"
     inkscape:groupmode="layer"
     inkscape:label="Ship Destroyed 07"
     sodipodi:insensitive="true">
    <path
       id="path3390"
       d="m 128.12642,988.43325 -0.0745,0.0158 -1.54309,-7.25969 -1.5435,-7.26159 -11.07867,2.35484 -11.07867,2.35484 2.22205,10.45396 2.22165,10.45203 -3.31653,0.70496 -3.31844,0.7054 0.42598,2.004 0.42557,2.0022 -2.42435,0.5153 -2.42245,0.5149 -1.37466,-0.5585 -1.37275,-0.5588 -5.02065,1.0672 c -4.152116,0.8825 -5.163493,1.134 -5.856811,1.4546 -1.02553,0.4741 -0.364919,0.4863 -10.224634,-0.1749 -9.505939,-0.6375 -9.288698,-0.6267 -9.45153,-0.5209 -0.182583,0.1185 -0.306781,1.5771 -0.166797,1.9583 0.08414,0.2291 0.23713,0.3034 0.705506,0.3412 0.329498,0.027 4.125771,0.2966 8.435839,0.5991 4.310066,0.3025 7.975856,0.5776 8.14526,0.6128 0.293753,0.061 0.32144,0.1314 0.613827,1.5069 0.1724,0.8112 0.255869,1.4532 0.19005,1.4672 -0.280176,0.06 -0.944699,-0.1137 -1.828781,-0.4779 -1.255689,-0.5171 -1.606005,-0.484 -7.214648,0.7029 l -4.497187,0.9559 -7.908307,-0.5314 c -10.874542,-0.7309 -10.974257,-0.7362 -11.174853,-0.6059 -0.207095,0.1345 -0.288378,1.0398 -0.157448,1.7487 l 0.09058,0.4919 6.575247,0.4693 c 3.616972,0.258 7.71719,0.5693 9.110381,0.6912 l 2.532816,0.2205 -0.728454,0.2647 c -0.917863,0.3324 -13.762229,2.9396 -17.81122,3.6161 -8.324453,1.3899 -36.98249,5.7376 -37.867475,5.7447 -0.314683,0 -0.350741,0.041 -0.293108,0.312 0.06626,0.3117 0.67066,0.8826 2.449274,2.3168 1.744292,1.4063 2.987618,3.182 4.508413,6.4336 1.78455,3.8155 2.816865,5.8797 3.426672,6.8493 l 0.647911,1.0285 70.536507,-15.0727 c 23.30031,-4.9793 28.78728,-6.1956 42.4945,-9.1522 l -8.23932,-6.5133 7.5846,-8.7886 -10.10824,-5.55493 4.75533,-9.89636 z"
       style="fill:#999999;fill-opacity:1"
       inkscape:connector-curvature="0" />
    <path
       id="path3392"
       d="m 159.47768,991.38465 -8.36942,7.1066 6.97496,9.18605 -10.50351,4.9438 4.8778,9.3014 c 10.94855,2.2924 32.37992,6.8223 33.93758,7.1176 3.25098,0.6174 9.24784,1.7683 13.32559,2.5588 7.57457,1.4685 18.49849,3.4835 20.77469,3.8308 3.3276,0.5078 4.97846,0.6795 6.71934,0.7034 1.0404,0.014 3.42818,0.1417 5.30514,0.283 3.71256,0.2796 4.2854,0.313 6.33503,0.3602 0.75192,0.017 2.60262,0.09 4.11297,0.1614 3.02177,0.1435 3.79809,0.095 5.02886,-0.3148 1.04534,-0.3479 3.83605,-2.157 4.58319,-2.9715 1.33398,-1.4541 2.82527,-3.9542 3.08352,-5.1691 l 0.14658,-0.6896 -8.31071,-1.6806 c -4.57097,-0.9246 -12.76404,-2.5664 -18.20767,-3.6486 -5.44358,-1.0824 -9.91416,-1.9942 -9.93458,-2.0257 -0.0205,-0.031 0.0395,-0.258 0.13512,-0.5045 0.16238,-0.418 0.22011,-0.4515 0.85366,-0.4934 2.64516,-0.1751 11.1047,-0.7673 14.65855,-1.0255 3.85242,-0.2799 4.29082,-0.3371 4.34052,-0.571 0.047,-0.2211 -0.0872,-1.8899 -0.16394,-2.0376 -0.034,-0.065 -3.79619,0.1751 -12.85836,0.8231 l -7.43946,0.5334 -6.58524,-1.3344 -6.58482,-1.3362 -0.61042,0.1757 c -0.41279,0.1191 -0.63945,0.126 -0.70741,0.021 -0.0551,-0.085 -0.0159,-0.6957 0.0892,-1.3589 0.18644,-1.1763 0.19989,-1.2073 0.51829,-1.2735 0.1795,-0.037 4.51001,-0.3604 9.62326,-0.718 5.11323,-0.3577 9.32489,-0.6692 9.36015,-0.6921 0.0916,-0.059 0.0587,-1.258 -0.0506,-1.8378 -0.0682,-0.3615 -0.15312,-0.4865 -0.32641,-0.4747 -6.9148,0.4674 -17.09456,1.1242 -18.27731,1.1788 -0.8721,0.04 -1.69379,0.1019 -1.8266,0.1389 -0.13462,0.037 -2.91034,-0.4988 -6.27152,-1.2133 l -6.03127,-1.282 -1.11858,0.4152 -1.11898,0.4171 -8.06972,-1.7153 -8.07162,-1.7156 1.05092,-4.94427 1.05134,-4.94614 -7.76022,-1.64948 -7.68764,-1.63406 z"
       style="fill:#999999;fill-opacity:1"
       inkscape:connector-curvature="0" />
  </g>
  <g
     inkscape:label="Ship Destroyed 08"
     inkscape:groupmode="layer"
     id="g3394"
     transform="translate(0,-972.36216)"
     style="display:inline"
     sodipodi:insensitive="true">
    <path
       inkscape:connector-curvature="0"
       style="fill:#999999;fill-opacity:1"
       d="m 125.366,988.43389 -0.0739,0.0184 -1.79551,-7.20141 -1.79599,-7.2033 -10.98973,2.74004 -10.98974,2.74005 2.58554,10.37004 2.58506,10.36809 -3.2899,0.8203 -3.29181,0.8208 0.49566,1.9879 0.49518,1.9861 -2.40488,0.5996 -2.40301,0.5991 -1.3933,-0.5101 -1.39143,-0.5106 -4.98034,1.2418 c -4.118787,1.0269 -5.120772,1.3135 -5.802481,1.6581 -1.008357,0.5096 -0.347724,0.4987 -10.224508,0.182 -9.522397,-0.3053 -9.304909,-0.302 -9.463953,-0.1907 -0.178334,0.1248 -0.251554,1.5868 -0.09835,1.963 0.09208,0.226 0.247573,0.2949 0.716985,0.3164 0.330229,0.015 4.133606,0.1523 8.451607,0.3042 4.317997,0.1519 7.991155,0.2989 8.161687,0.3282 0.295708,0.051 0.325828,0.1201 0.666042,1.4846 0.200602,0.8046 0.306428,1.4434 0.241137,1.4597 -0.277926,0.069 -0.948093,-0.081 -1.844346,-0.4138 -1.272971,-0.4731 -1.621917,-0.4277 -7.185723,0.9542 l -4.461087,1.1123 -7.922036,-0.2552 c -10.893422,-0.3508 -10.993262,-0.3526 -11.189191,-0.2155 -0.202275,0.1417 -0.251912,1.0493 -0.09632,1.7531 l 0.107697,0.4885 6.587621,0.2396 c 3.623773,0.1316 7.732358,0.2996 9.128956,0.3728 l 2.538965,0.1319 -0.718771,0.29 c -0.905704,0.3643 -13.651256,3.4181 -17.674171,4.2355 -8.270874,1.6796 -36.759723,7.0248 -37.643918,7.0628 -0.314405,0.014 -0.349104,0.053 -0.282043,0.322 0.0771,0.3092 0.701055,0.8587 2.528637,2.2299 1.792311,1.3446 3.096851,3.0759 4.730198,6.2724 1.916622,3.7509 3.020347,5.7778 3.663622,6.7255 l 0.683409,1.0053 69.967495,-17.5253 c 23.11235,-5.7893 28.55352,-7.1965 42.14921,-10.6296 l -8.46161,-6.2218 7.27326,-9.0479 -10.29594,-5.19878 4.40705,-10.05629 z"
       id="path3398" />
    <path
       inkscape:connector-curvature="0"
       style="fill:#999999;fill-opacity:1"
       d="m 162.38173,991.8994 -8.61234,6.81019 6.65012,9.42381 -10.66964,4.5743 4.55021,9.466 c 10.86188,2.6731 32.1221,7.9481 33.6685,8.2976 3.22746,0.7305 9.18049,2.09 13.22817,3.0223 7.51871,1.7319 18.36565,4.127 20.62835,4.5536 3.30785,0.6235 4.95171,0.8527 6.69069,0.9374 1.03927,0.051 3.42115,0.2612 5.29203,0.468 3.70055,0.409 4.27188,0.4623 6.31861,0.5811 0.75086,0.043 2.5979,0.1804 4.10483,0.3048 3.01492,0.2488 3.79247,0.2272 5.03678,-0.1392 1.05684,-0.3111 3.90899,-2.0218 4.6841,-2.8096 1.38392,-1.4067 2.96155,-3.8532 3.26204,-5.0584 l 0.17056,-0.6841 -8.24699,-1.9696 c -4.53592,-1.0836 -12.6667,-3.0103 -18.06925,-4.2818 -5.40249,-1.2717 -9.83853,-2.339 -9.85783,-2.3712 -0.0194,-0.032 0.0485,-0.2564 0.15265,-0.4994 0.17686,-0.4122 0.23572,-0.4436 0.87035,-0.4633 2.64966,-0.083 11.12472,-0.3794 14.68541,-0.5134 3.85985,-0.1452 4.29997,-0.1872 4.3578,-0.4191 0.0547,-0.2194 -0.0212,-1.8919 -0.0927,-2.0421 -0.0317,-0.067 -3.79999,0.043 -12.87926,0.3739 l -7.45354,0.2733 -6.53466,-1.5633 -6.53417,-1.5652 -0.61619,0.1543 c -0.41669,0.1046 -0.64345,0.1036 -0.70772,0 -0.0521,-0.087 0.008,-0.6959 0.13653,-1.355 0.22738,-1.169 0.2419,-1.1996 0.56242,-1.2546 0.18069,-0.031 4.51984,-0.2028 9.64246,-0.3818 5.12259,-0.1789 9.34256,-0.3433 9.3786,-0.365 0.0936,-0.056 0.10253,-1.2552 0.0135,-1.8384 -0.0555,-0.3637 -0.13605,-0.4915 -0.30964,-0.4859 -6.9269,0.2259 -17.12339,0.527 -18.30732,0.5403 -0.87297,0.01 -1.69631,0.043 -1.83034,0.075 -0.13584,0.033 -2.89116,-0.6001 -6.22535,-1.4314 l -5.98286,-1.4917 -1.13239,0.3759 -1.13285,0.3778 -8.00494,-1.9959 -8.00683,-1.9963 1.22283,-4.9045 1.22331,-4.90649 -7.69792,-1.91931 -7.62593,-1.90135 z"
       id="path3400" />
  </g>
</svg>
