<?xml version="1.0" encoding="UTF-8" standalone="no"?>
<!-- Created with Inkscape (http://www.inkscape.org/) -->

<svg
   xmlns:dc="http://purl.org/dc/elements/1.1/"
   xmlns:cc="http://creativecommons.org/ns#"
   xmlns:rdf="http://www.w3.org/1999/02/22-rdf-syntax-ns#"
   xmlns:svg="http://www.w3.org/2000/svg"
   xmlns="http://www.w3.org/2000/svg"
   xmlns:sodipodi="http://sodipodi.sourceforge.net/DTD/sodipodi-0.dtd"
   xmlns:inkscape="http://www.inkscape.org/namespaces/inkscape"
   width="210mm"
   height="297mm"
   viewBox="0 0 744.09448819 1052.3622047"
   id="svg5868"
   version="1.1"
   inkscape:version="0.91 r13725"
   sodipodi:docname="ship.svg"
   inkscape:export-filename="/Users/kyle/Desktop/ship.png"
   inkscape:export-xdpi="267.27393"
   inkscape:export-ydpi="267.27393">
  <defs
     id="defs5870" />
  <sodipodi:namedview
     id="base"
     pagecolor="#ffffff"
     bordercolor="#666666"
     borderopacity="1.0"
     inkscape:pageopacity="0.0"
     inkscape:pageshadow="2"
     inkscape:zoom="1.979899"
     inkscape:cx="242.93541"
     inkscape:cy="677.60496"
     inkscape:document-units="px"
     inkscape:current-layer="layer1"
     showgrid="false"
     inkscape:window-width="3004"
     inkscape:window-height="1647"
     inkscape:window-x="0"
     inkscape:window-y="0"
     inkscape:window-maximized="0" />
  <metadata
     id="metadata5873">
    <rdf:RDF>
      <cc:Work
         rdf:about="">
        <dc:format>image/svg+xml</dc:format>
        <dc:type
           rdf:resource="http://purl.org/dc/dcmitype/StillImage" />
        <dc:title />
      </cc:Work>
    </rdf:RDF>
  </metadata>
  <g
     inkscape:label="Layer 1"
     inkscape:groupmode="layer"
     id="layer1">
    <g
       id="g3670"
       transform="translate(-2.1428572,-29.642855)"
       style="fill:#999999">
      <path
         style="fill-opacity:1;fill:#999999"
         d="m 106.53915,475.0549 c -1.0389,-2.82883 -2.56697,-8.70273 -5.07222,-19.49763 -2.135009,-9.19955 -4.366873,-14.45015 -8.086315,-19.02357 -3.792575,-4.66335 -5.034057,-6.46435 -5.034057,-7.30285 0,-0.7284 0.114773,-0.80804 0.925926,-0.64248 2.281306,0.46564 78.407056,4.95404 100.589226,5.93078 10.7896,0.4751 45.26763,0.78951 47.81145,0.43601 l 2.0202,-0.28074 -6.39731,-1.95614 c -3.51852,-1.07588 -13.8973,-4.11799 -23.06397,-6.76025 l -16.66667,-4.80412 0.0353,-1.31684 c 0.0508,-1.89575 0.75637,-4.1807 1.36287,-4.41343 0.58745,-0.22543 0.84269,-0.15654 28.42717,7.67234 l 20.06101,5.69361 12.09387,0.011 c 15.0823,0.0137 16.00302,0.11747 18.95151,2.13511 2.07589,1.42052 3.69018,2.23098 4.44375,2.23098 0.17702,0 0.31478,-1.69764 0.31478,-3.87927 0,-3.6997 -0.0351,-3.89471 -0.75758,-4.21269 -0.41666,-0.18337 -9.69697,-2.89926 -20.62289,-6.03529 -10.92593,-3.13603 -20.54714,-5.90544 -21.38047,-6.15425 -1.18458,-0.35367 -1.5406,-0.62977 -1.63178,-1.26545 -0.1517,-1.05763 0.96492,-4.73932 1.49962,-4.9445 0.47686,-0.18299 -0.0758,-0.33262 24.03788,6.50751 25.01103,7.09466 23.31647,6.70393 26.2149,6.04469 1.95949,-0.44567 4.70431,-0.53886 15.872,-0.53886 l 13.50278,0 3.22765,2.18855 3.22766,2.18856 6.51959,0 6.51959,0 0,-5.38721 0,-5.3872 8.92256,0 8.92256,0 0,-28.11448 0,-28.11448 29.79798,0 29.79798,0 0,19.52862 0,19.52862 20.87542,0 20.87542,0 0,13.29966 0,13.29966 21.70603,0 21.70603,0 2.65168,-1.6835 2.65165,-1.6835 16.21926,0 c 9.04034,0 16.47805,-0.13506 16.80394,-0.30515 0.32155,-0.16783 2.40283,-0.78022 4.62505,-1.36085 3.01377,-0.78745 28.84862,-8.04386 46.38727,-13.02909 0.43953,-0.12494 0.72886,0.14849 1.10195,1.04142 0.59846,1.43232 1.33984,4.49914 1.1367,4.70225 -0.0782,0.0782 -10.74804,3.18359 -23.71067,6.90075 -12.96266,3.71716 -23.9297,6.91735 -24.37121,7.11154 -0.7833,0.34452 -0.79869,0.43073 -0.63502,3.55991 0.0923,1.76376 0.32185,3.36092 0.51017,3.54926 0.23212,0.23211 0.81636,0.0896 1.81347,-0.44242 l 1.47104,-0.78486 17.67677,-0.16857 17.67677,-0.16858 18.85522,-5.43879 c 22.96585,-6.62451 32.51522,-9.30229 32.63862,-9.15235 0.27811,0.33798 1.53646,4.55784 1.53646,5.15262 0,0.62888 -1.09798,1.01769 -10.85859,3.84515 -9.00417,2.60835 -30.44962,8.75736 -37.16074,10.65502 -1.60747,0.45454 -1.73663,0.57097 -1.92565,1.73573 -0.11145,0.68669 -0.14549,1.30563 -0.0757,1.37545 0.0698,0.0698 12.07272,-0.0309 26.67313,-0.22383 14.6004,-0.19291 36.58407,-0.44939 48.85259,-0.56996 l 22.3064,-0.21922 0,1.85403 c 0,3.26768 -2.47014,10.51621 -5.10758,14.98793 -1.47717,2.50451 -7.66993,8.68887 -10.16969,10.15587 -2.9432,1.72725 -4.91532,2.27716 -12.76994,3.56081 -3.92589,0.64159 -8.72889,1.46655 -10.67333,1.83325 -5.3003,0.99956 -6.79158,1.22918 -16.49832,2.54035 -4.9074,0.66288 -11.11953,1.64067 -13.80471,2.17285 -4.49303,0.89048 -8.83589,1.34779 -17.67677,1.86136 -6.04751,0.3513 -35.26017,1.14499 -55.55555,1.50941 -10.92593,0.19619 -26.98654,0.51278 -35.69024,0.70356 -9.39734,0.20597 -92.90069,0.43025 -205.58864,0.55217 l -189.76372,0.20532 -1.10151,-2.99932 z"
         id="path3686"
         inkscape:connector-curvature="0" />
      <path
         style="fill-opacity:1;fill:#999999"
         d="m 106.53915,475.0549 c -1.0389,-2.82883 -2.56697,-8.70273 -5.07222,-19.49763 -2.135009,-9.19955 -4.366873,-14.45015 -8.086315,-19.02357 -3.792575,-4.66335 -5.034057,-6.46435 -5.034057,-7.30285 0,-0.7284 0.114773,-0.80804 0.925926,-0.64248 2.281306,0.46564 78.407056,4.95404 100.589226,5.93078 10.7896,0.4751 45.26763,0.78951 47.81145,0.43601 l 2.0202,-0.28074 -6.39731,-1.95614 c -3.51852,-1.07588 -13.8973,-4.11799 -23.06397,-6.76025 l -16.66667,-4.80412 0.0353,-1.31684 c 0.0508,-1.89575 0.75637,-4.1807 1.36287,-4.41343 0.58745,-0.22543 0.84269,-0.15654 28.42717,7.67234 l 20.06101,5.69361 12.09387,0.011 c 15.0823,0.0137 16.00302,0.11747 18.95151,2.13511 2.07589,1.42052 3.69018,2.23098 4.44375,2.23098 0.17702,0 0.31478,-1.69764 0.31478,-3.87927 0,-3.6997 -0.0351,-3.89471 -0.75758,-4.21269 -0.41666,-0.18337 -9.69697,-2.89926 -20.62289,-6.03529 -10.92593,-3.13603 -20.54714,-5.90544 -21.38047,-6.15425 -1.18458,-0.35367 -1.5406,-0.62977 -1.63178,-1.26545 -0.1517,-1.05763 0.96492,-4.73932 1.49962,-4.9445 0.47686,-0.18299 -0.0758,-0.33262 24.03788,6.50751 25.01103,7.09466 23.31647,6.70393 26.2149,6.04469 1.95949,-0.44567 4.70431,-0.53886 15.872,-0.53886 l 13.50278,0 3.22765,2.18855 3.22766,2.18856 6.51959,0 6.51959,0 0,-5.38721 0,-5.3872 8.92256,0 8.92256,0 0,-28.11448 0,-28.11448 29.79798,0 29.79798,0 0,19.52862 0,19.52862 20.87542,0 20.87542,0 0,13.29966 0,13.29966 21.70603,0 21.70603,0 2.65168,-1.6835 2.65165,-1.6835 16.21926,0 c 9.04034,0 16.47805,-0.13506 16.80394,-0.30515 0.32155,-0.16783 2.40283,-0.78022 4.62505,-1.36085 3.01377,-0.78745 28.84862,-8.04386 46.38727,-13.02909 0.43953,-0.12494 0.72886,0.14849 1.10195,1.04142 0.59846,1.43232 1.33984,4.49914 1.1367,4.70225 -0.0782,0.0782 -10.74804,3.18359 -23.71067,6.90075 -12.96266,3.71716 -23.9297,6.91735 -24.37121,7.11154 -0.7833,0.34452 -0.79869,0.43073 -0.63502,3.55991 0.0923,1.76376 0.32185,3.36092 0.51017,3.54926 0.23212,0.23211 0.81636,0.0896 1.81347,-0.44242 l 1.47104,-0.78486 17.67677,-0.16857 17.67677,-0.16858 18.85522,-5.43879 c 22.96585,-6.62451 32.51522,-9.30229 32.63862,-9.15235 0.27811,0.33798 1.53646,4.55784 1.53646,5.15262 0,0.62888 -1.09798,1.01769 -10.85859,3.84515 -9.00417,2.60835 -30.44962,8.75736 -37.16074,10.65502 -1.60747,0.45454 -1.73663,0.57097 -1.92565,1.73573 -0.11145,0.68669 -0.14549,1.30563 -0.0757,1.37545 0.0698,0.0698 12.07272,-0.0309 26.67313,-0.22383 14.6004,-0.19291 36.58407,-0.44939 48.85259,-0.56996 l 22.3064,-0.21922 0,1.85403 c 0,3.26768 -2.47014,10.51621 -5.10758,14.98793 -1.47717,2.50451 -7.66993,8.68887 -10.16969,10.15587 -2.9432,1.72725 -4.91532,2.27716 -12.76994,3.56081 -3.92589,0.64159 -8.72889,1.46655 -10.67333,1.83325 -5.3003,0.99956 -6.79158,1.22918 -16.49832,2.54035 -4.9074,0.66288 -11.11953,1.64067 -13.80471,2.17285 -4.49303,0.89048 -8.83589,1.34779 -17.67677,1.86136 -6.04751,0.3513 -35.26017,1.14499 -55.55555,1.50941 -10.92593,0.19619 -26.98654,0.51278 -35.69024,0.70356 -9.39734,0.20597 -92.90069,0.43025 -205.58864,0.55217 l -189.76372,0.20532 -1.10151,-2.99932 z"
         id="path3684"
         inkscape:connector-curvature="0" />
      <path
         style="fill-opacity:1;fill:#999999"
         d="m 106.53915,475.0549 c -1.0389,-2.82883 -2.56697,-8.70273 -5.07222,-19.49763 -2.135009,-9.19955 -4.366873,-14.45015 -8.086315,-19.02357 -3.792575,-4.66335 -5.034057,-6.46435 -5.034057,-7.30285 0,-0.7284 0.114773,-0.80804 0.925926,-0.64248 2.281306,0.46564 78.407056,4.95404 100.589226,5.93078 10.7896,0.4751 45.26763,0.78951 47.81145,0.43601 l 2.0202,-0.28074 -6.39731,-1.95614 c -3.51852,-1.07588 -13.8973,-4.11799 -23.06397,-6.76025 l -16.66667,-4.80412 0.0353,-1.31684 c 0.0508,-1.89575 0.75637,-4.1807 1.36287,-4.41343 0.58745,-0.22543 0.84269,-0.15654 28.42717,7.67234 l 20.06101,5.69361 12.09387,0.011 c 15.0823,0.0137 16.00302,0.11747 18.95151,2.13511 2.07589,1.42052 3.69018,2.23098 4.44375,2.23098 0.17702,0 0.31478,-1.69764 0.31478,-3.87927 0,-3.6998 -0.0351,-3.89468 -0.75758,-4.21232 -0.41666,-0.18318 -9.69697,-2.89984 -20.62289,-6.03704 -10.92593,-3.1372 -20.54714,-5.90677 -21.38047,-6.15462 -1.18523,-0.3525 -1.54055,-0.62767 -1.63178,-1.2637 -0.1517,-1.05763 0.96492,-4.73932 1.49962,-4.9445 0.47686,-0.18299 -0.0758,-0.33262 24.03788,6.50751 25.01103,7.09466 23.31647,6.70393 26.2149,6.04469 1.95949,-0.44567 4.70431,-0.53886 15.872,-0.53886 l 13.50278,0 3.22765,2.18855 3.22766,2.18856 6.51959,0 6.51959,0 0,-5.38721 0,-5.3872 8.92256,0 8.92256,0 0,-28.11448 0,-28.11448 29.79798,0 29.79798,0 0,19.52862 0,19.52862 20.87542,0 20.87542,0 0,13.29966 0,13.29966 21.70603,0 21.70603,0 2.65168,-1.6835 2.65165,-1.6835 16.21926,0 c 9.04034,0 16.47805,-0.13506 16.80394,-0.30515 0.32155,-0.16783 2.40283,-0.78022 4.62505,-1.36085 3.01377,-0.78745 28.84862,-8.04386 46.38727,-13.02909 0.43953,-0.12494 0.72886,0.14849 1.10195,1.04142 0.59846,1.43232 1.33984,4.49914 1.1367,4.70225 -0.0782,0.0782 -10.74804,3.18359 -23.71067,6.90075 -12.96266,3.71716 -23.9297,6.91735 -24.37121,7.11154 -0.7833,0.34452 -0.79869,0.43073 -0.63502,3.55991 0.0923,1.76376 0.32185,3.36092 0.51017,3.54926 0.23212,0.23211 0.81636,0.0896 1.81347,-0.44242 l 1.47104,-0.78486 17.67677,-0.16857 17.67677,-0.16858 18.85522,-5.43879 c 22.96585,-6.62451 32.51522,-9.30229 32.63862,-9.15235 0.27811,0.33798 1.53646,4.55784 1.53646,5.15262 0,0.62888 -1.09798,1.01769 -10.85859,3.84515 -9.00417,2.60835 -30.44962,8.75736 -37.16074,10.65502 -1.60747,0.45454 -1.73663,0.57097 -1.92565,1.73573 -0.11145,0.68669 -0.14549,1.30563 -0.0757,1.37545 0.0698,0.0698 12.07272,-0.0309 26.67313,-0.22383 14.6004,-0.19291 36.58407,-0.44939 48.85259,-0.56996 l 22.3064,-0.21922 0,1.85403 c 0,3.26768 -2.47014,10.51621 -5.10758,14.98793 -1.47717,2.50451 -7.66993,8.68887 -10.16969,10.15587 -2.9432,1.72725 -4.91532,2.27716 -12.76994,3.56081 -3.92589,0.64159 -8.72889,1.46655 -10.67333,1.83325 -5.3003,0.99956 -6.79158,1.22918 -16.49832,2.54035 -4.9074,0.66288 -11.11953,1.64067 -13.80471,2.17285 -4.49303,0.89048 -8.83589,1.34779 -17.67677,1.86136 -6.04751,0.3513 -35.26017,1.14499 -55.55555,1.50941 -10.92593,0.19619 -26.98654,0.51278 -35.69024,0.70356 -9.39734,0.20597 -92.90069,0.43025 -205.58864,0.55217 l -189.76372,0.20532 -1.10151,-2.99932 z"
         id="path3682"
         inkscape:connector-curvature="0" />
      <path
         style="fill-opacity:1;fill:#999999"
         d="m 106.53915,475.0549 c -1.0389,-2.82883 -2.56697,-8.70273 -5.07222,-19.49763 -2.135009,-9.19955 -4.366873,-14.45015 -8.086315,-19.02357 -3.792575,-4.66335 -5.034057,-6.46435 -5.034057,-7.30285 0,-0.7284 0.114773,-0.80804 0.925926,-0.64248 2.281306,0.46564 78.407056,4.95404 100.589226,5.93078 10.7896,0.4751 45.26763,0.78951 47.81145,0.43601 l 2.0202,-0.28074 -6.39731,-1.95614 c -3.51852,-1.07588 -13.8973,-4.11799 -23.06397,-6.76025 l -16.66667,-4.80412 0.0353,-1.31684 c 0.0508,-1.89575 0.75637,-4.1807 1.36287,-4.41343 0.58745,-0.22543 0.84269,-0.15654 28.42717,7.67234 l 20.06101,5.69361 12.09387,0.011 c 15.0823,0.0137 16.00302,0.11747 18.95151,2.13511 2.07589,1.42052 3.69018,2.23098 4.44375,2.23098 0.17702,0 0.31478,-1.69764 0.31478,-3.87927 0,-3.6998 -0.0351,-3.89468 -0.75758,-4.21232 -0.41666,-0.18318 -9.69697,-2.89984 -20.62289,-6.03704 -10.92593,-3.1372 -20.54714,-5.90677 -21.38047,-6.15462 -1.18523,-0.3525 -1.54055,-0.62767 -1.63178,-1.2637 -0.1517,-1.05763 0.96492,-4.73932 1.49962,-4.9445 0.47686,-0.18299 -0.0758,-0.33262 24.03788,6.50751 25.01103,7.09466 23.31647,6.70393 26.2149,6.04469 1.95949,-0.44567 4.70431,-0.53886 15.872,-0.53886 l 13.50278,0 3.22765,2.18855 3.22766,2.18856 6.51959,0 6.51959,0 0,-5.38721 0,-5.3872 8.92256,0 8.92256,0 0,-28.11448 0,-28.11448 29.79798,0 29.79798,0 0,19.52862 0,19.52862 20.87542,0 20.87542,0 0,13.29966 0,13.29966 21.70603,0 21.70603,0 2.65168,-1.6835 2.65165,-1.6835 16.21926,0 c 9.04034,0 16.47805,-0.13506 16.80394,-0.30515 0.32155,-0.16783 2.40283,-0.78022 4.62505,-1.36085 3.01377,-0.78745 28.84862,-8.04386 46.38727,-13.02909 0.43953,-0.12494 0.72886,0.14849 1.10195,1.04142 0.59846,1.43232 1.33984,4.49914 1.1367,4.70225 -0.0782,0.0782 -10.74804,3.18359 -23.71067,6.90075 -12.96266,3.71716 -23.9297,6.91735 -24.37121,7.11154 -0.7833,0.34452 -0.79869,0.43073 -0.63502,3.55991 0.0923,1.76376 0.32185,3.36092 0.51017,3.54926 0.23212,0.23211 0.81636,0.0896 1.81347,-0.44242 l 1.47104,-0.78486 17.67677,-0.16857 17.67677,-0.16858 18.85522,-5.43879 c 22.96585,-6.62451 32.51522,-9.30229 32.63862,-9.15235 0.27811,0.33798 1.53646,4.55784 1.53646,5.15262 0,0.62888 -1.09798,1.01769 -10.85859,3.84515 -9.00417,2.60835 -30.44962,8.75736 -37.16074,10.65502 -1.60747,0.45454 -1.73663,0.57097 -1.92565,1.73573 -0.11145,0.68669 -0.14549,1.30563 -0.0757,1.37545 0.0698,0.0698 12.07272,-0.0309 26.67313,-0.22383 14.6004,-0.19291 36.58407,-0.44939 48.85259,-0.56996 l 22.3064,-0.21922 0,1.85403 c 0,3.26768 -2.47014,10.51621 -5.10758,14.98793 -1.47717,2.50451 -7.66993,8.68887 -10.16969,10.15587 -2.9432,1.72725 -4.91532,2.27716 -12.76994,3.56081 -3.92589,0.64159 -8.72889,1.46655 -10.67333,1.83325 -5.3003,0.99956 -6.79158,1.22918 -16.49832,2.54035 -4.9074,0.66288 -11.11953,1.64067 -13.80471,2.17285 -4.49303,0.89048 -8.83589,1.34779 -17.67677,1.86136 -6.04751,0.3513 -35.26017,1.14499 -55.55555,1.50941 -10.92593,0.19619 -26.98654,0.51278 -35.69024,0.70356 -9.39734,0.20597 -92.90069,0.43025 -205.58864,0.55217 l -189.76372,0.20532 -1.10151,-2.99932 z"
         id="path3680"
         inkscape:connector-curvature="0" />
      <path
         style="fill-opacity:1;fill:#999999"
         d="m 106.53915,475.0549 c -1.0389,-2.82883 -2.56697,-8.70273 -5.07222,-19.49763 -2.135009,-9.19955 -4.366873,-14.45015 -8.086315,-19.02357 -3.792575,-4.66335 -5.034057,-6.46435 -5.034057,-7.30285 0,-0.7284 0.114773,-0.80804 0.925926,-0.64248 2.281306,0.46564 78.407056,4.95404 100.589226,5.93078 10.81698,0.4763 45.2737,0.78916 47.81145,0.43411 l 2.0202,-0.28264 -7.40741,-2.253 c -5.95835,-1.81226 -16.91134,-4.99942 -37.87879,-11.02217 -0.72224,-0.20746 -0.83674,-0.42873 -0.80647,-1.5585 0.0508,-1.89565 0.75638,-4.18058 1.36287,-4.41331 0.58745,-0.22543 0.84269,-0.15654 28.42717,7.67234 l 20.06101,5.69361 12.09387,0.011 c 15.0823,0.0137 16.00302,0.11747 18.95151,2.13511 2.07589,1.42052 3.69018,2.23098 4.44375,2.23098 0.17702,0 0.31478,-1.69764 0.31478,-3.87927 0,-3.6998 -0.0351,-3.89468 -0.75758,-4.21232 -0.41666,-0.18318 -9.69697,-2.89984 -20.62289,-6.03704 -10.92593,-3.1372 -20.54714,-5.90677 -21.38047,-6.15462 -1.18523,-0.3525 -1.54055,-0.62767 -1.63178,-1.2637 -0.1517,-1.05763 0.96492,-4.73932 1.49962,-4.9445 0.47582,-0.18259 -0.53022,-0.45534 25.72138,6.9733 11.01852,3.11801 20.56397,5.76326 21.21212,5.87835 0.6618,0.11751 2.13796,-0.0182 3.36701,-0.30956 1.78013,-0.42198 4.72079,-0.51973 15.7578,-0.52378 l 13.56925,-0.005 3.22765,2.18855 3.22766,2.18856 6.51959,0 6.51959,0 0,-5.38721 0,-5.3872 8.92256,0 8.92256,0 0,-28.11448 0,-28.11448 29.79798,0 29.79798,0 0,19.52862 0,19.52862 20.87542,0 20.87542,0 0,13.29966 0,13.29966 21.70603,0 21.70603,0 2.65168,-1.6835 2.65165,-1.6835 16.21926,0 c 9.04034,0 16.47805,-0.13506 16.80394,-0.30515 0.32155,-0.16783 2.40283,-0.78022 4.62505,-1.36085 3.01377,-0.78745 28.84862,-8.04386 46.38727,-13.02909 0.43953,-0.12494 0.72886,0.14849 1.10195,1.04142 0.59846,1.43232 1.33984,4.49914 1.1367,4.70225 -0.0782,0.0782 -10.74804,3.18359 -23.71067,6.90075 -12.96266,3.71716 -23.9297,6.91735 -24.37121,7.11154 -0.7833,0.34452 -0.79869,0.43073 -0.63502,3.55991 0.0923,1.76376 0.32185,3.36092 0.51017,3.54926 0.23212,0.23211 0.81636,0.0896 1.81347,-0.44242 l 1.47104,-0.78486 17.67677,-0.16857 17.67677,-0.16858 18.85522,-5.43879 c 22.96585,-6.62451 32.51522,-9.30229 32.63862,-9.15235 0.27811,0.33798 1.53646,4.55784 1.53646,5.15262 0,0.62888 -1.09798,1.01769 -10.85859,3.84515 -9.00417,2.60835 -30.44962,8.75736 -37.16074,10.65502 -1.60747,0.45454 -1.73663,0.57097 -1.92565,1.73573 -0.11145,0.68669 -0.14549,1.30563 -0.0757,1.37545 0.0698,0.0698 12.07272,-0.0309 26.67313,-0.22383 14.6004,-0.19291 36.58407,-0.44939 48.85259,-0.56996 l 22.3064,-0.21922 0,1.85403 c 0,3.26768 -2.47014,10.51621 -5.10758,14.98793 -1.47717,2.50451 -7.66993,8.68887 -10.16969,10.15587 -2.9432,1.72725 -4.91532,2.27716 -12.76994,3.56081 -3.92589,0.64159 -8.72889,1.46655 -10.67333,1.83325 -5.3003,0.99956 -6.79158,1.22918 -16.49832,2.54035 -4.9074,0.66288 -11.11953,1.64067 -13.80471,2.17285 -4.49303,0.89048 -8.83589,1.34779 -17.67677,1.86136 -6.04751,0.3513 -35.26017,1.14499 -55.55555,1.50941 -10.92593,0.19619 -26.98654,0.51278 -35.69024,0.70356 -9.39734,0.20597 -92.90069,0.43025 -205.58864,0.55217 l -189.76372,0.20532 -1.10151,-2.99932 z"
         id="path3678"
         inkscape:connector-curvature="0" />
      <path
         style="fill-opacity:1;fill:#999999"
         d="m 106.53915,475.0549 c -1.0389,-2.82883 -2.56697,-8.70273 -5.07222,-19.49763 -2.135009,-9.19955 -4.366873,-14.45015 -8.086315,-19.02357 -3.792575,-4.66335 -5.034057,-6.46435 -5.034057,-7.30285 0,-0.7284 0.114773,-0.80804 0.925926,-0.64248 2.281306,0.46564 78.407056,4.95404 100.589226,5.93078 10.81698,0.4763 45.2737,0.78916 47.81145,0.43411 l 2.0202,-0.28264 -7.40741,-2.253 c -5.95835,-1.81226 -16.91134,-4.99942 -37.87879,-11.02217 -0.72224,-0.20746 -0.83674,-0.42873 -0.80647,-1.5585 0.0508,-1.89565 0.75638,-4.18058 1.36287,-4.41331 0.58745,-0.22543 0.84269,-0.15654 28.42717,7.67234 l 20.06101,5.69361 12.09387,0.011 c 15.0823,0.0137 16.00302,0.11747 18.95151,2.13511 2.07589,1.42052 3.69018,2.23098 4.44375,2.23098 0.17702,0 0.31478,-1.69764 0.31478,-3.87927 0,-3.6998 -0.0351,-3.89468 -0.75758,-4.21232 -0.41666,-0.18318 -9.69697,-2.89984 -20.62289,-6.03704 -10.92593,-3.1372 -20.54714,-5.90677 -21.38047,-6.15462 -1.18523,-0.3525 -1.54055,-0.62767 -1.63178,-1.2637 -0.1517,-1.05763 0.96492,-4.73932 1.49962,-4.9445 0.47582,-0.18259 -0.53022,-0.45534 25.72138,6.9733 11.01852,3.11801 20.56397,5.76326 21.21212,5.87835 0.6618,0.11751 2.13796,-0.0182 3.36701,-0.30956 1.78013,-0.42198 4.72079,-0.51973 15.7578,-0.52378 l 13.56925,-0.005 3.22765,2.18855 3.22766,2.18856 6.51959,0 6.51959,0 0,-5.38721 0,-5.3872 8.92256,0 8.92256,0 0,-28.11448 0,-28.11448 29.79798,0 29.79798,0 0,19.52862 0,19.52862 20.87542,0 20.87542,0 0,13.29966 0,13.29966 21.70603,0 21.70603,0 2.65168,-1.6835 2.65165,-1.6835 16.21926,0 c 9.04034,0 16.47805,-0.13506 16.80394,-0.30515 0.32155,-0.16783 2.40283,-0.78022 4.62505,-1.36085 3.01377,-0.78745 28.84862,-8.04386 46.38727,-13.02909 0.43953,-0.12494 0.72886,0.14849 1.10195,1.04142 0.59846,1.43232 1.33984,4.49914 1.1367,4.70225 -0.0782,0.0782 -10.74804,3.18359 -23.71067,6.90075 -12.96266,3.71716 -23.9297,6.91735 -24.37121,7.11154 -0.7833,0.34452 -0.79869,0.43073 -0.63502,3.55991 0.0923,1.76376 0.32185,3.36092 0.51017,3.54926 0.23212,0.23211 0.81636,0.0896 1.81347,-0.44242 l 1.47104,-0.78486 17.67677,-0.16857 17.67677,-0.16858 18.85522,-5.43879 c 22.96585,-6.62451 32.51522,-9.30229 32.63862,-9.15235 0.27811,0.33798 1.53646,4.55784 1.53646,5.15262 0,0.62888 -1.09798,1.01769 -10.85859,3.84515 -9.00417,2.60835 -30.44962,8.75736 -37.16074,10.65502 -1.60747,0.45454 -1.73663,0.57097 -1.92565,1.73573 -0.11145,0.68669 -0.14549,1.30563 -0.0757,1.37545 0.0698,0.0698 12.07272,-0.0309 26.67313,-0.22383 14.6004,-0.19291 36.58407,-0.44939 48.85259,-0.56996 l 22.3064,-0.21922 0,1.85403 c 0,3.26768 -2.47014,10.51621 -5.10758,14.98793 -1.47717,2.50451 -7.66993,8.68887 -10.16969,10.15587 -2.9432,1.72725 -4.91532,2.27716 -12.76994,3.56081 -3.92589,0.64159 -8.72889,1.46655 -10.67333,1.83325 -5.3003,0.99956 -6.79158,1.22918 -16.49832,2.54035 -4.9074,0.66288 -11.11953,1.64067 -13.80471,2.17285 -4.49303,0.89048 -8.83589,1.34779 -17.67677,1.86136 -6.04751,0.3513 -35.26017,1.14499 -55.55555,1.50941 -10.92593,0.19619 -26.98654,0.51278 -35.69024,0.70356 -9.39734,0.20597 -92.90069,0.43025 -205.58864,0.55217 l -189.76372,0.20532 -1.10151,-2.99932 z"
         id="path3676"
         inkscape:connector-curvature="0" />
      <path
         style="fill-opacity:1;fill:#999999"
         d="m 106.53915,475.0549 c -1.0389,-2.82883 -2.56697,-8.70273 -5.07222,-19.49763 -2.135009,-9.19955 -4.366873,-14.45015 -8.086315,-19.02357 -3.792575,-4.66335 -5.034057,-6.46435 -5.034057,-7.30285 0,-0.7284 0.114773,-0.80804 0.925926,-0.64248 2.281306,0.46564 78.407056,4.95404 100.589226,5.93078 10.81698,0.4763 45.2737,0.78916 47.81145,0.43411 l 2.0202,-0.28264 -7.40741,-2.253 c -5.95835,-1.81226 -16.91134,-4.99942 -37.87879,-11.02217 -0.72224,-0.20746 -0.83674,-0.42873 -0.80647,-1.5585 0.0508,-1.89565 0.75638,-4.18058 1.36287,-4.41331 0.58745,-0.22543 0.84269,-0.15654 28.42717,7.67234 l 20.06101,5.69361 12.09387,0.011 c 15.0823,0.0137 16.00302,0.11747 18.95151,2.13511 2.07589,1.42052 3.69018,2.23098 4.44375,2.23098 0.17702,0 0.31478,-1.69764 0.31478,-3.87927 0,-3.6998 -0.0351,-3.89468 -0.75758,-4.21232 -0.41666,-0.18318 -9.69697,-2.89984 -20.62289,-6.03704 -10.92593,-3.1372 -20.54714,-5.90677 -21.38047,-6.15462 -1.18523,-0.3525 -1.54055,-0.62767 -1.63178,-1.2637 -0.1517,-1.05763 0.96492,-4.73932 1.49962,-4.9445 0.47582,-0.18259 -0.53022,-0.45534 25.72138,6.9733 11.01852,3.11801 20.56397,5.76326 21.21212,5.87835 0.6618,0.11751 2.13796,-0.0182 3.36701,-0.30956 1.78013,-0.42198 4.72079,-0.51973 15.7578,-0.52378 l 13.56925,-0.005 3.22765,2.18855 3.22766,2.18856 6.51959,0 6.51959,0 0,-5.38721 0,-5.3872 8.92256,0 8.92256,0 0,-28.11448 0,-28.11448 29.79798,0 29.79798,0 0,19.52862 0,19.52862 20.87542,0 20.87542,0 0,13.29966 0,13.29966 21.70603,0 21.70603,0 2.65168,-1.6835 2.65165,-1.6835 16.21926,0 c 9.04034,0 16.47805,-0.13506 16.80394,-0.30515 0.32155,-0.16783 2.40283,-0.78022 4.62505,-1.36085 3.01377,-0.78745 28.84862,-8.04386 46.38727,-13.02909 0.43953,-0.12494 0.72886,0.14849 1.10195,1.04142 0.59846,1.43232 1.33984,4.49914 1.1367,4.70225 -0.0782,0.0782 -10.74804,3.18359 -23.71067,6.90075 -12.96266,3.71716 -23.9297,6.91735 -24.37121,7.11154 -0.7833,0.34452 -0.79869,0.43073 -0.63502,3.55991 0.0923,1.76376 0.32185,3.36092 0.51017,3.54926 0.23212,0.23211 0.81636,0.0896 1.81347,-0.44242 l 1.47104,-0.78486 17.67677,-0.16857 17.67677,-0.16858 18.85522,-5.43879 c 22.96585,-6.62451 32.51522,-9.30229 32.63862,-9.15235 0.27811,0.33798 1.53646,4.55784 1.53646,5.15262 0,0.62888 -1.09798,1.01769 -10.85859,3.84515 -9.00417,2.60835 -30.44962,8.75736 -37.16074,10.65502 -1.60747,0.45454 -1.73663,0.57097 -1.92565,1.73573 -0.11145,0.68669 -0.14549,1.30563 -0.0757,1.37545 0.0698,0.0698 12.07272,-0.0309 26.67313,-0.22383 14.6004,-0.19291 36.58407,-0.44939 48.85259,-0.56996 l 22.3064,-0.21922 0,1.85403 c 0,3.26768 -2.47014,10.51621 -5.10758,14.98793 -1.47717,2.50451 -7.66993,8.68887 -10.16969,10.15587 -2.9432,1.72725 -4.91532,2.27716 -12.76994,3.56081 -3.92589,0.64159 -8.72889,1.46655 -10.67333,1.83325 -5.3003,0.99956 -6.79158,1.22918 -16.49832,2.54035 -4.9074,0.66288 -11.11953,1.64067 -13.80471,2.17285 -4.49303,0.89048 -8.83589,1.34779 -17.67677,1.86136 -6.04751,0.3513 -35.26017,1.14499 -55.55555,1.50941 -10.92593,0.19619 -26.98654,0.51278 -35.69024,0.70356 -9.39734,0.20597 -92.90069,0.43025 -205.58864,0.55217 l -189.76372,0.20532 -1.10151,-2.99932 z"
         id="path3674"
         inkscape:connector-curvature="0" />
      <path
         style="fill-opacity:1;fill:#999999"
         d="m 106.53915,475.0549 c -1.0389,-2.82883 -2.56697,-8.70273 -5.07222,-19.49763 -2.135009,-9.19955 -4.366873,-14.45015 -8.086315,-19.02357 -3.792575,-4.66335 -5.034057,-6.46435 -5.034057,-7.30285 0,-0.7284 0.114773,-0.80804 0.925926,-0.64248 2.281306,0.46564 78.407056,4.95404 100.589226,5.93078 10.81698,0.4763 45.2737,0.78916 47.81145,0.43411 l 2.0202,-0.28264 -7.40741,-2.25268 c -4.07407,-1.23897 -13.54377,-4.00824 -21.04377,-6.15394 -7.5,-2.14569 -14.60141,-4.21601 -15.78091,-4.6007 l -2.14455,-0.69946 0.20118,-1.39015 c 0.33518,-2.31608 0.90257,-3.94165 1.44898,-4.15133 0.58391,-0.22407 0.85108,-0.15194 28.42385,7.67362 l 20.06101,5.69361 12.09387,0.011 c 15.0823,0.0137 16.00302,0.11747 18.95151,2.13511 2.07589,1.42052 3.69018,2.23098 4.44375,2.23098 0.17702,0 0.31478,-1.69764 0.31478,-3.87927 0,-3.6998 -0.0351,-3.89468 -0.75758,-4.21232 -0.41666,-0.18318 -9.69697,-2.89984 -20.62289,-6.03704 -10.92593,-3.1372 -20.54714,-5.90677 -21.38047,-6.15462 -1.18523,-0.3525 -1.54055,-0.62767 -1.63178,-1.2637 -0.1517,-1.05763 0.96492,-4.73932 1.49962,-4.9445 0.47582,-0.18259 -0.53022,-0.45534 25.72138,6.9733 11.01852,3.11801 20.56397,5.76326 21.21212,5.87835 0.6618,0.11751 2.13796,-0.0182 3.36701,-0.30956 1.78013,-0.42198 4.72079,-0.51973 15.7578,-0.52378 l 13.56925,-0.005 3.22765,2.18855 3.22766,2.18856 6.51959,0 6.51959,0 0,-5.38721 0,-5.3872 8.92256,0 8.92256,0 0,-28.11448 0,-28.11448 29.79798,0 29.79798,0 0,19.52862 0,19.52862 20.87542,0 20.87542,0 0,13.29966 0,13.29966 21.70603,0 21.70603,0 2.65168,-1.6835 2.65165,-1.6835 16.21926,0 c 9.06714,0 16.47707,-0.13485 16.80394,-0.30581 0.32155,-0.1682 2.70586,-0.86396 5.29845,-1.54614 4.08744,-1.07552 20.54239,-5.70427 40.1805,-11.30273 3.21041,-0.91522 5.97145,-1.581 6.13566,-1.47951 0.6463,0.39943 2.02879,5.87998 1.48323,5.87998 -0.39414,0 -47.17926,13.48544 -47.92875,13.81508 -0.7833,0.34452 -0.79869,0.43073 -0.63502,3.55991 0.0923,1.76376 0.32185,3.36092 0.51017,3.54926 0.23212,0.23211 0.81636,0.0896 1.81347,-0.44242 l 1.47104,-0.78486 17.67677,-0.16991 17.67677,-0.16992 14.30976,-4.14391 c 12.68802,-3.67428 26.68219,-7.66213 34.45768,-9.81923 1.45175,-0.40274 2.68007,-0.68267 2.72963,-0.62205 0.27646,0.33808 1.53323,4.55894 1.53323,5.14935 0,0.62888 -1.09798,1.01769 -10.85859,3.84515 -9.00417,2.60835 -30.44962,8.75736 -37.16074,10.65502 -1.60747,0.45454 -1.73663,0.57097 -1.92565,1.73573 -0.11145,0.68669 -0.14549,1.30563 -0.0757,1.37545 0.0698,0.0698 12.07272,-0.0309 26.67313,-0.22383 14.6004,-0.19291 36.58407,-0.44939 48.85259,-0.56996 l 22.3064,-0.21922 0,1.85403 c 0,3.26768 -2.47014,10.51621 -5.10758,14.98793 -1.47717,2.50451 -7.66993,8.68887 -10.16969,10.15587 -2.9432,1.72725 -4.91532,2.27716 -12.76994,3.56081 -3.92589,0.64159 -8.72889,1.46655 -10.67333,1.83325 -5.3003,0.99956 -6.79158,1.22918 -16.49832,2.54035 -4.9074,0.66288 -11.11953,1.64067 -13.80471,2.17285 -4.49303,0.89048 -8.83589,1.34779 -17.67677,1.86136 -6.04751,0.3513 -35.26017,1.14499 -55.55555,1.50941 -10.92593,0.19619 -26.98654,0.51278 -35.69024,0.70356 -9.39734,0.20597 -92.90069,0.43025 -205.58864,0.55217 l -189.76372,0.20532 -1.10151,-2.99932 z"
         id="path3672"
         inkscape:connector-curvature="0" />
    </g>
  </g>
</svg>
