<?xml version="1.0" encoding="UTF-8" standalone="no"?>
<!-- Created with Inkscape (http://www.inkscape.org/) -->

<svg
   xmlns:dc="http://purl.org/dc/elements/1.1/"
   xmlns:cc="http://creativecommons.org/ns#"
   xmlns:rdf="http://www.w3.org/1999/02/22-rdf-syntax-ns#"
   xmlns:svg="http://www.w3.org/2000/svg"
   xmlns="http://www.w3.org/2000/svg"
   xmlns:sodipodi="http://sodipodi.sourceforge.net/DTD/sodipodi-0.dtd"
   xmlns:inkscape="http://www.inkscape.org/namespaces/inkscape"
   width="200"
   height="64"
   viewBox="0 0 200 64"
   id="svg4828"
   version="1.1"
   inkscape:version="0.91 r13725"
   sodipodi:docname="sub destruction.svg"
   inkscape:export-filename="/Users/kyle/Development/workspace/BaconGameJam9/art/sub destruction.png"
   inkscape:export-xdpi="90"
   inkscape:export-ydpi="90">
  <defs
     id="defs4830" />
  <sodipodi:namedview
     id="base"
     pagecolor="#ffffff"
     bordercolor="#666666"
     borderopacity="1.0"
     inkscape:pageopacity="0.0"
     inkscape:pageshadow="2"
     inkscape:zoom="7.9195959"
     inkscape:cx="103.82936"
     inkscape:cy="61.645084"
     inkscape:document-units="px"
     inkscape:current-layer="g3379"
     showgrid="false"
     inkscape:snap-object-midpoints="true"
     inkscape:window-width="3004"
     inkscape:window-height="1647"
     inkscape:window-x="4"
     inkscape:window-y="0"
     inkscape:window-maximized="1"
     units="px"
     showguides="true"
     inkscape:guide-bbox="true"
     inkscape:snap-center="true">
    <sodipodi:guide
       position="100.0051,23.612316"
       orientation="1,0"
       id="guide3334" />
    <sodipodi:guide
       position="100.0051,46.892307"
       orientation="0,1"
       id="guide3336" />
  </sodipodi:namedview>
  <metadata
     id="metadata4833">
    <rdf:RDF>
      <cc:Work
         rdf:about="">
        <dc:format>image/svg+xml</dc:format>
        <dc:type
           rdf:resource="http://purl.org/dc/dcmitype/StillImage" />
        <dc:title></dc:title>
      </cc:Work>
    </rdf:RDF>
  </metadata>
  <g
     inkscape:label="Undamaged"
     inkscape:groupmode="layer"
     id="layer1"
     transform="translate(0,-988.3622)"
     style="display:none"
     sodipodi:insensitive="true">
    <path
       style="fill:#555555;fill-opacity:1"
       d="m 182.46689,1020.8108 c -0.24045,-0.4364 -3.63866,-6.7958 -3.69746,-6.9195 -0.003,0 -0.48675,0.089 -1.07304,0.2142 -4.11368,0.8844 -9.41001,1.5725 -14.82676,1.9263 -8.37172,0.5468 -9.54353,0.5563 -74.008748,0.6066 -66.378172,0.052 -63.351258,0.077 -66.859113,-0.5488 -3.493704,-0.6228 -6.321373,-1.7346 -8.368911,-3.2906 -2.132932,-1.621 -3.186474,-3.4155 -3.190199,-5.4341 -0.0035,-1.6055 0.650178,-3.0369 2.000821,-4.3854 2.151957,-2.1482 5.302591,-3.58067 9.535348,-4.33527 10.48489,-1.37991 22.10734,-0.52261 30.973572,-0.50941 15.192932,-0.023 18.702371,-0.052 19.018462,-0.1567 0.853774,-0.284 1.26913,-0.8139 1.491943,-1.9028 0.06545,-0.3197 0.202987,-0.8866 0.305647,-1.2596 0.102694,-0.3732 0.291687,-1.1145 0.420073,-1.6475 0.128455,-0.533 0.327508,-1.2177 0.442474,-1.5216 0.274334,-0.7252 0.925922,-1.4421 1.576693,-1.7349 1.350834,-0.3329 2.72158,-0.3032 3.957535,-0.3775 0.256041,-0.017 0.769531,0 0.769531,0 l 1.065987,0 0.678341,0 c 1.200256,-0.03 1.210021,0 1.783126,0 l 0.426409,0 c 8.314536,0 0,0 8.314536,0 2.502684,0.1009 2.557182,0.085 3.188318,0.1479 0.79176,0.08 1.64116,0.3046 2.17349,0.5748 0.91368,0.4637 1.784355,1.229 4.757275,4.1814 l 3.05449,3.0335 23.30422,0.037 c 16.08678,0.2914 33.13937,-0.084 47.96702,3.21208 0.55965,0.1271 1.02907,0.2033 1.04319,0.1671 0.0139,-0.035 0.91443,-1.72187 2.00071,-3.74708 l 1.97505,-3.6826 3.40187,-0.024 3.40186,-0.024 0,5.56281 0,5.56277 0.0969,5.7475 0,5.5677 0,5.5678 -3.38341,0 -3.38341,0 -0.33381,-0.6057 z"
       id="path5602"
       inkscape:connector-curvature="0"
       sodipodi:nodetypes="ccsssssssccssssscccccccccssccccscccccccccccc" />
  </g>
  <g
     style="display:none"
     transform="translate(0,-988.3622)"
     id="g3477"
     inkscape:groupmode="layer"
     inkscape:label="Frame 1"
     sodipodi:insensitive="true">
    <path
       inkscape:connector-curvature="0"
       style="fill:#555555;fill-opacity:1"
       d="m 103.46289,6.2148438 -3.45703,3.6152343 4.67187,4.4199219 -4.67187,2.857422 4.79687,4.970703 -4.79687,2.904297 3.35156,3.263672 c 43.5425,-0.04299 52.18548,-0.09766 59.51172,-0.576172 5.41675,-0.3538 10.71445,-1.041381 14.82813,-1.925781 0.58629,-0.1252 1.06926,-0.214844 1.07226,-0.214844 0.0588,0.1237 3.45682,6.483522 3.69727,6.919922 l 0,0.002 0.33398,0.605469 3.38281,0 3.38477,0 0,-5.56836 0,-5.566406 -0.0977,-5.748047 0,-5.5625 0,-5.5624999 -3.40234,0.023437 -3.40234,0.023437 -1.97461,3.6835938 c -1.08628,2.0252101 -1.9861,3.7110941 -2,3.7460941 -0.0141,0.0362 -0.48332,-0.03892 -1.04297,-0.166016 C 162.82075,9.063341 145.76838,9.4379304 129.6816,9.1465304 L 106.37695,9.109375 103.46289,6.2148438 Z"
       id="path3479"
       transform="translate(0,988.3622)" />
    <path
       inkscape:connector-curvature="0"
       style="fill:#555555;fill-opacity:1"
       d="m 80.166016,1.171875 c -1.235955,0.0743 -2.608151,0.044053 -3.958985,0.3769531 -0.650771,0.2928 -1.301838,1.0111282 -1.576172,1.7363281 -0.114966,0.3039 -0.312951,0.9884844 -0.441406,1.5214844 -0.128386,0.533 -0.319181,1.2732844 -0.421875,1.6464844 -0.10266,0.373 -0.239237,0.9400656 -0.304687,1.2597656 -0.222813,1.0889 -0.638414,1.6183438 -1.492188,1.9023438 -0.316091,0.1047 -3.824646,0.1352031 -19.017578,0.1582031 -8.866232,-0.0132 -20.489719,-0.8720975 -30.974609,0.5078125 -4.232757,0.7546 -7.3832,2.187738 -9.535157,4.335938 -1.350643,1.3485 -2.0035,2.779265 -2,4.384765 0.0037,2.0186 1.056521,3.814547 3.189453,5.435547 2.047539,1.556 4.875437,2.666263 8.369141,3.289062 3.507855,0.625801 0.481203,0.600829 66.859375,0.548829 8.05056,-0.0063 8.282434,-0.02316 14.496092,-0.0293 l -3.35156,-3.263672 4.79687,-2.904297 -4.79687,-4.970703 4.67187,-2.857422 -4.67187,-4.4199219 3.45703,-3.6152343 -0.14062,-0.1386719 c -2.97292,-2.9524 -3.844137,-3.7179406 -4.757817,-4.1816407 -0.53233,-0.2701999 -1.382068,-0.4942187 -2.173828,-0.5742187 -0.631136,-0.0629 -0.684816,-0.047538 -3.1875,-0.1484375 l -8.314453,0 -0.425781,0 c -0.573105,0 -0.582948,-0.03 -1.783203,0 l -0.679688,0 -1.064453,0 c 0,0 -0.51349,-0.017 -0.769531,0 z"
       id="path3481"
       transform="translate(0,988.3622)" />
  </g>
  <g
     style="display:none"
     transform="translate(0,-988.3622)"
     id="g3417"
     inkscape:groupmode="layer"
     inkscape:label="Frame 2"
     sodipodi:insensitive="true">
    <path
       inkscape:connector-curvature="0"
       style="fill:#555555;fill-opacity:1"
       d="m 103.9361,993.14267 -3.58109,3.49238 4.51477,4.58025 -4.76875,2.6927 4.62047,5.135 -4.895302,2.7352 3.235622,3.3786 c 43.51747,1.4767 52.15709,1.7237 59.49557,1.5011 5.4258,-0.1645 10.74427,-0.6668 14.88631,-1.4071 0.5903,-0.1046 1.0761,-0.1774 1.0791,-0.1773 0.0545,0.1257 3.22844,6.6002 3.45352,7.0448 l -7e-5,0 0.31264,0.6167 3.38075,0.1181 3.38271,0.1181 0.19433,-5.565 0.19427,-5.563 0.10296,-5.7479 0.19413,-5.5591 0.19413,-5.55916 -3.40109,-0.0953 -3.40108,-0.0953 -2.10196,3.61244 c -1.1563,1.98602 -2.11441,3.63952 -2.12952,3.67402 -0.0154,0.036 -0.48167,-0.056 -1.03654,-0.2024 -14.70359,-3.81147 -31.75864,-4.03223 -47.82545,-4.88487 l -23.28916,-0.85045 -2.81127,-2.99447 z"
       id="path3419" />
    <path
       inkscape:connector-curvature="0"
       style="fill:#555555;fill-opacity:1"
       d="m 79.679145,988.7556 c -1.23261,0.11738 -2.605025,0.13504 -3.943418,0.51489 -0.640156,0.31533 -1.265757,1.05594 -1.514615,1.79027 -0.10429,0.30773 -0.278263,0.99881 -0.388038,1.53597 -0.109707,0.53715 -0.27455,1.28364 -0.364157,1.6602 -0.08958,0.37636 -0.206283,0.94784 -0.260536,1.26963 -0.184675,1.09601 -0.581546,1.63964 -1.424888,1.95326 -0.312245,0.11567 -3.817598,0.2686 -19.000472,0.82181 -8.861291,0.29624 -20.507673,-0.15648 -30.938018,1.58851 -4.203843,0.90186 -7.302351,2.44406 -9.378026,4.66606 -1.302758,1.3948 -1.905285,2.8475 -1.845756,4.4519 0.07415,2.0172 1.189004,3.7753 3.377208,5.3209 2.100596,1.4836 4.965519,2.4945 8.47883,2.995 3.527558,0.503 0.501878,0.5837 66.8378,-1.7849 8.045436,-0.2872 8.27658,-0.3122 14.486241,-0.5352 l -3.46342,-3.1447 4.69259,-3.0699 -4.96742,-4.8003 4.5693,-3.0187 -4.823281,-4.25418 3.328751,-3.73368 -0.14537,-0.13368 c -3.074146,-2.84685 -3.97155,-3.58152 -4.900856,-4.01305 -0.541436,-0.25146 -1.398474,-0.44568 -2.192544,-0.498 -0.632946,-0.0408 -0.686058,-0.0236 -3.190738,-0.0371 l -8.309388,0.29017 -0.425522,0.0149 c -0.572756,0.02 -0.58364,-0.01 -1.782117,0.0622 l -0.679274,0.0237 -1.063804,0.0371 c 0,0 -0.513771,9.3e-4 -0.769063,0.0268 z"
       id="path3421" />
  </g>
  <g
     inkscape:label="Frame 3"
     inkscape:groupmode="layer"
     id="g3459"
     transform="translate(0,-988.3622)"
     style="display:none"
     sodipodi:insensitive="true">
    <path
       id="path3461"
       d="m 104.45908,993.72568 -3.70079,3.36528 4.35217,4.73504 -4.85981,2.5246 4.43844,5.2932 -4.987776,2.5626 3.115736,3.4895 c 43.43943,2.9945 52.06517,3.5429 59.40694,3.5766 5.42824,0.025 10.76099,-0.2915 14.92635,-0.8868 0.59359,-0.084 1.08164,-0.1397 1.08463,-0.1395 0.05,0.1275 2.99613,6.7089 3.20556,7.161 l -1.4e-4,0 0.29093,0.6273 3.37457,0.2359 3.37652,0.2362 0.38843,-5.5548 0.38829,-5.5529 0.30351,-5.7408 0.38802,-5.549 0.38802,-5.54895 -3.39569,-0.21395 -3.39569,-0.21396 -2.22675,3.53686 c -1.22491,1.9445 -2.24014,3.5635 -2.25644,3.5975 -0.0166,0.035 -0.47943,-0.073 -1.02885,-0.2384 -14.56161,-4.3224 -31.59857,-5.1382 -47.62584,-6.55105 l -23.24529,-1.66271 -2.70505,-3.09076 z"
       style="fill:#555555;fill-opacity:1"
       inkscape:connector-curvature="0" />
    <path
       id="path3463"
       d="m 77.165401,989.99458 c -1.227761,0.16034 -2.598725,0.22588 -3.923046,0.6522 -0.628761,0.33748 -1.228134,1.09948 -1.451212,1.84205 -0.09349,0.31118 -0.243236,1.0079 -0.334198,1.54857 -0.09089,0.54065 -0.229583,1.29244 -0.305994,1.6719 -0.07639,0.37925 -0.173079,0.95446 -0.216068,1.27795 -0.146313,1.10179 -0.523969,1.65893 -1.355853,2.0018 -0.308017,0.12649 -3.805898,0.40167 -18.960216,1.48445 -8.845555,0.6053 -20.500641,0.5593 -30.863733,2.6672 -4.169808,1.048 -7.212606,2.6975 -9.20947,4.9905 -1.253287,1.4395 -1.804748,2.9123 -1.689263,4.5136 0.144502,2.0135 1.320037,3.7316 3.560849,5.1999 2.151092,1.4093 5.049549,2.3196 8.578187,2.6972 3.542964,0.3796 0.521943,0.5658 66.734793,-4.1164 8.03051,-0.5678 8.260643,-0.6008 14.458733,-1.0404 l -3.57105,-3.0219 4.58259,-3.2319 -5.13193,-4.624 4.46117,-3.1763 -4.968808,-4.08327 3.196418,-3.84758 -0.14995,-0.12852 c -3.171623,-2.73783 -4.094119,-3.44073 -5.03792,-3.83957 -0.549881,-0.2324 -1.413176,-0.3966 -2.208588,-0.42118 -0.633986,-0.0187 -0.686464,3.5e-4 -3.19009,0.0743 l -8.294199,0.57998 -0.424744,0.0297 c -0.571709,0.04 -0.583621,0.0107 -1.778859,0.12439 l -0.678033,0.0474 -1.06186,0.0743 c 0,0 -0.513425,0.0189 -0.767656,0.0537 z"
       style="fill:#555555;fill-opacity:1"
       inkscape:connector-curvature="0" />
  </g>
  <g
     style="display:none"
     transform="translate(0,-988.3622)"
     id="g3465"
     inkscape:groupmode="layer"
     inkscape:label="Frame 4"
     sodipodi:insensitive="true">
    <path
       inkscape:connector-curvature="0"
       style="fill:#555555;fill-opacity:1"
       d="m 107.0312,994.32781 -3.81599,3.23408 4.18427,4.88401 -4.94496,2.3535 4.25101,5.4448 -5.07417,2.387 2.99205,3.5962 c 43.30847,4.5086 51.90981,5.3577 59.24594,5.6476 5.42406,0.2143 10.76461,0.084 14.9482,-0.3653 0.59616,-0.063 1.08586,-0.1019 1.08884,-0.1016 0.0456,0.1292 2.76017,6.8094 2.95369,7.2685 l -2.1e-4,0 0.26886,0.6371 3.36428,0.3536 3.36623,0.3538 0.58205,-5.5379 0.58185,-5.5359 0.50367,-5.7268 0.58144,-5.532 0.58144,-5.532 -3.38616,-0.3323 -3.38615,-0.3324 -2.34883,3.457 c -1.29202,1.9006 -2.36314,3.4832 -2.38062,3.5166 -0.0178,0.034 -0.4766,-0.089 -1.0199,-0.2742 -14.40189,-4.8279 -31.4,-6.2378 -47.3682,-8.20916 l -23.1731,-2.47295 -2.59553,-3.18328 z"
       id="path3467" />
    <path
       inkscape:connector-curvature="0"
       style="fill:#555555;fill-opacity:1"
       d="m 76.625412,991.25196 c -1.221418,0.20309 -2.589259,0.31644 -3.897895,0.78871 -0.6166,0.35922 -1.189015,1.14167 -1.386042,1.89158 -0.08257,0.31425 -0.207912,1.01578 -0.27995,1.55928 -0.07197,0.5435 -0.184338,1.29968 -0.247459,1.68157 -0.06311,0.38168 -0.139663,0.95992 -0.171337,1.28471 -0.107771,1.10623 -0.465753,1.67619 -1.285164,2.04789 -0.303415,0.1372 -3.789562,0.5343 -18.896861,2.1452 -8.819042,0.9137 -20.468633,1.2745 -30.751846,3.7428 -4.130693,1.1929 -7.114073,2.9475 -9.029694,5.3089 -1.202287,1.4823 -1.702012,2.9734 -1.530711,4.5698 0.214681,2.0071 1.449462,3.6832 3.740151,5.0723 2.198968,1.3335 5.127429,2.1421 8.667094,2.3963 3.554053,0.2557 0.541371,0.5472 66.550481,-6.4429 8.005799,-0.8478 8.234641,-0.8888 14.413621,-1.5444 l -3.67435,-2.8955 4.46701,-3.3898 -5.29017,-4.442 4.34759,-3.3301 -5.108281,-3.9074 3.060201,-3.95679 -0.15435,-0.12321 c -3.265242,-2.62547 -4.211707,-3.29575 -5.168852,-3.66141 -0.557658,-0.21307 -1.426157,-0.34704 -2.221942,-0.34384 -0.634253,0.003 -0.686033,0.0243 -3.185554,0.18556 l -8.268906,0.86909 -0.423448,0.0445 c -0.569966,0.0599 -0.582891,0.0311 -1.773435,0.1864 l -0.675964,0.071 -1.058622,0.11127 c 0,0 -0.512454,0.0368 -0.765316,0.0804 z"
       id="path3469" />
  </g>
  <g
     inkscape:label="Frame 5"
     inkscape:groupmode="layer"
     id="g3471"
     transform="translate(0,-988.3622)"
     style="display:none"
     sodipodi:insensitive="true">
    <path
       id="path3473"
       d="m 109.65175,992.95076 -3.92653,3.09893 4.01127,5.02711 -5.02408,2.1794 4.0584,5.5899 -5.15439,2.2085 2.86473,3.6983 c 43.12473,6.0174 51.69121,7.1661 59.01274,7.7119 5.41328,0.4035 10.75511,0.4599 14.95184,0.1566 0.59801,-0.042 1.08876,-0.064 1.09173,-0.063 0.041,0.1307 2.52085,6.9015 2.69822,7.3671 l -2.8e-4,0 0.24647,0.6461 3.34989,0.4708 3.35182,0.471 0.77497,-5.5141 0.77469,-5.5123 0.70323,-5.7057 0.77415,-5.5083 0.77415,-5.5084 -3.37249,-0.4503 -3.37249,-0.4503 -2.46805,3.3729 c -1.35756,1.8544 -2.48326,3.3986 -2.50189,3.4313 -0.019,0.034 -0.4732,-0.1058 -1.00972,-0.3095 -14.22462,-5.3276 -31.16317,-7.3299 -47.05284,-9.8573 l -23.07268,-3.28022 -2.48286,-3.27192 z"
       style="fill:#555555;fill-opacity:1"
       inkscape:connector-curvature="0" />
    <path
       id="path3475"
       d="m 74.059834,992.52864 c -1.213586,0.24558 -2.576638,0.40661 -3.867995,0.92427 -0.603688,0.38052 -1.148446,1.18246 -1.319182,1.93879 -0.07155,0.31694 -0.172335,1.02242 -0.225361,1.56811 -0.05296,0.54568 -0.138868,1.30531 -0.188623,1.68917 -0.04975,0.38366 -0.106077,0.96421 -0.126396,1.28991 -0.0691,1.10931 -0.406971,1.69141 -1.212911,2.09151 -0.298444,0.1477 -3.768608,0.6662 -18.810483,2.8034 -8.781783,1.2209 -20.411687,1.988 -30.602492,4.8137 -4.086544,1.3363 -7.006873,3.194 -8.838916,5.6208 -1.149824,1.5233 -1.597203,3.031 -1.370295,4.6204 0.284599,1.9985 1.577122,3.6304 3.914896,4.9388 2.244166,1.2559 5.199061,1.9618 8.745442,2.0923 3.560811,0.1315 0.560139,0.528 66.285086,-8.7616 7.971336,-1.1266 8.198607,-1.1756 14.350936,-2.0465 l -3.77315,-2.7654 4.34598,-3.5436 -5.441973,-4.2548 4.228723,-3.4798 -5.241533,-3.7267 2.920243,-4.06117 -0.15855,-0.11776 c -3.354884,-2.50991 -4.324165,-3.14675 -5.293487,-3.47878 -0.564754,-0.19349 -1.4374,-0.29706 -2.232589,-0.26609 -0.633747,0.0255 -0.684767,0.0482 -3.177138,0.29662 l -8.233537,1.15715 -0.421637,0.0593 c -0.567528,0.0798 -0.58145,0.0514 -1.765849,0.24818 l -0.673074,0.0946 -1.054093,0.14815 c 0,0 -0.510859,0.0546 -0.762042,0.10709 z"
       style="fill:#555555;fill-opacity:1"
       inkscape:connector-curvature="0" />
  </g>
  <g
     inkscape:label="Frame 6"
     inkscape:groupmode="layer"
     id="g3411"
     transform="translate(0,-988.3622)"
     style="display:none"
     sodipodi:insensitive="true">
    <path
       id="path3413"
       d="m 110.31998,993.59621 -4.03229,2.96 3.83339,5.16399 -5.09708,2.0028 3.86084,5.7281 -5.22832,2.0273 2.73391,3.796 c 42.88845,7.5188 51.40962,8.9658 58.70765,9.7667 5.3959,0.5922 10.73251,0.835 14.93727,0.6784 0.59912,-0.022 1.09032,-0.026 1.09328,-0.025 0.0364,0.132 2.27845,6.9853 2.43946,7.4568 l -3.4e-4,0 0.22376,0.6542 3.33142,0.5875 3.33335,0.5877 0.96693,-5.4837 0.9666,-5.4819 0.90192,-5.6777 0.96592,-5.478 0.96592,-5.478 -3.35472,-0.5677 -3.35472,-0.5677 -2.58426,3.2847 c -1.42145,1.8058 -2.60035,3.3099 -2.62012,3.3419 -0.0202,0.033 -0.46922,-0.1222 -0.9983,-0.3446 -14.03002,-5.8208 -30.88838,-8.413 -46.68016,-11.4934 l -22.94415,-4.08342 -2.36716,-3.35657 z"
       style="fill:#555555;fill-opacity:1"
       inkscape:connector-curvature="0" />
    <path
       id="path3415"
       d="m 73.469357,991.82549 c -1.204276,0.28779 -2.560877,0.49629 -3.833382,1.0587 -0.59004,0.40136 -1.106479,1.22183 -1.250716,1.98365 -0.06045,0.31924 -0.136548,1.02781 -0.170497,1.57502 -0.03388,0.54719 -0.09323,1.30936 -0.129557,1.69472 -0.03633,0.38517 -0.07236,0.96733 -0.0813,1.29354 -0.03034,1.11108 -0.347692,1.70458 -1.13918,2.13258 -0.293107,0.158 -3.743063,0.7973 -18.701186,3.4581 -8.733826,1.5267 -20.329872,2.6992 -30.415854,5.8788 -4.037417,1.4782 -6.891136,3.4366 -8.637369,5.9259 -1.095959,1.5625 -1.490448,3.0849 -1.208209,4.6654 0.35417,1.9873 1.702859,3.5731 4.084871,4.7991 2.286628,1.1768 5.264359,1.7792 8.813134,1.7858 3.563232,0.01 0.578225,0.5082 65.938934,-11.0695 7.92716,-1.4041 8.152584,-1.461 14.270774,-2.5461 l -3.867368,-2.6321 4.219668,-3.6931 -5.58715,-4.0622 4.10471,-3.6253 -5.368408,-3.5415 2.77673,-4.16062 -0.16256,-0.11214 c -3.440436,-2.39131 -4.431352,-2.99393 -5.411672,-3.29193 -0.571162,-0.17366 -1.446891,-0.24672 -2.240515,-0.18801 -0.63247,0.0476 -0.682667,0.0721 -3.16485,0.40732 l -8.188138,1.44379 -0.419312,0.0739 c -0.564399,0.0995 -0.579302,0.0717 -1.756113,0.30965 l -0.669362,0.11803 -1.048281,0.18484 c 0,0 -0.508641,0.0724 -0.75784,0.13363 z"
       style="fill:#555555;fill-opacity:1"
       inkscape:connector-curvature="0" />
  </g>
  <g
     inkscape:label="Frame 7"
     inkscape:groupmode="layer"
     id="g3423"
     transform="translate(0,-988.3622)"
     style="display:none"
     sodipodi:insensitive="true">
    <path
       id="path3425"
       d="m 111.03508,992.2658 -4.13313,2.81747 3.65082,5.29463 -5.16387,1.8237 3.65858,5.8594 -5.29588,1.8435 2.59976,3.8892 c 42.59993,9.0109 51.06541,10.7544 58.33104,11.8096 5.37194,0.7801 10.69683,1.209 14.90449,1.1992 0.59951,-5e-4 1.09056,0.012 1.0935,0.013 0.0318,0.1332 2.03328,7.0606 2.17774,7.5374 l -4.1e-4,0 0.20079,0.6617 3.30889,0.7033 3.31081,0.7037 1.15772,-5.4467 1.15732,-5.4447 1.09953,-5.6428 1.1565,-5.4409 1.15651,-5.441 -3.33286,-0.6844 -3.33286,-0.6845 -2.69733,3.1926 c -1.4836,1.7551 -2.71428,3.217 -2.73515,3.2484 -0.0213,0.032 -0.46466,-0.1386 -0.98566,-0.3793 -13.81834,-6.3069 -30.57595,-9.4858 -46.25061,-13.1155 l -22.78767,-4.88166 -2.24857,-3.43714 z"
       style="fill:#555555;fill-opacity:1"
       inkscape:connector-curvature="0" />
    <path
       id="path3427"
       d="m 72.854701,993.14338 c -1.193499,0.32965 -2.541998,0.58536 -3.794099,1.19184 -0.575673,0.4217 -1.063164,1.2597 -1.180726,2.02609 -0.04927,0.32116 -0.100595,1.03195 -0.115426,1.58001 -0.01476,0.54804 -0.04747,1.31182 -0.07033,1.69822 -0.02287,0.38616 -0.03856,0.96926 -0.03611,1.29556 0.0085,1.1114 -0.287991,1.7157 -1.064061,2.171 -0.287415,0.1682 -3.712958,0.9275 -18.569106,4.1088 -8.675228,1.8304 -20.223288,3.407 -30.192159,6.9367 -3.983371,1.6181 -6.767003,3.6749 -8.425299,6.2236 -1.040759,1.5999 -1.381877,3.1351 -1.044651,4.7048 0.42331,1.9737 1.826522,3.5115 4.249869,4.6536 2.326306,1.0963 5.323245,1.5944 8.87009,1.4772 3.561311,-0.1172 0.595607,0.4876 65.512445,-13.364 7.873326,-1.68 8.096628,-1.7447 14.173222,-3.0426 l -3.956869,-2.4955 4.088209,-3.8382 -5.725516,-3.8647 3.975686,-3.7664 -5.488731,-3.35195 2.629832,-4.25499 -0.16637,-0.10641 c -3.521798,-2.26978 -4.533141,-2.83745 -5.523264,-3.10106 -0.576875,-0.15361 -1.45462,-0.19607 -2.245711,-0.1097 -0.630422,0.0697 -0.679735,0.0959 -3.148708,0.51752 l -8.132762,1.72867 -0.416477,0.0885 c -0.560581,0.11915 -0.576446,0.0919 -1.744235,0.37075 l -0.664836,0.14131 -1.041192,0.22132 c 0,0 -0.505803,0.0901 -0.752715,0.15999 z"
       style="fill:#555555;fill-opacity:1"
       inkscape:connector-curvature="0" />
  </g>
  <g
     inkscape:label="Frame 8"
     inkscape:groupmode="layer"
     id="g3429"
     transform="translate(0,-988.3622)"
     style="display:none"
     sodipodi:insensitive="true">
    <path
       id="path3431"
       d="m 113.79617,992.96115 -4.22894,2.67152 3.46382,5.41883 -5.22437,1.6423 3.45186,5.9836 -5.35699,1.6575 2.46245,3.9776 c 42.2595,10.4921 50.65897,12.53 57.88335,13.8381 5.34144,0.9671 10.64812,1.5816 14.85356,1.7187 0.59916,0.02 1.08948,0.05 1.09239,0.051 0.0271,0.1343 1.78563,7.1272 1.91336,7.6088 l -4.8e-4,0 0.17758,0.6683 3.28233,0.8183 3.28422,0.8189 1.34711,-5.403 1.34664,-5.401 1.29578,-5.601 1.34569,-5.3973 1.34569,-5.3972 -3.30695,-0.8004 -3.30694,-0.8003 -2.8071,3.0964 c -1.54396,1.7023 -2.8249,3.1204 -2.84685,3.151 -0.0224,0.032 -0.45955,-0.1547 -0.97183,-0.4134 -13.58981,-6.7853 -30.22627,-10.5472 -45.76471,-14.7217 l -22.60342,-5.67392 -2.12725,-3.51353 z"
       style="fill:#555555;fill-opacity:1"
       inkscape:connector-curvature="0" />
    <path
       id="path3433"
       d="m 70.216614,994.48314 c -1.181267,0.3711 -2.520021,0.67371 -3.750193,1.32352 -0.560606,0.44154 -1.018554,1.29604 -1.109298,2.06606 -0.03803,0.32269 -0.06452,1.03484 -0.06021,1.58308 0.0044,0.5482 -0.0017,1.3127 -0.01102,1.6996 -0.0094,0.3868 -0.0047,0.9701 0.0091,1.2961 0.04723,1.1105 -0.227938,1.7247 -0.987645,2.2068 -0.281373,0.1781 -3.678329,1.0565 -18.414402,4.7543 -8.60606,2.1321 -20.092066,4.1107 -29.93168,7.9862 -3.924471,1.7561 -6.634625,3.9089 -8.202963,6.5139 -0.984292,1.6352 -1.271623,3.1814 -0.879821,4.7383 0.491933,1.9578 1.94796,3.4457 4.40969,4.5025 2.363149,1.0145 5.375643,1.4076 8.916238,1.1667 3.555052,-0.2414 0.612263,0.4666 65.00614,-15.6422 7.8099,-1.9537 8.030807,-2.0262 14.05841,-3.5354 l -4.041562,-2.3559 3.951772,-3.9785 -5.856905,-3.6626 3.841825,-3.9027 -5.602374,-3.15844 2.479732,-4.34417 -0.169986,-0.10054 c -3.598862,-2.14548 -4.629401,-2.67752 -5.62812,-2.90641 -0.581885,-0.13339 -1.460577,-0.14518 -2.248172,-0.0313 -0.627605,0.0916 -0.675975,0.11954 -3.128728,0.6271 l -8.067478,2.01144 -0.413134,0.10301 c -0.556081,0.13865 -0.572889,0.11192 -1.730234,0.4314 l -0.659498,0.16443 -1.032834,0.25751 c 0,0 -0.50235,0.10773 -0.746673,0.18617 z"
       style="fill:#555555;fill-opacity:1"
       inkscape:connector-curvature="0" />
  </g>
  <g
     inkscape:label="Frame 9"
     inkscape:groupmode="layer"
     id="g3447"
     transform="translate(0,-988.3622)"
     style="display:none"
     sodipodi:insensitive="true">
    <path
       id="path3449"
       d="m 114.60234,993.68387 -4.31961,2.52229 3.2726,5.53644 -5.27851,1.459 3.24094,6.1003 -5.41158,1.4696 2.32214,4.0611 c 41.86758,11.9606 50.19082,14.2904 57.36515,15.8498 5.30443,1.153 10.58643,1.9523 14.78453,2.236 0.59809,0.041 1.08706,0.088 1.08994,0.089 0.0224,0.1351 1.53581,7.1852 1.64665,7.671 l -5.5e-4,0 0.15416,0.6741 3.25176,0.9324 3.25365,0.933 1.53485,-5.3527 1.53431,-5.3507 1.49046,-5.5523 1.53323,-5.3471 1.53323,-5.347 -3.27699,-0.9153 -3.277,-0.9152 -2.91346,2.9966 c -1.60242,1.6473 -2.93207,3.0199 -2.95508,3.0497 -0.0235,0.031 -0.45387,-0.1707 -0.95681,-0.4471 -13.34473,-7.2554 -29.83977,-11.5956 -45.22306,-16.3099 l -22.39162,-6.45931 -2.00333,-3.58562 z"
       style="fill:#555555;fill-opacity:1"
       inkscape:connector-curvature="0" />
    <path
       id="path3451"
       d="m 67.555873,993.84557 c -1.167596,0.4121 -2.494973,0.76125 -3.701718,1.4536 -0.544855,0.46083 -0.972703,1.33079 -1.036517,2.10351 -0.02675,0.32382 -0.02837,1.03642 -0.0049,1.58422 0.0235,0.5477 0.04415,1.3119 0.0483,1.699 0.0041,0.3868 0.02915,0.9696 0.05436,1.2949 0.08596,1.1082 -0.167607,1.7316 -0.910026,2.24 -0.274987,0.1877 -3.639219,1.1842 -18.237263,5.394 -8.526407,2.4312 -19.936364,4.8094 -29.634733,9.0259 -3.860791,1.8921 -6.494165,4.1381 -7.970635,6.7962 -0.926624,1.6686 -1.159818,3.2239 -0.713918,4.7662 0.559958,1.9394 2.067025,3.3756 4.564139,4.3459 2.397112,0.9313 5.421492,1.2191 8.951523,0.8548 3.544461,-0.3654 0.628173,0.4449 64.420634,-17.9014 7.736958,-2.2251 7.955203,-2.3052 13.926461,-4.0238 l -4.121316,-2.2135 3.810516,-4.1139 -5.98116,-3.456 3.70327,-4.0345 -5.709177,-2.96094 2.326616,-4.42807 -0.173395,-0.0945 c -3.671546,-2.01858 -4.720025,-2.51432 -5.726124,-2.70822 -0.586186,-0.113 -1.464754,-0.0941 -2.247894,0.0472 -0.624024,0.1135 -0.67139,0.14306 -3.104936,0.7359 l -7.992365,2.29178 -0.409287,0.11736 c -0.550904,0.15797 -0.568635,0.13184 -1.714125,0.49152 l -0.653358,0.18734 -1.023218,0.29341 c 0,0 -0.498284,0.12519 -0.739721,0.21211 z"
       style="fill:#555555;fill-opacity:1"
       inkscape:connector-curvature="0" />
  </g>
  <g
     inkscape:label="Frame 10"
     inkscape:groupmode="layer"
     id="g3453"
     transform="translate(0,-988.3622)"
     style="display:none"
     sodipodi:insensitive="true">
    <path
       id="path3455"
       d="m 117.45258,994.43549 -4.405,2.37001 3.07738,5.6473 -5.3262,1.2739 3.02606,6.2097 -5.45957,1.2798 2.17899,4.1397 c 41.42467,13.4144 49.66152,16.0333 56.77706,17.8421 5.26097,1.3374 10.51185,2.3206 14.69749,2.7506 0.59628,0.062 1.08332,0.1261 1.08617,0.1271 0.0177,0.1358 1.28411,7.2344 1.37794,7.7237 l -6.2e-4,0 0.13053,0.6791 3.21725,1.0453 3.2191,1.046 1.72072,-5.2959 1.72012,-5.2939 1.68332,-5.4969 1.71891,-5.2903 1.71891,-5.2902 -3.24306,-1.0291 -3.24306,-1.0291 -3.01626,2.8931 c -1.65894,1.5904 -3.03569,2.9157 -3.05972,2.9447 -0.0246,0.03 -0.44764,-0.1864 -0.94062,-0.4802 -13.08339,-7.7167 -29.41691,-12.63 -44.6263,-17.8782 l -22.15256,-7.23685 -1.87698,-3.65336 z"
       style="fill:#555555;fill-opacity:1"
       inkscape:connector-curvature="0" />
    <path
       id="path3457"
       d="m 66.873284,995.23145 c -1.152503,0.45259 -2.466886,0.84786 -3.648734,1.58189 -0.528439,0.47957 -0.925665,1.36393 -0.962473,2.13841 -0.01543,0.32456 0.0078,1.03682 0.05036,1.58345 0.0426,0.5466 0.08991,1.3096 0.107565,1.6962 0.01763,0.3865 0.06297,0.968 0.09951,1.2923 0.124581,1.1045 -0.107072,1.7364 -0.831298,2.2704 -0.268267,0.1972 -3.595675,1.3104 -18.037904,6.0272 -8.436367,2.7272 -19.756374,5.5022 -29.301681,10.0546 -3.792407,2.0257 -6.345793,4.3622 -7.728595,7.0703 -0.867828,1.6998 -1.046602,3.2623 -0.547146,4.7881 0.6273,1.9187 2.183571,3.3014 4.713026,4.184 2.428156,0.8471 5.460737,1.0291 8.975902,0.5418 3.529552,-0.4888 0.643318,0.4228 63.756642,-20.1387 7.654591,-2.4937 7.869906,-2.5814 13.777542,-4.5074 l -4.196046,-2.0682 3.664616,-4.2445 -6.098125,-3.2451 3.560215,-4.1613 -5.809038,-2.75986 2.170662,-4.50658 -0.17659,-0.0884 c -3.739756,-1.88921 -4.804898,-2.34807 -5.81715,-2.50673 -0.589773,-0.0925 -1.467147,-0.043 -2.244877,0.12564 -0.619683,0.13521 -0.665989,0.16641 -3.077362,0.84382 l -7.907515,2.5693 -0.404942,0.13158 c -0.545055,0.1771 -0.563687,0.15161 -1.695927,0.55104 l -0.646421,0.21003 -1.012355,0.32894 c 0,0 -0.493612,0.14251 -0.731868,0.23779 z"
       style="fill:#555555;fill-opacity:1"
       inkscape:connector-curvature="0" />
  </g>
  <g
     style="display:none"
     transform="translate(0,-988.3622)"
     id="g3379"
     inkscape:groupmode="layer"
     inkscape:label="Frame 11"
     sodipodi:insensitive="true">
    <path
       style="fill:#555555;fill-opacity:1"
       d="m 118.34586,993.21755 -4.48503,2.21483 2.87842,5.75122 -5.36741,1.0872 2.8075,6.3116 -5.50091,1.0885 2.03319,4.2132 c 40.93127,14.852 49.07171,17.7567 56.11979,19.8128 5.21109,1.5201 10.42446,2.6859 14.59254,3.2618 0.59375,0.083 1.07826,0.1639 1.08107,0.1649 0.0129,0.1363 1.03086,7.2748 1.10755,7.7671 l -6.7e-4,0 0.10676,0.6831 3.1788,1.157 3.18064,1.1577 1.90449,-5.2326 1.90383,-5.2307 1.87417,-5.4348 1.90249,-5.227 1.90249,-5.227 -3.20517,-1.1417 -3.20517,-1.1416 -3.11539,2.7861 c -1.71343,1.5315 -3.13559,2.808 -3.16063,2.8361 -0.0257,0.029 -0.44086,-0.2019 -0.92329,-0.5127 -12.8061,-8.1687 -28.95821,-13.6489 -43.97517,-19.4248 l -21.88655,-8.00552 -1.74834,-3.71663 z"
       id="path3399"
       inkscape:connector-curvature="0" />
    <path
       style="fill:#555555;fill-opacity:1"
       d="m 66.169678,994.64152 c -1.136006,0.49254 -2.435793,0.93344 -3.591304,1.70827 -0.511381,0.49772 -0.877501,1.39541 -0.887258,2.1707 -0.0041,0.32489 0.044,1.03591 0.105593,1.58071 0.06165,0.5447 0.135556,1.3056 0.166698,1.6915 0.0311,0.3856 0.09671,0.9652 0.144553,1.288 0.16305,1.0994 -0.04641,1.7391 -0.751558,2.2979 -0.261219,0.2065 -3.54775,1.4352 -17.81657,6.6531 -8.336047,3.02 -19.552312,6.1884 -28.932929,11.0711 -3.719402,2.1568 -6.189688,4.581 -7.477138,7.3357 -0.807976,1.7291 -0.93211,3.2969 -0.379708,4.8044 0.693902,1.8956 2.297457,3.2231 4.856172,4.0169 2.456241,0.7618 5.493328,0.8379 8.989346,0.2282 3.510342,-0.6117 0.657678,0.4001 63.014972,-22.3515 7.562903,-2.7593 7.77502,-2.8545 13.611853,-4.9855 l -4.26568,-1.9205 3.51425,-4.3698 -6.207659,-3.0303 3.412829,-4.28296 -5.901827,-2.5555 2.012062,-4.57958 -0.179568,-0.0822 c -3.803411,-1.75755 -4.883918,-2.17895 -5.901091,-2.30219 -0.59264,-0.0718 -1.467752,0.008 -2.239124,0.2039 -0.614587,0.15676 -0.659776,0.18955 -3.046039,0.95071 l -7.81303,2.84371 -0.400104,0.14562 c -0.538542,0.19602 -0.558052,0.17119 -1.675662,0.60989 l -0.638698,0.23247 -1.000259,0.36407 c 0,0 -0.488337,0.15964 -0.723122,0.26319 z"
       id="path3381"
       inkscape:connector-curvature="0" />
  </g>
</svg>
