<?xml version="1.0" encoding="UTF-8" standalone="no"?>
<!-- Created with Inkscape (http://www.inkscape.org/) -->

<svg
   xmlns:dc="http://purl.org/dc/elements/1.1/"
   xmlns:cc="http://creativecommons.org/ns#"
   xmlns:rdf="http://www.w3.org/1999/02/22-rdf-syntax-ns#"
   xmlns:svg="http://www.w3.org/2000/svg"
   xmlns="http://www.w3.org/2000/svg"
   xmlns:sodipodi="http://sodipodi.sourceforge.net/DTD/sodipodi-0.dtd"
   xmlns:inkscape="http://www.inkscape.org/namespaces/inkscape"
   width="260"
   height="80"
   viewBox="0 0 260 80.000001"
   id="svg2"
   version="1.1"
   inkscape:version="0.91 r13725"
   sodipodi:docname="sub2.svg"
   inkscape:export-filename="/Users/kyle/Desktop/sub2/sub2 destroyed 06.png"
   inkscape:export-xdpi="90"
   inkscape:export-ydpi="90">
  <defs
     id="defs4" />
  <sodipodi:namedview
     id="base"
     pagecolor="#ffffff"
     bordercolor="#666666"
     borderopacity="1.0"
     inkscape:pageopacity="0.0"
     inkscape:pageshadow="2"
     inkscape:zoom="7.9195959"
     inkscape:cx="118.91644"
     inkscape:cy="38.806652"
     inkscape:document-units="px"
     inkscape:current-layer="g3561"
     showgrid="false"
     units="px"
     inkscape:window-width="3004"
     inkscape:window-height="1647"
     inkscape:window-x="4"
     inkscape:window-y="0"
     inkscape:window-maximized="1"
     showguides="true"
     inkscape:guide-bbox="true"
     inkscape:snap-object-midpoints="true"
     inkscape:snap-center="true">
    <sodipodi:guide
       position="129.93087,108.84394"
       orientation="1,0"
       id="guide3422" />
    <sodipodi:guide
       position="129.93087,56.189736"
       orientation="0,1"
       id="guide3424" />
  </sodipodi:namedview>
  <metadata
     id="metadata7">
    <rdf:RDF>
      <cc:Work
         rdf:about="">
        <dc:format>image/svg+xml</dc:format>
        <dc:type
           rdf:resource="http://purl.org/dc/dcmitype/StillImage" />
        <dc:title></dc:title>
      </cc:Work>
    </rdf:RDF>
  </metadata>
  <g
     inkscape:label="Sub"
     inkscape:groupmode="layer"
     id="layer1"
     transform="translate(0,-972.36216)"
     style="display:none"
     sodipodi:insensitive="true">
    <path
       style="fill:#1a1a1a"
       d="m 244.38286,1009.8685 0.43059,-0.2272 0.0882,-4.5594 c 0.0649,-3.3529 0.15005,-4.6806 0.32193,-5.0174 0.19497,-0.38208 0.42158,-0.49344 1.36627,-0.67178 0.91951,-0.17343 1.25847,-0.33467 1.80211,-0.85707 l 0.66959,-0.64337 -0.40171,-0.28395 c -0.66459,-0.46966 -2.14745,-0.8228 -5.05202,-1.2031 l -2.75574,-0.36079 -0.0507,-1.1503 -0.0506,-1.15023 -1.13796,-0.2596 c -0.62587,-0.1427 -1.20256,-0.36144 -1.28152,-0.48598 -0.079,-0.12449 -0.14475,-1.0082 -0.1462,-1.96378 -0.007,-4.48786 -0.24305,-10.60465 -0.41885,-10.84507 -0.1359,-0.18586 -1.00483,-0.34812 -3.11551,-0.58173 -6.03914,-0.66843 -7.04078,-0.74199 -7.52574,-0.55268 -0.50769,0.19818 -0.36044,-0.21134 -3.22421,8.96713 -0.66273,2.12408 -1.31384,3.97074 -1.44691,4.1039 -0.2016,0.20158 -0.4182,0.20719 -1.29894,0.034 -7.98056,-1.39456 -5.83461,-1.05115 -7.98056,-1.39456 -2.11257,-0.36809 -5.92823,-1.0217 -8.47925,-1.45233 l -11.06517,-1.68438 c -1.00644,-0.29987 -10.63194,-0.97112 -13.92616,-0.97112 l -1.99939,0 -1.23664,-0.7505 c -1.80177,-1.09348 -2.70712,-1.52287 -5.11154,-2.42431 -2.23624,-0.83839 -5.25072,-1.47549 -6.98132,-1.47549 -0.72758,0 -0.93626,-0.0627 -1.00367,-0.30142 -0.0468,-0.16577 -0.2166,-1.85151 -0.37731,-3.74607 -0.16101,-1.8982 -0.37932,-3.53826 -0.48625,-3.65312 -0.44091,-0.47359 -4.48749,-0.60727 -20.80758,-0.68738 l -16.47991,-0.0809 -0.47121,0.74645 c -0.44753,0.70894 -0.47787,0.89358 -0.60391,3.67468 -0.073,1.61053 -0.13736,3.2028 -0.14306,3.53839 -0.01,0.56898 -0.0597,0.6236 -0.74234,0.80945 -0.4026,0.10962 -1.01565,0.43559 -1.36233,0.72439 -0.75147,0.62598 -1.52259,2.08942 -1.52259,2.88957 l 0,0.57395 -47.579508,-0.0202 c -36.19459,-0.015 -47.88681,0.029 -48.86373,0.18606 -3.76536,0.6045 -7.84211,2.76708 -9.71836,5.15526 -1.66403,2.11808 -2.28348,3.93081 -2.12676,6.22377 0.11013,1.61095 0.60685,2.72931 1.91832,4.31941 2.42962,2.9455 5.97622,4.8012 11.64939,6.0956 1.88571,0.4302 2.29265,0.4563 9.20672,0.5902 9.54443,0.1848 154.777898,0.3006 155.807568,0.1242 7.19957,-0.5697 7.90007,-1.0942 16.14596,-2.4523 16.72828,-3.1179 13.33548,-2.3797 16.72828,-3.1179 4.67222,-1.0152 4.37611,-0.9765 4.80392,-0.6264 0.23535,0.1926 0.77997,1.4146 1.47921,3.3189 0.70115,1.9096 1.24292,3.1245 1.47836,3.3155 0.33624,0.2727 0.88434,0.3014 5.75388,0.3014 2.96023,0 5.72245,0.042 6.13827,0.093 0.46694,0.058 0.92067,0.01 1.18661,-0.134 z"
       id="path3401"
       inkscape:connector-curvature="0"
       sodipodi:nodetypes="ccscccccscccccccssscccccscssscscscsscccscccscccscccsccsccc" />
  </g>
  <g
     style="display:none"
     transform="translate(0,-972.36216)"
     id="g3469"
     inkscape:groupmode="layer"
     inkscape:label="Sub Destroyed 01"
     sodipodi:insensitive="true">
    <path
       style="fill:#1a1a1a"
       d="m 93.207031,36.730469 -3.302734,-3.703125 5.554687,-4.292969 -7.828125,-9.34375 c 0,0 3.841473,-3.858328 5.205079,-5.269531 l -20.041016,-0.0078 c -36.19459,-0.015 -47.886361,0.02849 -48.863281,0.185547 -3.76536,0.6045 -7.8425,2.76807 -9.71875,5.15625 -1.66403,2.11808 -2.283674,3.929696 -2.126953,6.222656 0.110129,1.61095 0.606498,2.730213 1.917968,4.320313 2.42962,2.9455 5.977221,4.801303 11.650391,6.095703 1.88571,0.4302 2.292961,0.455944 9.207031,0.589844 3.574151,0.0692 31.413853,0.0087 58.345703,0.04687 z"
       id="path3484"
       transform="translate(0,972.36216)"
       inkscape:connector-curvature="0" />
    <path
       style="fill:#1a1a1a"
       d="m 165.42773,9.7792969 -4.6875,4.6875001 5.42969,9.34375 -5.80859,6.818359 5.68555,6.158203 c 5.76044,-0.0028 24.45838,0.04741 24.62109,0.01953 7.19957,-0.5697 7.90059,-1.093072 16.14648,-2.451172 16.72828,-3.1179 13.33572,-2.378988 16.72852,-3.117188 4.67222,-1.0152 4.37492,-0.977053 4.80273,-0.626953 0.23535,0.1926 0.78123,1.414058 1.48047,3.31836 0.70115,1.909599 1.24308,3.125406 1.47852,3.316406 0.33624,0.2727 0.88436,0.300781 5.7539,0.300781 2.96023,0 5.7209,0.04275 6.13672,0.09375 0.46694,0.058 0.92156,0.0092 1.1875,-0.134766 l 0.42969,-0.226562 0.0898,-4.558594 c 0.0649,-3.3529 0.14844,-4.680778 0.32032,-5.017578 0.19497,-0.38208 0.42249,-0.493535 1.36718,-0.671875 0.91951,-0.17343 1.2591,-0.335022 1.80274,-0.857422 l 0.66992,-0.644531 -0.40234,-0.283203 c -0.66459,-0.46966 -2.14817,-0.822825 -5.05274,-1.203125 l -2.75586,-0.361328 -0.0508,-1.150391 -0.0508,-1.150391 -1.13672,-0.257812 c -0.62587,-0.1427 -1.20229,-0.361788 -1.28125,-0.486328 -0.079,-0.12449 -0.14503,-1.009264 -0.14648,-1.964844 -0.007,-4.48786 -0.24413,-10.60333 -0.41993,-10.84375 -0.13589,-0.18586 -1.00455,-0.3484213 -3.11523,-0.5820312 -6.03914,-0.66843 -7.04043,-0.7420444 -7.52539,-0.5527344 -0.50769,0.19818 -0.36084,-0.2116728 -3.22461,8.9667966 -0.66273,2.12408 -1.31419,3.970356 -1.44727,4.103516 -0.2016,0.20158 -0.41808,0.208346 -1.29882,0.03516 -7.98056,-1.39456 -5.83452,-1.051121 -7.98047,-1.394531 -2.11257,-0.36809 -5.9275,-1.022495 -8.47852,-1.453125 L 193.63078,15.26758 c -1.00644,-0.29987 -10.63351,-0.972656 -13.92774,-0.972656 l -1.99804,0 -1.23828,-0.75 c -1.80177,-1.09348 -2.70691,-1.522388 -5.11133,-2.423828 -1.87965,-0.704701 -4.1732,-1.1800859 -5.92774,-1.3417971 z"
       id="path3487"
       transform="translate(0,972.36216)"
       inkscape:connector-curvature="0" />
    <path
       style="fill:#1a1a1a"
       d="m 125.2207,1.1757812 -0.47265,0.7460938 c -0.44753,0.70894 -0.47748,0.8946813 -0.60352,3.6757812 -0.073,1.6105302 -0.13688,3.2034724 -0.14258,3.5390626 -0.01,0.5689799 -0.0595,0.6227437 -0.74218,0.8085937 -0.4026,0.1096195 -1.01661,0.4358095 -1.36329,0.7246095 -0.75147,0.62598 -1.52148,2.088522 -1.52148,2.888672 l 0,0.574218 -27.539062,-0.01172 c -1.363607,1.411203 -5.205079,5.269531 -5.205079,5.269531 l 7.828125,9.34375 -5.554687,4.292969 3.302734,3.703125 c 33.622219,0.0476 55.797959,0.065 72.839849,0.05664 l -5.68555,-6.158203 5.80859,-6.818359 -5.42969,-9.34375 4.6875,-4.6875001 c -0.33285,-0.030678 -0.77677,-0.1347657 -1.05273,-0.1347657 -0.72758,0 -0.9365,-0.062061 -1.00391,-0.3007812 -0.0468,-0.16577 -0.21624,-1.8515337 -0.37695,-3.7460938 -0.16101,-1.8981999 -0.3794,-3.5374837 -0.48633,-3.6523437 -0.44091,-0.47359 -4.4885,-0.60739 -20.80859,-0.6875 L 125.2207,1.1757812 Z"
       id="path3471"
       transform="translate(0,972.36216)"
       inkscape:connector-curvature="0" />
  </g>
  <g
     inkscape:label="Sub Destroyed 02"
     inkscape:groupmode="layer"
     id="g3489"
     transform="translate(0,-972.36216)"
     style="display:none"
     sodipodi:insensitive="true">
    <path
       inkscape:connector-curvature="0"
       id="path3491"
       d="m 91.577714,1009.7091 -3.42996,-3.5856 5.401481,-4.4842 -8.149448,-9.06489 c 0,0 3.704479,-3.99005 5.018004,-5.44798 l -20.02908,0.69163 c -36.173065,1.24818 -47.856195,1.69968 -48.827039,1.89074 -3.74197,0.73554 -7.741118,3.04008 -9.532879,5.49228 -1.589097,2.17487 -2.145139,4.00701 -1.90849,6.29312 0.166283,1.6061 0.701412,2.7074 2.067576,4.2507 2.530937,2.8589 6.141143,4.5898 11.856031,5.6854 1.899575,0.3641 2.307477,0.3757 9.222008,0.2682 3.574389,-0.056 31.39502,-1.0876 58.311796,-1.9894 z"
       style="fill:#1a1a1a" />
    <path
       inkscape:connector-curvature="0"
       id="path3493"
       d="m 167.88282,982.77799 -4.84823,4.52105 5.10029,9.52755 -6.04301,6.61151 5.46717,6.3529 c 5.75703,0.1982 24.44182,0.9009 24.60541,0.8787 7.21506,-0.3181 7.93392,-0.8166 16.22219,-1.8861 16.8269,-2.5322 13.41062,-1.9122 16.82711,-2.5315 4.70481,-0.8515 4.40636,-0.8238 4.82169,-0.459 0.22848,0.2007 0.7314,1.4405 1.36376,3.368 0.63408,1.9329 1.13324,3.1669 1.36188,3.366 0.32651,0.2843 0.87332,0.3315 5.73989,0.5014 2.95843,0.1033 5.71593,0.2424 6.12971,0.3079 0.46463,0.074 0.92068,0.041 1.19148,-0.093 l 0.43734,-0.2114 0.24884,-4.5527 c 0.18187,-3.3486 0.3117,-4.6727 0.49523,-5.0033 0.20819,-0.375 0.43946,-0.4785 1.3898,-0.6238 0.925,-0.1412 1.27002,-0.2908 1.83156,-0.7939 l 0.69201,-0.6208 -0.39221,-0.2971 c -0.6478,-0.4925 -2.11815,-0.8973 -5.00768,-1.3787 l -2.74157,-0.45729 -0.0106,-1.15146 -0.0106,-1.15147 -1.12703,-0.29732 c -0.62051,-0.16446 -1.18893,-0.40353 -1.2635,-0.53075 -0.0746,-0.12717 -0.10972,-1.01371 -0.0778,-1.96876 0.14963,-4.48537 0.12607,-10.60539 -0.0412,-10.8518 -0.12932,-0.19049 -0.99178,-0.38326 -3.09302,-0.69039 -6.01213,-0.87879 -7.01024,-0.9873 -7.50151,-0.81503 -0.5143,0.18034 -0.35324,-0.22414 -3.53559,8.84879 -0.73645,2.09966 -1.45195,3.92208 -1.58959,4.05051 -0.20852,0.19442 -0.4251,0.19363 -1.29926,-0.0102 -7.92703,-1.67223 -5.79428,-1.2541 -7.92694,-1.67219 -2.09844,-0.4416 -5.8882,-1.22874 -8.42264,-1.74814 l -10.99896,-2.06871 c -0.99536,-0.33481 -10.59308,-1.34317 -13.88531,-1.45814 l -1.99682,-0.0697 -1.21135,-0.79276 c -1.76251,-1.15569 -2.65213,-1.61593 -5.02363,-2.60073 -1.85391,-0.76987 -4.12947,-1.32501 -5.8773,-1.54786 z"
       style="fill:#1a1a1a" />
    <path
       inkscape:connector-curvature="0"
       transform="translate(0,972.36216)"
       id="path3495"
       d="m 125.2207,1.1757812 -0.47265,0.7460938 c -0.44753,0.70894 -0.47748,0.8946813 -0.60352,3.6757812 -0.073,1.6105302 -0.13688,3.2034724 -0.14258,3.5390626 -0.01,0.5689799 -0.0595,0.6227437 -0.74218,0.8085937 -0.4026,0.1096195 -1.01661,0.4358095 -1.36329,0.7246095 -0.75147,0.62598 -1.52148,2.088522 -1.52148,2.888672 l 0,0.574218 -27.539062,-0.01172 c -1.363607,1.411203 -5.205079,5.269531 -5.205079,5.269531 l 7.828125,9.34375 -5.554687,4.292969 3.302734,3.703125 c 33.622219,0.0476 55.797959,0.065 72.839849,0.05664 l -5.68555,-6.158203 5.80859,-6.818359 -5.42969,-9.34375 4.6875,-4.6875001 c -0.33285,-0.030678 -0.77677,-0.1347657 -1.05273,-0.1347657 -0.72758,0 -0.9365,-0.062061 -1.00391,-0.3007812 -0.0468,-0.16577 -0.21624,-1.8515337 -0.37695,-3.7460938 -0.16101,-1.8981999 -0.3794,-3.5374837 -0.48633,-3.6523437 -0.44091,-0.47359 -4.4885,-0.60739 -20.80859,-0.6875 L 125.2207,1.1757812 Z"
       style="fill:#1a1a1a" />
  </g>
  <g
     style="display:none"
     transform="translate(0,-972.36216)"
     id="g3513"
     inkscape:groupmode="layer"
     inkscape:label="Sub Destroyed 03"
     sodipodi:insensitive="true">
    <path
       style="fill:#1a1a1a"
       d="m 91.899886,1008.3134 -3.553006,-3.4637 5.241694,-4.67 -8.460843,-8.77489 c 0,0 3.562972,-4.11689 4.824815,-5.61978 l -19.992741,1.39021 c -36.107468,2.50984 -47.767725,3.3688 -48.731309,3.59362 -3.71402,0.86569 -7.630306,3.3084 -9.335394,5.82164 -1.512227,2.229 -2.003989,4.0794 -1.687701,6.3559 0.222235,1.5993 0.79547,2.6812 2.214665,4.176 2.62917,2.7688 6.297583,4.3726 12.047226,5.2681 1.911126,0.2976 2.319181,0.2949 9.225749,-0.054 3.570272,-0.1803 31.337937,-2.1827 58.206845,-4.0232 z"
       id="path3515"
       inkscape:connector-curvature="0" />
    <path
       style="fill:#1a1a1a"
       d="m 168.38522,981.43123 -5.00306,4.34909 4.76468,9.69975 -6.27007,6.39653 5.24213,6.5398 c 5.7466,0.3991 24.39549,1.7535 24.55975,1.737 7.22177,-0.066 7.95759,-0.5393 16.27813,-1.3189 16.90503,-1.9434 13.46919,-1.4429 16.90522,-1.9426 4.73165,-0.6869 4.43241,-0.6695 4.83476,-0.2905 0.22134,0.2086 0.68069,1.4652 1.24539,3.4136 0.56623,1.9539 1.02203,3.2045 1.24357,3.4115 0.3164,0.2954 0.86123,0.3617 5.71891,0.7014 2.95302,0.2065 5.70398,0.4417 6.11523,0.5216 0.46176,0.09 0.91867,0.073 1.19401,-0.052 l 0.44444,-0.1961 0.40758,-4.5412 c 0.29863,-3.3402 0.47459,-4.659 0.66954,-4.983 0.22115,-0.3675 0.45589,-0.4629 1.41072,-0.5749 0.92937,-0.1088 1.2794,-0.2463 1.85816,-0.7295 l 0.71325,-0.5963 -0.3816,-0.3106 c -0.63021,-0.5148 -2.08554,-0.9706 -4.95651,-1.5526 l -2.72394,-0.5527 0.0296,-1.15113 0.0296,-1.15113 -1.11597,-0.33648 c -0.61439,-0.18601 -1.17412,-0.44478 -1.2442,-0.57452 -0.0701,-0.1297 -0.0743,-1.01692 -0.009,-1.97028 0.30607,-4.47741 0.49611,-10.59453 0.33751,-10.84662 -0.12259,-0.19489 -0.9778,-0.41765 -3.06704,-0.79792 -5.9778,-1.08808 -6.97152,-1.23136 -7.4685,-1.07634 -0.52028,0.16229 -0.3452,-0.23633 -3.84225,8.72002 -0.80928,2.07268 -1.58795,3.86901 -1.72999,3.99256 -0.21517,0.18703 -0.4316,0.17868 -1.29811,-0.0555 -7.86384,-1.94786 -5.74699,-1.45556 -7.86375,-1.94783 -2.08175,-0.51456 -5.84174,-1.43348 -8.3565,-2.04101 l -10.92006,-2.45131 c -0.98307,-0.36935 -10.53976,-1.71205 -13.82596,-1.94184 l -1.99318,-0.13938 -1.18294,-0.83455 c -1.72111,-1.2165 -2.59412,-1.7075 -4.9298,-2.77447 -1.82592,-0.8341 -4.08072,-1.46832 -5.81971,-1.75203 z"
       id="path3517"
       inkscape:connector-curvature="0" />
    <path
       style="fill:#1a1a1a"
       d="m 125.2207,1.1757812 -0.47265,0.7460938 c -0.44753,0.70894 -0.47748,0.8946813 -0.60352,3.6757812 -0.073,1.6105302 -0.13688,3.2034724 -0.14258,3.5390626 -0.01,0.5689799 -0.0595,0.6227437 -0.74218,0.8085937 -0.4026,0.1096195 -1.01661,0.4358095 -1.36329,0.7246095 -0.75147,0.62598 -1.52148,2.088522 -1.52148,2.888672 l 0,0.574218 -27.539062,-0.01172 c -1.363607,1.411203 -5.205079,5.269531 -5.205079,5.269531 l 7.828125,9.34375 -5.554687,4.292969 3.302734,3.703125 c 33.622219,0.0476 55.797959,0.065 72.839849,0.05664 l -5.68555,-6.158203 5.80859,-6.818359 -5.42969,-9.34375 4.6875,-4.6875001 c -0.33285,-0.030678 -0.77677,-0.1347657 -1.05273,-0.1347657 -0.72758,0 -0.9365,-0.062061 -1.00391,-0.3007812 -0.0468,-0.16577 -0.21624,-1.8515337 -0.37695,-3.7460938 -0.16101,-1.8981999 -0.3794,-3.5374837 -0.48633,-3.6523437 -0.44091,-0.47359 -4.4885,-0.60739 -20.80859,-0.6875 L 125.2207,1.1757812 Z"
       id="path3519"
       transform="translate(0,972.36216)"
       inkscape:connector-curvature="0" />
  </g>
  <g
     inkscape:label="Sub Destroyed 04"
     inkscape:groupmode="layer"
     id="g3521"
     transform="translate(0,-972.36216)"
     style="display:none"
     sodipodi:insensitive="true">
    <path
       inkscape:connector-curvature="0"
       id="path3523"
       d="m 90.173154,1008.9074 -3.671723,-3.3376 5.07552,-4.8501 -8.761929,-8.47428 c 0,0 3.417124,-4.23873 4.625749,-5.78474 l -19.932045,2.0871 c -35.99788,3.76845 -47.621056,5.03382 -48.576208,5.29214 -3.681545,0.99477 -7.510196,3.57267 -9.126534,6.14389 -1.433515,2.28039 -1.860399,4.14689 -1.464857,6.41089 0.277916,1.5906 0.88856,2.6519 2.359057,4.0962 2.724199,2.6754 6.44635,4.1502 12.223743,4.8445 1.920348,0.2307 2.328059,0.2137 9.21825,-0.3758 3.561804,-0.3048 31.242674,-3.275 58.030978,-6.0522 z"
       style="fill:#1a1a1a" />
    <path
       inkscape:connector-curvature="0"
       id="path3525"
       d="m 170.93432,982.10282 -5.1518,4.17185 4.42326,9.86012 -6.48948,6.17381 5.01069,6.7188 c 5.72918,0.5993 24.31944,2.6037 24.48417,2.593 7.21968,0.186 7.97157,-0.2612 16.31425,-0.7499 16.96255,-1.3523 13.51134,-0.972 16.96271,-1.3516 4.75275,-0.5212 4.45309,-0.5144 4.84196,-0.1214 0.21393,0.2161 0.62914,1.4879 1.1255,3.4549 0.4977,1.9724 0.90957,3.2382 1.12376,3.4528 0.30589,0.3063 0.84807,0.3915 5.69094,0.9005 2.94401,0.3095 5.68509,0.6406 6.0933,0.7347 0.45832,0.1065 0.91555,0.1055 1.19508,-0.01 l 0.45102,-0.1804 0.56581,-4.5242 c 0.41502,-3.3277 0.6369,-4.6396 0.84305,-4.9566 0.23384,-0.3596 0.47176,-0.4467 1.42992,-0.5253 0.9326,-0.076 1.28722,-0.2016 1.88249,-0.6643 l 0.73362,-0.5709 -0.37054,-0.3238 c -0.61185,-0.5365 -2.05039,-1.0428 -4.8993,-1.7246 l -2.70299,-0.6475 0.0697,-1.1494 0.0697,-1.1494 -1.10354,-0.3752 c -0.60753,-0.2073 -1.15789,-0.4855 -1.2234,-0.6176 -0.0656,-0.132 -0.0387,-1.01886 0.0597,-1.96936 0.46215,-4.46401 0.86556,-10.57076 0.71585,-10.82824 -0.11572,-0.19905 -0.96263,-0.45152 -3.03733,-0.90448 -5.93618,-1.29603 -6.92429,-1.4739 -7.42639,-1.33632 -0.52562,0.14403 -0.33673,-0.24823 -4.14423,8.58061 -0.88112,2.04317 -1.722,3.81124 -1.86827,3.92976 -0.22157,0.1794 -0.43757,0.1635 -1.29538,-0.1008 -7.79107,-2.22111 -5.69269,-1.65523 -7.79099,-2.22108 -2.06252,-0.58689 -5.78814,-1.63648 -8.28018,-2.33141 l -10.82785,-2.83092 c -0.96958,-0.40343 -10.47359,-2.07883 -13.74977,-2.42317 l -1.9871,-0.20885 -1.1531,-0.87533 c -1.6776,-1.27583 -2.53295,-1.797 -4.82997,-2.94483 -1.79569,-0.89732 -4.02698,-1.60984 -5.75501,-1.95406 z"
       style="fill:#1a1a1a" />
    <path
       inkscape:connector-curvature="0"
       transform="translate(0,972.36216)"
       id="path3527"
       d="m 125.2207,1.1757812 -0.47265,0.7460938 c -0.44753,0.70894 -0.47748,0.8946813 -0.60352,3.6757812 -0.073,1.6105302 -0.13688,3.2034724 -0.14258,3.5390626 -0.01,0.5689799 -0.0595,0.6227437 -0.74218,0.8085937 -0.4026,0.1096195 -1.01661,0.4358095 -1.36329,0.7246095 -0.75147,0.62598 -1.52148,2.088522 -1.52148,2.888672 l 0,0.574218 -27.539062,-0.01172 c -1.363607,1.411203 -5.205079,5.269531 -5.205079,5.269531 l 7.828125,9.34375 -5.554687,4.292969 3.302734,3.703125 c 33.622219,0.0476 55.797959,0.065 72.839849,0.05664 l -5.68555,-6.158203 5.80859,-6.818359 -5.42969,-9.34375 4.6875,-4.6875001 c -0.33285,-0.030678 -0.77677,-0.1347657 -1.05273,-0.1347657 -0.72758,0 -0.9365,-0.062061 -1.00391,-0.3007812 -0.0468,-0.16577 -0.21624,-1.8515337 -0.37695,-3.7460938 -0.16101,-1.8981999 -0.3794,-3.5374837 -0.48633,-3.6523437 -0.44091,-0.47359 -4.4885,-0.60739 -20.80859,-0.6875 L 125.2207,1.1757812 Z"
       style="fill:#1a1a1a" />
  </g>
  <g
     style="display:none"
     transform="translate(0,-972.36216)"
     id="g3529"
     inkscape:groupmode="layer"
     inkscape:label="Sub Destroyed 05"
     sodipodi:insensitive="true">
    <path
       style="fill:#1a1a1a"
       d="m 90.397186,1009.4927 -3.785967,-3.2074 4.903163,-5.0243 -9.052341,-8.16334 c 0,0 3.267113,-4.35541 4.421047,-5.94266 l -19.847064,2.78145 c -35.844434,5.02246 -47.416369,6.6927 -48.361924,6.98419 -3.644585,1.12266 -7.380936,3.83256 -8.906556,6.45866 -1.353056,2.3291 -1.714542,4.2093 -1.240227,6.4581 0.333258,1.58 0.980567,2.6192 2.500573,4.0114 2.81591,2.5786 6.587264,3.9227 12.385369,4.4149 1.92723,0.1636 2.334101,0.1324 9.199519,-0.6973 3.548998,-0.4289 31.109346,-4.3633 57.784409,-8.0737 z"
       id="path3531"
       inkscape:connector-curvature="0" />
    <path
       style="fill:#1a1a1a"
       d="m 171.52944,982.79439 -5.29425,3.98951 4.07645,10.00848 -6.701,5.94362 4.77317,6.8895 c 5.70476,0.799 24.21375,3.4509 24.37876,3.446 7.20879,0.4378 7.97582,0.017 16.33048,-0.1802 16.99941,-0.7594 13.53703,-0.4999 16.99955,-0.7587 4.76803,-0.3551 4.46832,-0.3587 4.84324,0.048 0.20626,0.2235 0.57683,1.509 1.00424,3.4921 0.42856,1.9886 0.79601,3.268 1.00257,3.4899 0.29502,0.3168 0.8339,0.4209 5.65605,1.0986 2.93142,0.412 5.65927,0.8386 6.06395,0.9469 0.45432,0.1224 0.91131,0.1374 1.1947,0.032 l 0.45703,-0.1645 0.72336,-4.5017 c 0.53091,-3.3113 0.79844,-4.6146 1.01552,-4.9242 0.24625,-0.3512 0.48706,-0.4299 1.44738,-0.4751 0.9347,-0.044 1.29347,-0.1565 1.90453,-0.5982 l 0.7531,-0.545 -0.35901,-0.3364 c -0.59276,-0.5576 -2.01275,-1.1138 -4.83613,-1.8946 l -2.67875,-0.7414 0.1098,-1.1463 0.1098,-1.1462 -1.08978,-0.4135 c -0.59992,-0.2284 -1.14024,-0.5256 -1.2011,-0.6599 -0.0609,-0.1343 -0.003,-1.0197 0.1284,-1.9662 0.61766,-4.44511 1.23395,-10.53407 1.09332,-10.79662 -0.1087,-0.20296 -0.94629,-0.48483 -3.00391,-1.00992 -5.88734,-1.50241 -6.86864,-1.71466 -7.37523,-1.59469 -0.53033,0.1256 -0.32787,-0.25983 -4.44117,8.43076 -0.95189,2.01117 -1.85396,3.74877 -2.00428,3.86217 -0.22769,0.1716 -0.44301,0.1481 -1.29107,-0.146 -7.70881,-2.49163 -5.63146,-1.85286 -7.70873,-2.49158 -2.04078,-0.65852 -5.72751,-1.8375 -8.19377,-2.61897 l -10.72246,-3.20708 c -0.95491,-0.43702 -10.39466,-2.44309 -13.65683,-2.90156 l -1.97859,-0.27807 -1.12185,-0.91504 c -1.63206,-1.3336 -2.46869,-1.8843 -4.72426,-3.1116 -1.76328,-0.95944 -3.96835,-1.7494 -5.68331,-2.15372 z"
       id="path3533"
       inkscape:connector-curvature="0" />
    <path
       style="fill:#1a1a1a"
       d="m 125.2207,1.1757812 -0.47265,0.7460938 c -0.44753,0.70894 -0.47748,0.8946813 -0.60352,3.6757812 -0.073,1.6105302 -0.13688,3.2034724 -0.14258,3.5390626 -0.01,0.5689799 -0.0595,0.6227437 -0.74218,0.8085937 -0.4026,0.1096195 -1.01661,0.4358095 -1.36329,0.7246095 -0.75147,0.62598 -1.52148,2.088522 -1.52148,2.888672 l 0,0.574218 -27.539062,-0.01172 c -1.363607,1.411203 -5.205079,5.269531 -5.205079,5.269531 l 7.828125,9.34375 -5.554687,4.292969 3.302734,3.703125 c 33.622219,0.0476 55.797959,0.065 72.839849,0.05664 l -5.68555,-6.158203 5.80859,-6.818359 -5.42969,-9.34375 4.6875,-4.6875001 c -0.33285,-0.030678 -0.77677,-0.1347657 -1.05273,-0.1347657 -0.72758,0 -0.9365,-0.062061 -1.00391,-0.3007812 -0.0468,-0.16577 -0.21624,-1.8515337 -0.37695,-3.7460938 -0.16101,-1.8981999 -0.3794,-3.5374837 -0.48633,-3.6523437 -0.44091,-0.47359 -4.4885,-0.60739 -20.80859,-0.6875 L 125.2207,1.1757812 Z"
       id="path3535"
       transform="translate(0,972.36216)"
       inkscape:connector-curvature="0" />
  </g>
  <g
     style="display:inline"
     transform="translate(0,-972.36216)"
     id="g3505"
     inkscape:groupmode="layer"
     inkscape:label="Sub Destroyed 06"
     sodipodi:insensitive="true">
    <path
       style="fill:#1a1a1a"
       d="m 90.571709,1008.071 -3.895599,-3.0733 4.724833,-5.19234 -9.331724,-7.84245 c 0,0 3.113121,-4.46678 4.210958,-6.09333 l -19.737902,3.4724 c -35.647318,6.27036 -47.153913,8.34344 -48.088718,8.66775 -3.603186,1.24917 -7.242685,4.08787 -8.675727,6.76557 -1.270949,2.3748 -1.566596,4.2665 -1.014087,6.4975 0.388194,1.5673 1.07138,2.5834 2.639044,3.9216 2.904189,2.4788 6.720151,3.6904 12.531903,3.98 1.931765,0.096 2.3373,0.051 9.169581,-1.0179 3.531868,-0.5525 30.938117,-5.4464 57.46744,-10.0855 z"
       id="path3507"
       inkscape:connector-curvature="0" />
    <path
       style="fill:#1a1a1a"
       d="m 172.16987,981.50752 -5.43027,3.80232 3.72468,10.14465 -6.90434,5.70611 4.52981,7.0519 c 5.67341,0.9976 24.07857,4.2939 24.24365,4.2947 7.18912,0.6891 7.97037,0.2954 16.32682,0.3899 17.01556,-0.1657 13.54623,-0.027 17.01567,-0.165 4.77753,-0.1885 4.47812,-0.2025 4.83864,0.2166 0.19833,0.2305 0.52381,1.5282 0.88175,3.525 0.3589,2.0023 0.68147,3.2938 0.88017,3.5228 0.28377,0.3269 0.81869,0.4497 5.61425,1.2953 2.91526,0.5141 5.62657,1.0355 6.02721,1.158 0.44978,0.1382 0.90596,0.1691 1.19286,0.073 l 0.46251,-0.1485 0.88002,-4.4738 c 0.64614,-3.2907 0.959,-4.5839 1.18675,-4.8857 0.25836,-0.3424 0.50177,-0.4127 1.46308,-0.4243 0.93566,-0.011 1.29815,-0.1113 1.92424,-0.5313 l 0.77167,-0.5184 -0.34705,-0.3488 c -0.57294,-0.5779 -1.97266,-1.1834 -4.76706,-2.0622 l -2.65125,-0.8344 0.14974,-1.1418 0.14973,-1.1417 -1.07468,-0.4513 c -0.59158,-0.2492 -1.1212,-0.5651 -1.17734,-0.7014 -0.0562,-0.1363 0.0324,-1.0191 0.19694,-1.9605 0.77242,-4.42084 1.60083,-10.48458 1.46945,-10.75188 -0.10155,-0.20663 -0.92879,-0.51756 -2.96684,-1.11414 -5.83132,-1.70696 -6.80461,-1.95333 -7.31508,-1.85111 -0.53439,0.10701 -0.3186,-0.27111 -4.73268,8.27063 -1.02151,1.97672 -1.98367,3.6818 -2.13786,3.7898 -0.23354,0.1636 -0.4479,0.1326 -1.28519,-0.1909 -7.61715,-2.75914 -5.56335,-2.04826 -7.61707,-2.7591 -2.01656,-0.72934 -5.65989,-2.03626 -8.09738,-2.90333 l -10.604,-3.57933 c -0.93908,-0.47008 -10.30307,-2.80437 -13.54725,-3.37641 l -1.96768,-0.34696 -1.08924,-0.95363 c -1.58451,-1.38974 -2.40142,-1.96931 -4.61278,-3.27457 -1.72872,-1.0204 -3.90488,-1.88683 -5.60468,-2.35076 z"
       id="path3509"
       inkscape:connector-curvature="0" />
    <path
       style="fill:#1a1a1a"
       d="m 125.2207,1.1757812 -0.47265,0.7460938 c -0.44753,0.70894 -0.47748,0.8946813 -0.60352,3.6757812 -0.073,1.6105302 -0.13688,3.2034724 -0.14258,3.5390626 -0.01,0.5689799 -0.0595,0.6227437 -0.74218,0.8085937 -0.4026,0.1096195 -1.01661,0.4358095 -1.36329,0.7246095 -0.75147,0.62598 -1.52148,2.088522 -1.52148,2.888672 l 0,0.574218 -27.539062,-0.01172 c -1.363607,1.411203 -5.205079,5.269531 -5.205079,5.269531 l 7.828125,9.34375 -5.554687,4.292969 3.302734,3.703125 c 33.622219,0.0476 55.797959,0.065 72.839849,0.05664 l -5.68555,-6.158203 5.80859,-6.818359 -5.42969,-9.34375 4.6875,-4.6875001 c -0.33285,-0.030678 -0.77677,-0.1347657 -1.05273,-0.1347657 -0.72758,0 -0.9365,-0.062061 -1.00391,-0.3007812 -0.0468,-0.16577 -0.21624,-1.8515337 -0.37695,-3.7460938 -0.16101,-1.8981999 -0.3794,-3.5374837 -0.48633,-3.6523437 -0.44091,-0.47359 -4.4885,-0.60739 -20.80859,-0.6875 L 125.2207,1.1757812 Z"
       id="path3511"
       transform="translate(0,972.36216)"
       inkscape:connector-curvature="0" />
  </g>
  <g
     inkscape:label="Sub Destroyed 07"
     inkscape:groupmode="layer"
     id="g3537"
     transform="translate(0,-972.36216)"
     style="display:none"
     sodipodi:insensitive="true">
    <path
       inkscape:connector-curvature="0"
       id="path3539"
       d="m 90.69651,1008.6441 -4.000484,-2.9355 4.540745,-5.354 -9.599736,-7.51204 c 0,0 2.955336,-4.5727 3.995738,-6.23658 l -19.604693,4.15913 c -35.40677,7.51061 -46.834006,9.98399 -47.756924,10.34069 -3.557395,1.3742 -7.095608,4.3382 -8.434327,7.0643 -1.187294,2.4177 -1.416741,4.3186 -0.786711,6.5289 0.442657,1.5528 1.160887,2.5444 2.774299,3.8271 2.988931,2.376 6.844851,3.4536 12.66317,3.5402 1.933946,0.029 2.33765,-0.031 9.128471,-1.3373 3.510434,-0.6754 30.729193,-6.5227 57.080454,-12.0849 z"
       style="fill:#1a1a1a" />
    <path
       inkscape:connector-curvature="0"
       id="path3541"
       d="m 172.85481,982.24379 -5.55965,3.61048 3.36836,10.26847 -7.09928,5.46166 4.28095,7.2057 c 5.63514,1.195 23.91405,5.1316 24.079,5.1382 7.16069,0.9396 7.9552,0.5734 16.30327,0.9594 17.01097,0.4282 13.53892,0.4456 17.01106,0.429 4.78119,-0.022 4.48246,-0.046 4.82813,0.3853 0.19016,0.2373 0.47016,1.5456 0.75819,3.5536 0.2888,2.0137 0.56611,3.3156 0.75669,3.5514 0.2722,0.3366 0.8025,0.478 5.56563,1.4905 2.89554,0.6154 5.587,1.2312 5.98313,1.3676 0.44467,0.1538 0.8995,0.2006 1.18957,0.115 l 0.4674,-0.1322 1.03562,-4.4403 c 0.76059,-3.2662 1.11839,-4.5477 1.35654,-4.8414 0.27014,-0.3332 0.51587,-0.3949 1.47699,-0.3729 0.93548,0.022 1.30124,-0.066 1.94161,-0.4639 l 0.78929,-0.4911 -0.33467,-0.3607 c -0.55242,-0.5976 -1.93015,-1.2515 -4.69218,-2.2274 l -2.62051,-0.9264 0.18949,-1.1358 0.18949,-1.1358 -1.05828,-0.4885 c -0.58252,-0.2697 -1.1008,-0.6039 -1.15214,-0.7421 -0.0514,-0.1382 0.068,-1.0174 0.26524,-1.9524 0.92623,-4.3912 1.96576,-10.42235 1.84379,-10.69407 -0.0943,-0.21005 -0.91016,-0.54966 -2.92615,-1.217 -5.76819,-1.90943 -6.7323,-2.18962 -7.24602,-2.10527 -0.5378,0.0883 -0.30895,-0.28207 -5.01845,8.10044 -1.08987,1.9399 -2.11095,3.6103 -2.26881,3.7129 -0.2391,0.1553 -0.45226,0.1169 -1.27775,-0.2356 -7.51622,-3.0234 -5.48848,-2.2412 -7.51613,-3.0233 -1.98988,-0.7993 -5.58539,-2.23257 -7.99113,-3.18418 l -10.47262,-3.94723 c -0.9221,-0.50257 -10.19892,-3.16223 -13.42116,-3.84714 l -1.95438,-0.41542 -1.05529,-0.99106 c -1.53505,-1.4442 -2.33123,-2.05192 -4.49569,-3.43357 -1.69206,-1.0801 -3.83665,-2.02195 -5.51923,-2.54492 z"
       style="fill:#1a1a1a" />
    <path
       inkscape:connector-curvature="0"
       transform="translate(0,972.36216)"
       id="path3543"
       d="m 125.2207,1.1757812 -0.47265,0.7460938 c -0.44753,0.70894 -0.47748,0.8946813 -0.60352,3.6757812 -0.073,1.6105302 -0.13688,3.2034724 -0.14258,3.5390626 -0.01,0.5689799 -0.0595,0.6227437 -0.74218,0.8085937 -0.4026,0.1096195 -1.01661,0.4358095 -1.36329,0.7246095 -0.75147,0.62598 -1.52148,2.088522 -1.52148,2.888672 l 0,0.574218 -27.539062,-0.01172 c -1.363607,1.411203 -5.205079,5.269531 -5.205079,5.269531 l 7.828125,9.34375 -5.554687,4.292969 3.302734,3.703125 c 33.622219,0.0476 55.797959,0.065 72.839849,0.05664 l -5.68555,-6.158203 5.80859,-6.818359 -5.42969,-9.34375 4.6875,-4.6875001 c -0.33285,-0.030678 -0.77677,-0.1347657 -1.05273,-0.1347657 -0.72758,0 -0.9365,-0.062061 -1.00391,-0.3007812 -0.0468,-0.16577 -0.21624,-1.8515337 -0.37695,-3.7460938 -0.16101,-1.8981999 -0.3794,-3.5374837 -0.48633,-3.6523437 -0.44091,-0.47359 -4.4885,-0.60739 -20.80859,-0.6875 L 125.2207,1.1757812 Z"
       style="fill:#1a1a1a" />
  </g>
  <g
     style="display:none"
     transform="translate(0,-972.36216)"
     id="g3545"
     inkscape:groupmode="layer"
     inkscape:label="Sub Destroyed 08"
     sodipodi:insensitive="true">
    <path
       style="fill:#1a1a1a"
       d="m 88.771437,1009.2137 -4.100495,-2.7941 4.351126,-5.5092 -9.856054,-7.17243 c 0,0 2.79395,-4.67305 3.775651,-6.37222 l -19.4476,4.84079 c -35.123084,8.74176 -46.457039,11.61236 -47.366944,12.00116 -3.507271,1.4974 -6.939888,4.5831 -8.182652,7.3542 -1.102192,2.4578 -1.26516,4.3655 -0.558377,6.5524 0.496582,1.5365 1.248981,2.5024 2.906175,3.728 3.07003,2.2702 6.961212,3.2127 12.779008,3.0961 1.933771,-0.039 2.335153,-0.1123 9.076239,-1.655 3.484725,-0.7975 30.482832,-7.5913 56.623925,-14.0696 z"
       id="path3547"
       inkscape:connector-curvature="0" />
    <path
       style="fill:#1a1a1a"
       d="m 175.58344,983.00474 -5.68227,3.41425 3.00795,10.37976 -7.28556,5.21065 4.02686,7.3507 c 5.59,1.3908 23.72039,5.963 23.88501,5.9753 7.12354,1.189 7.93035,0.8507 16.25985,1.5278 16.98567,1.0217 13.51512,0.9179 16.98573,1.0224 4.77903,0.1453 4.48134,0.1104 4.81174,0.5536 0.18177,0.2438 0.41594,1.5611 0.63371,3.5779 0.21835,2.0225 0.45005,3.3333 0.63229,3.5756 0.26028,0.346 0.78533,0.5058 5.51022,1.6839 2.8723,0.7161 5.54062,1.4255 5.93175,1.5755 0.43904,0.1693 0.89196,0.2319 1.18483,0.1566 l 0.47174,-0.1159 1.18996,-4.4015 c 0.87411,-3.2376 1.27641,-4.5058 1.52466,-4.791 0.28162,-0.3236 0.52934,-0.3767 1.48911,-0.3212 0.93416,0.054 1.30275,-0.02 1.95662,-0.3958 l 0.80595,-0.4633 -0.32187,-0.3722 c -0.53123,-0.6164 -1.88531,-1.318 -4.61159,-2.3897 l -2.58659,-1.0173 0.22901,-1.1285 0.22902,-1.1285 -1.04059,-0.5252 c -0.57275,-0.2899 -1.07905,-0.6419 -1.12554,-0.7818 -0.0465,-0.1399 0.10345,-1.0144 0.33321,-1.942 1.07892,-4.3562 2.3283,-10.34737 2.21589,-10.62318 -0.0869,-0.21321 -0.89042,-0.58109 -2.88189,-1.31838 -5.69804,-2.10958 -6.65178,-2.42324 -7.16813,-2.35688 -0.54056,0.0695 -0.29892,-0.29268 -5.29809,7.92034 -1.15691,1.9007 -2.23567,3.5345 -2.39701,3.6315 -0.24438,0.1468 -0.45607,0.101 -1.26875,-0.2801 -7.40613,-3.2838 -5.40692,-2.4314 -7.40605,-3.2838 -1.96077,-0.8682 -5.50406,-2.4261 -7.87513,-3.46105 L 201.621,995.15293 c -0.904,-0.53444 -10.08234,-3.51624 -13.27872,-4.31319 l -1.93869,-0.48337 -1.02005,-1.02729 c -1.48372,-1.49689 -2.25821,-2.13203 -4.37313,-3.58837 -1.65333,-1.1385 -3.76375,-2.15462 -5.42705,-2.73599 z"
       id="path3549"
       inkscape:connector-curvature="0" />
    <path
       style="fill:#1a1a1a"
       d="m 125.2207,1.1757812 -0.47265,0.7460938 c -0.44753,0.70894 -0.47748,0.8946813 -0.60352,3.6757812 -0.073,1.6105302 -0.13688,3.2034724 -0.14258,3.5390626 -0.01,0.5689799 -0.0595,0.6227437 -0.74218,0.8085937 -0.4026,0.1096195 -1.01661,0.4358095 -1.36329,0.7246095 -0.75147,0.62598 -1.52148,2.088522 -1.52148,2.888672 l 0,0.574218 -27.539062,-0.01172 c -1.363607,1.411203 -5.205079,5.269531 -5.205079,5.269531 l 7.828125,9.34375 -5.554687,4.292969 3.302734,3.703125 c 33.622219,0.0476 55.797959,0.065 72.839849,0.05664 l -5.68555,-6.158203 5.80859,-6.818359 -5.42969,-9.34375 4.6875,-4.6875001 c -0.33285,-0.030678 -0.77677,-0.1347657 -1.05273,-0.1347657 -0.72758,0 -0.9365,-0.062061 -1.00391,-0.3007812 -0.0468,-0.16577 -0.21624,-1.8515337 -0.37695,-3.7460938 -0.16101,-1.8981999 -0.3794,-3.5374837 -0.48633,-3.6523437 -0.44091,-0.47359 -4.4885,-0.60739 -20.80859,-0.6875 L 125.2207,1.1757812 Z"
       id="path3551"
       transform="translate(0,972.36216)"
       inkscape:connector-curvature="0" />
  </g>
  <g
     inkscape:label="Sub Destroyed 09"
     inkscape:groupmode="layer"
     id="g3553"
     transform="translate(0,-972.36216)"
     style="display:none"
     sodipodi:insensitive="true">
    <path
       inkscape:connector-curvature="0"
       id="path3555"
       d="m 88.796399,1007.7816 -4.195511,-2.6493 4.156205,-5.65774 -10.100363,-6.82406 c 0,0 2.629161,-4.76772 3.550963,-6.50011 l -19.266811,5.51655 c -34.796607,9.96216 -46.023471,13.22666 -46.919256,13.64696 -3.452874,1.6189 -6.775712,4.8225 -7.921007,7.6353 -1.015747,2.4947 -1.112038,4.4069 -0.329362,6.5679 0.549901,1.5182 1.335552,2.4572 3.034509,3.6243 3.14739,2.1617 7.069092,2.9677 12.879278,2.6482 1.93124,-0.1062 2.32981,-0.1937 9.012949,-1.9708 3.454768,-0.9186 30.199332,-8.6504 56.098408,-16.0372 z"
       style="fill:#1a1a1a" />
    <path
       inkscape:connector-curvature="0"
       id="path3557"
       d="m 176.35487,981.79186 -5.79797,3.21387 2.64387,10.47841 -7.46297,4.95316 3.76787,7.4868 c 5.53806,1.5851 23.49784,6.7872 23.66193,6.8053 7.0777,1.4368 7.89582,1.1269 16.19663,2.0943 16.93966,1.6138 13.47485,1.389 16.9397,1.6146 4.77105,0.312 4.47475,0.2667 4.78949,0.7211 0.17314,0.25 0.3612,1.5747 0.50845,3.5979 0.14763,2.0289 0.33345,3.347 0.50712,3.5955 0.24805,0.3548 0.7672,0.5329 5.4481,1.8751 2.84555,0.816 5.4875,1.618 5.87315,1.7816 0.43287,0.1845 0.88333,0.2629 1.17865,0.1978 l 0.47549,-0.099 1.34284,-4.3573 c 0.98657,-3.2051 1.43289,-4.4585 1.69094,-4.7349 0.29274,-0.3135 0.54216,-0.358 1.49941,-0.269 0.9317,0.087 1.30267,0.025 1.96925,-0.3273 l 0.82162,-0.4349 -0.30869,-0.3831 c -0.50939,-0.6347 -1.83815,-1.3831 -4.52538,-2.5493 l -2.54951,-1.1069 0.26826,-1.1199 0.26826,-1.1198 -1.02162,-0.5611 c -0.56229,-0.3097 -1.056,-0.6792 -1.09757,-0.8207 -0.0416,-0.1414 0.13878,-1.0101 0.40078,-1.9291 1.23029,-4.3159 2.688,-10.2599 2.58528,-10.53942 -0.0794,-0.21612 -0.8696,-0.61182 -2.83412,-1.41816 -5.62095,-2.30715 -6.56316,-2.65391 -7.08152,-2.6056 -0.54265,0.0506 -0.28851,-0.30294 -5.57127,7.73058 -1.22254,1.8592 -2.35766,3.4543 -2.52229,3.5457 -0.24936,0.1382 -0.45931,0.085 -1.2582,-0.3242 -7.28701,-3.5403 -5.31877,-2.6187 -7.28693,-3.5403 -1.92928,-0.9361 -5.41605,-2.6167 -7.74955,-3.7338 l -10.17177,-4.66815 c -0.88479,-0.56566 -9.95348,-3.86597 -13.1201,-4.77398 l -1.92064,-0.55073 -0.98358,-1.06227 c -1.43057,-1.54775 -2.18242,-2.20954 -4.24523,-3.7388 -1.61259,-1.19551 -3.68626,-2.28466 -5.32826,-2.92373 z"
       style="fill:#1a1a1a" />
    <path
       inkscape:connector-curvature="0"
       transform="translate(0,972.36216)"
       id="path3559"
       d="m 125.2207,1.1757812 -0.47265,0.7460938 c -0.44753,0.70894 -0.47748,0.8946813 -0.60352,3.6757812 -0.073,1.6105302 -0.13688,3.2034724 -0.14258,3.5390626 -0.01,0.5689799 -0.0595,0.6227437 -0.74218,0.8085937 -0.4026,0.1096195 -1.01661,0.4358095 -1.36329,0.7246095 -0.75147,0.62598 -1.52148,2.088522 -1.52148,2.888672 l 0,0.574218 -27.539062,-0.01172 c -1.363607,1.411203 -5.205079,5.269531 -5.205079,5.269531 l 7.828125,9.34375 -5.554687,4.292969 3.302734,3.703125 c 33.622219,0.0476 55.797959,0.065 72.839849,0.05664 l -5.68555,-6.158203 5.80859,-6.818359 -5.42969,-9.34375 4.6875,-4.6875001 c -0.33285,-0.030678 -0.77677,-0.1347657 -1.05273,-0.1347657 -0.72758,0 -0.9365,-0.062061 -1.00391,-0.3007812 -0.0468,-0.16577 -0.21624,-1.8515337 -0.37695,-3.7460938 -0.16101,-1.8981999 -0.3794,-3.5374837 -0.48633,-3.6523437 -0.44091,-0.47359 -4.4885,-0.60739 -20.80859,-0.6875 L 125.2207,1.1757812 Z"
       style="fill:#1a1a1a" />
  </g>
  <g
     style="display:none"
     transform="translate(0,-972.36216)"
     id="g3561"
     inkscape:groupmode="layer"
     inkscape:label="Sub Destroyed 10"
     sodipodi:insensitive="true">
    <path
       style="fill:#1a1a1a"
       d="m 86.771365,1008.3495 -4.285415,-2.5013 3.956221,-5.7993 -10.332367,-6.46744 c 0,0 2.461169,-4.85657 3.32195,-6.62008 l -19.062549,6.1856 C 25.941469,1004.3175 14.835373,1007.9718 13.9548,1008.423 c -3.394269,1.7385 -6.60328,5.0561 -7.649712,7.9072 -0.928063,2.5286 -0.95756,4.443 -0.09995,6.5753 0.60255,1.4981 1.420497,2.4092 3.159147,3.5162 3.220915,2.0506 7.168359,2.7193 12.963856,2.1972 1.926356,-0.1736 2.32163,-0.2749 8.938678,-2.2842 3.420604,-1.0386 29.879038,-9.6991 55.504545,-17.9852 z"
       id="path3563"
       inkscape:connector-curvature="0" />
    <path
       style="fill:#1a1a1a"
       d="m 179.16816,982.60665 -5.9066,3.00956 2.27657,10.5643 -7.63129,4.68969 3.50429,7.6137 c 5.47937,1.7774 23.24665,7.6032 23.41001,7.6269 7.02325,1.683 7.85169,1.4019 16.11367,2.6584 16.87302,2.204 13.41817,1.8584 16.87303,2.2048 4.75726,0.4782 4.46273,0.4226 4.76141,0.8878 0.16431,0.2559 0.30603,1.5863 0.38258,3.6134 0.0767,2.0329 0.21644,3.3566 0.38133,3.611 0.23552,0.3633 0.74813,0.5594 5.37934,2.0641 2.81534,0.9148 5.42769,1.8086 5.8074,1.9855 0.42616,0.1995 0.87361,0.2936 1.17102,0.2388 l 0.47867,-0.083 1.49409,-4.3077 c 1.09783,-3.1687 1.58761,-4.4058 1.85516,-4.673 0.3035,-0.3031 0.55432,-0.3388 1.50789,-0.2165 0.92809,0.1192 1.301,0.07 1.97946,-0.2584 l 0.8363,-0.406 -0.29513,-0.3936 c -0.48693,-0.6521 -1.78876,-1.4464 -4.43366,-2.7057 l -2.50932,-1.1952 0.30718,-1.1098 0.30718,-1.1098 -1.00142,-0.5964 c -0.55114,-0.3292 -1.03165,-0.7156 -1.06826,-0.8585 -0.0367,-0.1428 0.17395,-1.0047 0.46786,-1.9139 1.38017,-4.2704 3.04443,-10.1598 2.95153,-10.4428 -0.0718,-0.2188 -0.84772,-0.6418 -2.78291,-1.5162 -5.537,-2.50193 -6.46654,-2.88136 -6.98626,-2.85117 -0.54408,0.0316 -0.27777,-0.31282 -5.83768,7.53147 -1.28667,1.8153 -2.47678,3.3699 -2.64449,3.4554 -0.25403,0.1295 -0.462,0.069 -1.24612,-0.3679 -7.15902,-3.7924 -5.22414,-2.8026 -7.15894,-3.7924 -1.89543,-1.0029 -5.32142,-2.8041 -7.61451,-4.002 l -10.00266,-5.02026 c -0.86452,-0.5962 -9.8125,-4.21099 -12.9455,-5.22896 l -1.90025,-0.61743 -0.94591,-1.09594 c -1.37568,-1.59674 -2.10398,-2.28436 -4.11216,-3.88469 -1.56989,-1.25105 -3.60429,-2.41191 -5.22298,-3.10789 z"
       id="path3565"
       inkscape:connector-curvature="0" />
    <path
       style="fill:#1a1a1a"
       d="m 125.2207,1.1757812 -0.47265,0.7460938 c -0.44753,0.70894 -0.47748,0.8946813 -0.60352,3.6757812 -0.073,1.6105302 -0.13688,3.2034724 -0.14258,3.5390626 -0.01,0.5689799 -0.0595,0.6227437 -0.74218,0.8085937 -0.4026,0.1096195 -1.01661,0.4358095 -1.36329,0.7246095 -0.75147,0.62598 -1.52148,2.088522 -1.52148,2.888672 l 0,0.574218 -27.539062,-0.01172 c -1.363607,1.411203 -5.205079,5.269531 -5.205079,5.269531 l 7.828125,9.34375 -5.554687,4.292969 3.302734,3.703125 c 33.622219,0.0476 55.797959,0.065 72.839849,0.05664 l -5.68555,-6.158203 5.80859,-6.818359 -5.42969,-9.34375 4.6875,-4.6875001 c -0.33285,-0.030678 -0.77677,-0.1347657 -1.05273,-0.1347657 -0.72758,0 -0.9365,-0.062061 -1.00391,-0.3007812 -0.0468,-0.16577 -0.21624,-1.8515337 -0.37695,-3.7460938 -0.16101,-1.8981999 -0.3794,-3.5374837 -0.48633,-3.6523437 -0.44091,-0.47359 -4.4885,-0.60739 -20.80859,-0.6875 L 125.2207,1.1757812 Z"
       id="path3567"
       transform="translate(0,972.36216)"
       inkscape:connector-curvature="0" />
  </g>
  <g
     style="display:none"
     transform="translate(0,-972.36216)"
     id="g3497"
     inkscape:groupmode="layer"
     inkscape:label="Sub Destroyed 11"
     sodipodi:insensitive="true">
    <path
       style="fill:#1a1a1a"
       d="m 86.696367,1006.9191 -4.370099,-2.3502 3.751417,-5.93386 -10.551782,-6.10288 c 0,0 2.290178,-4.9395 3.088889,-6.73198 l -18.835063,6.84711 c -34.01692,12.36521 -44.988716,16.40491 -45.853004,16.88661 -3.33153,1.8558 -6.422804,5.2834 -7.369096,8.1693 -0.839251,2.5594 -0.801917,4.4737 0.129592,6.5748 0.654464,1.4761 1.503709,2.3581 3.279934,3.4038 3.290516,1.9369 7.258893,2.4674 13.03264,1.7434 1.919124,-0.2407 2.31062,-0.3558 8.853517,-2.5947 3.382271,-1.1574 29.522342,-10.736 54.843057,-19.9114 z"
       id="path3499"
       inkscape:connector-curvature="0" />
    <path
       style="fill:#1a1a1a"
       d="m 180.02231,981.45054 -6.00803,2.80159 1.90649,10.63732 -7.7903,4.42055 3.23644,7.7314 c 5.414,1.9675 22.96714,8.4098 23.12957,8.4392 6.96023,1.9271 7.79798,1.675 16.01108,3.2191 16.78583,2.7915 13.34514,2.3255 16.78581,2.7923 4.73767,0.644 4.44525,0.5782 4.72752,1.0535 0.15528,0.2614 0.25048,1.5959 0.25624,3.6245 0.006,2.0343 0.0992,3.3621 0.25508,3.6221 0.22269,0.3713 0.72815,0.5851 5.30402,2.2506 2.78171,1.0125 5.36127,1.9969 5.73457,2.187 0.41894,0.2142 0.86283,0.3238 1.16198,0.2795 l 0.48126,-0.066 1.64352,-4.253 c 1.20774,-3.1285 1.7404,-4.3477 2.01711,-4.6054 0.31389,-0.2924 0.56581,-0.3193 1.51452,-0.1638 0.92338,0.1516 1.29776,0.1159 1.98728,-0.1891 l 0.84996,-0.3765 -0.28121,-0.4038 c -0.46388,-0.6686 -1.7372,-1.5079 -4.33653,-2.8587 l -2.46608,-1.2821 0.34572,-1.0984 0.34572,-1.0984 -0.97999,-0.631 c -0.53932,-0.3481 -1.00604,-0.7512 -1.03765,-0.8952 -0.0317,-0.144 0.20891,-0.998 0.53437,-1.8965 1.52836,-4.2196 3.39715,-10.0473 3.31418,-10.3334 -0.0641,-0.2211 -0.8248,-0.671 -2.72829,-1.6124 -5.44632,-2.6936 -6.36205,-3.1052 -6.88251,-3.0932 -0.54486,0.013 -0.26668,-0.3223 -6.09697,7.3231 -1.34924,1.7694 -2.59287,3.2815 -2.76347,3.3611 -0.25839,0.1205 -0.46413,0.053 -1.23252,-0.4112 -7.02231,-4.04 -5.12315,-2.9832 -7.02223,-4.0399 -1.85927,-1.0684 -5.22031,-2.9882 -7.47021,-4.2653 l -9.82135,-5.36635 c -0.84319,-0.626 -9.65957,-4.55087 -12.75513,-5.67756 l -1.87754,-0.68337 -0.90709,-1.12829 c -1.31912,-1.64377 -2.02298,-2.35639 -3.97408,-4.02583 -1.52527,-1.30508 -3.51791,-2.53624 -5.11133,-3.28828 z"
       id="path3501"
       inkscape:connector-curvature="0" />
    <path
       style="fill:#1a1a1a"
       d="m 125.2207,1.1757812 -0.47265,0.7460938 c -0.44753,0.70894 -0.47748,0.8946813 -0.60352,3.6757812 -0.073,1.6105302 -0.13688,3.2034724 -0.14258,3.5390626 -0.01,0.5689799 -0.0595,0.6227437 -0.74218,0.8085937 -0.4026,0.1096195 -1.01661,0.4358095 -1.36329,0.7246095 -0.75147,0.62598 -1.52148,2.088522 -1.52148,2.888672 l 0,0.574218 -27.539062,-0.01172 c -1.363607,1.411203 -5.205079,5.269531 -5.205079,5.269531 l 7.828125,9.34375 -5.554687,4.292969 3.302734,3.703125 c 33.622219,0.0476 55.797959,0.065 72.839849,0.05664 l -5.68555,-6.158203 5.80859,-6.818359 -5.42969,-9.34375 4.6875,-4.6875001 c -0.33285,-0.030678 -0.77677,-0.1347657 -1.05273,-0.1347657 -0.72758,0 -0.9365,-0.062061 -1.00391,-0.3007812 -0.0468,-0.16577 -0.21624,-1.8515337 -0.37695,-3.7460938 -0.16101,-1.8981999 -0.3794,-3.5374837 -0.48633,-3.6523437 -0.44091,-0.47359 -4.4885,-0.60739 -20.80859,-0.6875 L 125.2207,1.1757812 Z"
       id="path3503"
       transform="translate(0,972.36216)"
       inkscape:connector-curvature="0" />
  </g>
</svg>
