<?xml version="1.0" encoding="UTF-8" standalone="no"?>
<!-- Created with Inkscape (http://www.inkscape.org/) -->

<svg
   xmlns:dc="http://purl.org/dc/elements/1.1/"
   xmlns:cc="http://creativecommons.org/ns#"
   xmlns:rdf="http://www.w3.org/1999/02/22-rdf-syntax-ns#"
   xmlns:svg="http://www.w3.org/2000/svg"
   xmlns="http://www.w3.org/2000/svg"
   xmlns:sodipodi="http://sodipodi.sourceforge.net/DTD/sodipodi-0.dtd"
   xmlns:inkscape="http://www.inkscape.org/namespaces/inkscape"
   width="210mm"
   height="297mm"
   viewBox="0 0 744.09448819 1052.3622047"
   id="svg4828"
   version="1.1"
   inkscape:version="0.91 r13725"
   sodipodi:docname="sub.svg">
  <defs
     id="defs4830" />
  <sodipodi:namedview
     id="base"
     pagecolor="#ffffff"
     bordercolor="#666666"
     borderopacity="1.0"
     inkscape:pageopacity="0.0"
     inkscape:pageshadow="2"
     inkscape:zoom="2.8"
     inkscape:cx="302.79968"
     inkscape:cy="480.71718"
     inkscape:document-units="px"
     inkscape:current-layer="layer1"
     showgrid="false"
     inkscape:snap-object-midpoints="true"
     inkscape:window-width="3004"
     inkscape:window-height="1647"
     inkscape:window-x="4"
     inkscape:window-y="0"
     inkscape:window-maximized="1" />
  <metadata
     id="metadata4833">
    <rdf:RDF>
      <cc:Work
         rdf:about="">
        <dc:format>image/svg+xml</dc:format>
        <dc:type
           rdf:resource="http://purl.org/dc/dcmitype/StillImage" />
        <dc:title></dc:title>
      </cc:Work>
    </rdf:RDF>
  </metadata>
  <g
     inkscape:label="Layer 1"
     inkscape:groupmode="layer"
     id="layer1">
    <path
       style="fill:#555555;fill-opacity:1"
       d="m 629.2827,629.69271 c -0.78698,-1.42794 -11.90939,-22.24256 -12.10182,-22.6475 -0.0127,-0.0267 -1.59312,0.28895 -3.51205,0.70149 -13.46414,2.89458 -30.79908,5.14662 -48.52821,6.30446 -27.40071,1.78947 -31.23609,1.82091 -242.23159,1.98522 -217.25668,0.1692 -207.34955,0.25051 -218.8308,-1.79603 -11.434922,-2.03828 -20.689944,-5.67732 -27.391534,-10.77024 -6.981108,-5.30535 -10.429388,-11.17902 -10.441592,-17.78583 -0.0097,-5.25465 2.128078,-9.94013 6.548763,-14.35323 7.043376,-7.03129 17.355411,-11.71975 31.209323,-14.18961 34.31714,-4.51632 72.35758,-1.7108 101.37687,-1.66756 49.72668,-0.0743 61.21312,-0.16895 62.24772,-0.5132 2.79442,-0.9298 4.15384,-2.66351 4.88316,-6.22764 0.21419,-1.04669 0.66434,-2.90218 1.00034,-4.12331 0.33601,-1.22114 0.95473,-3.64755 1.37494,-5.39203 0.42021,-1.74447 1.07191,-3.98557 1.44821,-4.98021 0.89788,-2.37322 3.03057,-4.71982 5.16055,-5.67814 4.42129,-1.08992 8.90776,-0.99244 12.95305,-1.23582 0.83803,-0.0508 2.5187,0 2.5187,0 l 3.48896,0 2.22024,0 c 3.92846,-0.0965 3.96039,-0.007 5.83616,0 l 1.39566,0 0.38204,-1.59251 c 0.222,-0.92541 0.62512,-1.7226 0.96232,-1.90306 0.31915,-0.17081 1.70904,-0.31056 3.08863,-0.31056 l 2.50835,0 0.20754,-5.47132 c 0.11415,-3.00922 0.20798,-9.0586 0.20851,-13.44306 9.6e-4,-7.76204 -0.0161,-7.97621 -0.64719,-8.14125 -0.59375,-0.15527 -0.64035,-0.37807 -0.55506,-2.65371 l 0.0931,-2.48421 1.90307,0 1.90307,0 0.0927,2.46293 c 0.0748,1.98556 -0.002,2.49931 -0.39647,2.65065 -0.4229,0.16228 -0.48907,1.26852 -0.48823,8.16253 6.4e-4,4.38614 0.0944,10.4369 0.20852,13.44612 l 0.20754,5.47132 1.37737,0 1.37738,0 0,-16.65184 0,-16.65184 2.37884,0 2.37883,0 0,16.65184 0,16.65184 3.6684,0 c 2.01761,0 3.92952,0.13975 4.24867,0.31056 0.3372,0.18046 0.74032,0.97765 0.96232,1.90306 0.32709,1.36347 0.49153,1.59251 1.14335,1.59251 8.19131,0.33306 8.36967,0.27687 10.43537,0.48708 2.59145,0.26204 5.37159,0.99726 7.11386,1.88129 2.99052,1.5174 5.84027,4.02219 15.57065,13.68581 l 9.9974,9.9288 76.275,0.11803 c 52.65223,0.95365 108.46557,-0.2702 156.99673,10.51324 1.8317,0.41847 3.36815,0.6655 3.41433,0.54894 0.0462,-0.11656 2.99295,-5.63567 6.54836,-12.26468 l 6.46437,-12.05276 11.13434,-0.0833 11.1343,-0.0834 0,18.20725 0,18.20726 c 0.31718,18.81145 0,0 0.31718,18.81145 l 0,18.22328 0,18.22328 -11.07392,0 -11.07394,0 -1.09256,-1.98236 z"
       id="path5602"
       inkscape:connector-curvature="0"
       sodipodi:nodetypes="ccsssssssccssssscccccccscscssssccccccscccccccccscsccssccccscccccccccccc" />
  </g>
</svg>
