<?xml version="1.0" encoding="UTF-8" standalone="no"?>
<!-- Created with Inkscape (http://www.inkscape.org/) -->

<svg
   xmlns:dc="http://purl.org/dc/elements/1.1/"
   xmlns:cc="http://creativecommons.org/ns#"
   xmlns:rdf="http://www.w3.org/1999/02/22-rdf-syntax-ns#"
   xmlns:svg="http://www.w3.org/2000/svg"
   xmlns="http://www.w3.org/2000/svg"
   xmlns:sodipodi="http://sodipodi.sourceforge.net/DTD/sodipodi-0.dtd"
   xmlns:inkscape="http://www.inkscape.org/namespaces/inkscape"
   width="210mm"
   height="297mm"
   viewBox="0 0 744.09448819 1052.3622047"
   id="svg3483"
   version="1.1"
   inkscape:version="0.91 r13725"
   sodipodi:docname="torpedo.svg"
   inkscape:export-filename="/Users/kyle/Desktop/torpedo.png"
   inkscape:export-xdpi="18.907562"
   inkscape:export-ydpi="18.907562">
  <defs
     id="defs3485" />
  <sodipodi:namedview
     id="base"
     pagecolor="#ffffff"
     bordercolor="#666666"
     borderopacity="1.0"
     inkscape:pageopacity="0.0"
     inkscape:pageshadow="2"
     inkscape:zoom="1.979899"
     inkscape:cx="424.5928"
     inkscape:cy="668.98617"
     inkscape:document-units="px"
     inkscape:current-layer="layer1"
     showgrid="false"
     showguides="true"
     inkscape:guide-bbox="true"
     inkscape:window-width="3004"
     inkscape:window-height="1647"
     inkscape:window-x="4"
     inkscape:window-y="0"
     inkscape:window-maximized="1" />
  <metadata
     id="metadata3488">
    <rdf:RDF>
      <cc:Work
         rdf:about="">
        <dc:format>image/svg+xml</dc:format>
        <dc:type
           rdf:resource="http://purl.org/dc/dcmitype/StillImage" />
        <dc:title></dc:title>
      </cc:Work>
    </rdf:RDF>
  </metadata>
  <g
     inkscape:label="Layer 1"
     inkscape:groupmode="layer"
     id="layer1">
    <path
       style="fill:#e6e6e6"
       d="m 291.48864,381.44062 c -6.87885,-1.30531 -15.57543,-6.48194 -16.3675,-7.61 l -0.99197,-1.41276 c -0.76135,-1.08432 -0.99197,-1.44025 -0.99197,-9.99492 0,-8.55468 0.23062,-8.91061 0.99197,-9.99493 l 0.99197,-1.41276 c 0.42865,-0.61048 10.90083,-6.4817 16.30828,-7.3353 3.6375,-0.5742 6.34942,-0.65065 80.61085,-0.96389 78.75889,-0.3322 82.82128,-0.26535 94.7331,1.55898 6.84504,1.04834 14.45426,2.76691 16.90938,3.81905 2.45513,1.05213 6.30521,1.92224 8.55574,1.93358 l 4.09188,0.0206 0,-3.80759 0,-3.80759 6.44779,0 6.44781,0 0,19.98985 0,19.98984 -6.44781,0 -6.44779,0 0,-3.80759 0,-3.80759 -4.1202,0 c -2.26612,0 -6.56259,0.87817 -9.54771,1.95147 -2.98513,1.07331 -10.44936,2.77665 -16.58717,3.78519 -10.47157,1.72066 -16.08329,1.8269 -91.01321,1.72298 -43.91946,-0.0609 -81.52751,-0.42839 -83.57344,-0.81662 z"
       id="path3641"
       inkscape:connector-curvature="0"
       sodipodi:nodetypes="csssssssssscccccccccccsssscc"
       inkscape:export-xdpi="18.907562"
       inkscape:export-ydpi="18.907562" />
  </g>
</svg>
